<svg id="Слой_1" xmlns="http://www.w3.org/2000/svg" viewBox="0 0 640 480"><style>.st0{fill:#fff}.st1{fill:#3d6deb}.st2{fill:#da143a}.st3{fill:#a9a8ae}.st4{fill:#2394bc}.st5{fill:#ec8840}.st6{fill:#26a6d1}.st7{fill:#73a1fb}.st8{fill:#78b86d}.st9{fill:#f1cb30}.st10{fill:#e2574c}</style><path class="st0" d="M169.9 159v1.3c.2 1.2.1 2.5-.1 3.7-.2 3.4-.5 6.7-1.2 10-.1.5-.2 1.1-.4 1.6.2-.2.4-.3.6-.5 1-2.3 2-4.6 3.1-6.9.9-4.9 1.5-9.9 2-14.7h-.1l-3.9 5.5zm-34.1 22.5c3.7.8 7.5-3.1 10.4-7.2v-.1c.5-5.5 1.8-11 3.9-16.4l-5.3 7v-.2c-1.4-6.6 2.6-13.1 9-14.9 1.1-2.2 2.3-4.3 3.6-6.2.2-.2.3-.5.5-.7l-5.8-12.1c-1 2.7-2.1 5.3-3.2 7.9l-.2 8c-1.6.9-3 2-4.2 3.3l-.5-.2c-1.3 2.8-2.6 5.7-4 8.5-.2.8-.3 1.6-.4 2.4l-1 .5-4.5 9.3 6.3.2-6.9 9c.7.9 1.4 1.7 2.3 1.9zm22.2-6.8c-.1 0-.1 0 0 0-.6.8-1 1.5-1.5 2.2-.1.1-.2.3-.3.4 0 .5.1.9.1 1.3.7-1.2 1.2-2.6 1.7-3.9zm-34.4 19c.7 1 1.2 2 1.4 3l2.5-1.9c-1.2-.7-2.4-1.3-3.6-1.9-.1.3-.2.6-.3.8zm40.7 18.5c-.3.3-.6.5-.9.7l-.1.7 9.4-2-3.1-5.1c-1.7 1.9-3.5 3.8-5.3 5.7zm-54.8-35.9l7.4-4.5c.4-.3.7-.8.6-1.3-.1-.5-.5-.9-1.1-1l-10.7-1.4 1.6 7.8c.7 0 1.4.2 2.2.4z"/><path class="st0" d="M164.3 212.2l3.4-.7-1.1-1.7c-.7.7-1.5 1.6-2.3 2.4zm-58.2-36.7l6-3.7c.4-.3.7-.8.6-1.3-.1-.5-.5-.9-1-1l-10.7-1.4 1.5 7c1.1 0 2.3.2 3.6.4z"/><path class="st1" d="M171.7 169.3l-6.2 8.2c-.1.1-.1.2-.2.2l-8.2 6.2c.4.1.7.1 1.1.2h.2c1.4.2 2.7.1 4-.2 1.4-.3 2.6-.8 3.8-1.5 4.4-2.7 6.6-7.9 5.6-12.9 0-.1 0-.2-.1-.2zm-10.2-9.4h-.1c-.5-.1-1-.1-1.5-.1-.8 0-1.7.1-2.5.3-6.6 1.4-10.8 7.9-9.4 14.4v.2l6.2-8.2c.1-.1.1-.2.2-.2l8.2-6.2c-.4-.1-.7-.2-1.1-.2z"/><path class="st1" d="M110.7 177.7l10.2 1.4c.5.1.9.4 1 .9.1.5-.1 1-.5 1.3l-8.8 5.4c2.3 7.2 6.2 13.9 11.5 19.5 0-.1.1-.2.2-.3L144 180l-14.6-.4c-.5 0-1-.4-1.1-.9-.1-.5.2-1.1.7-1.3l14.3-6.8c.1-1.7.5-3.4 1.2-4.9l-5.9-6.2c-.4-.4-.4-1-.1-1.5.3-.5.9-.7 1.4-.5l8 2.8c1.2-1.2 2.5-2.3 4-3.1l.4-15.8c0-.5.4-1 .9-1.1.5-.1 1.1.2 1.3.7l6.8 14.3c2 .2 3.9.7 5.7 1.5l26.8-20.4c.1-.1.2-.1.3-.2-9.3-8.9-21.4-13.7-34.2-13.7-1.9 0-3.8.1-5.8.3l-1.4 10.2c-.1.5-.4.9-.9 1-.5.1-1-.1-1.3-.5l-5.4-8.8c-7.6 2.4-14.6 6.6-20.3 12.3-9.3 9.3-14.5 21.8-14.5 35 .1 1.9.2 3.8.4 5.7zm65.1-13.8l14.6.4c.5 0 1 .4 1.1.9.1.5-.2 1.1-.7 1.3l-14.3 6.8c-.1 1.7-.5 3.4-1.2 4.9l5.9 6.2c.4.4.4 1 .1 1.5-.3.5-.9.7-1.4.5l-8-2.8c-1.2 1.2-2.5 2.3-4 3.1l-.4 15.8c0 .5-.4 1-.9 1.1-.5.1-1.1-.2-1.3-.7l-6.8-14.3c-2-.2-3.9-.7-5.7-1.5L126 207.5c-.1.1-.2.1-.3.2 9.3 8.9 21.4 13.7 34.2 13.7 1.9 0 3.8-.1 5.8-.3l1.4-10.2c.1-.5.4-.9.9-1 .5-.1 1 .1 1.3.5l5.4 8.8c7.6-2.4 14.6-6.6 20.3-12.3 9.4-9.3 14.5-21.8 14.5-35 0-1.9-.1-3.8-.3-5.8l-10.2-1.4c-.5-.1-.9-.4-1-.9-.1-.5.1-1 .5-1.3l8.8-5.4c-2.3-7.2-6.2-13.9-11.5-19.5 0 .1-.1.2-.2.3l-19.8 26z"/><path class="st0" d="M166.2 182.4c-1.2.7-2.5 1.2-3.8 1.5-1.3.3-2.7.3-4 .2h-.2c-.4 0-.7-.1-1.1-.2l8.2-6.2-10.9-11.3c-.1.1-.2.1-.2.2l-6.2 8.2v-.2c-1.4-6.6 2.8-13 9.4-14.4.8-.2 1.7-.3 2.5-.3.5 0 1 0 1.5.1h.1c.4 0 .7.1 1.1.2l4.4-3.3c-1.8-.8-3.7-1.4-5.7-1.5l-6.8-14.3c-.2-.5-.8-.8-1.3-.7-.5.1-.9.6-.9 1.1l-.4 15.8c-1.5.8-2.9 1.9-4 3.1l-8-2.8c-.5-.2-1.1 0-1.4.5-.3.5-.2 1.1.1 1.5l5.9 6.2c-.7 1.6-1.1 3.2-1.2 4.9l-14.3 6.8c-.5.2-.8.8-.7 1.3.1.5.6.9 1.1.9l14.6.4-19.7 25.9c-.1.1-.1.2-.2.3l1.8 1.4 26.8-20.4c1.8.8 3.7 1.4 5.7 1.5l6.8 14.3c.2.5.8.8 1.3.7.5-.1.9-.6.9-1.1l.4-15.8c1.5-.8 2.9-1.9 4-3.1l8 2.8c.5.2 1.1 0 1.4-.5.3-.5.2-1.1-.1-1.5l-5.9-6.2c.7-1.6 1.1-3.2 1.2-4.9l14.3-6.8c.5-.2.8-.8.7-1.3-.1-.5-.6-.9-1.1-.9l-14.6-.4-4 5.5c1.2 4.9-1.1 10.1-5.5 12.8z"/><path class="st2" d="M195.6 137.8l-1.5-1.5c-.1 0-.2.1-.3.2L167 156.8l-4.4 3.3-8.2 6.2 10.9 11.3c.1-.1.2-.1.2-.2l6.2-8.2v.2l4-5.5 19.7-25.9.2-.2z"/><path class="st0" d="M151.8 134c.5-.1.9-.5.9-1l1.4-10.2-9 1.9 5.4 8.8c.3.4.8.6 1.3.5zm46 29.9c.1.5.5.9 1 .9l10.2 1.4-1.9-9-8.8 5.4c-.4.3-.6.8-.5 1.3z"/><path class="st3" d="M198.8 116.2c-11-7.7-24.5-12.3-38.9-12.3-2.4 0-4.9.1-7.3.4.8-1.3 1.1-2.8.8-4.3-.6-3-3.7-5-7.6-5-.8 0-1.6.1-2.4.3-2.3.5-4.3 1.6-5.6 3.1-1.4 1.6-2 3.5-1.6 5.4.3 1.5 1.2 2.7 2.5 3.6-6.3 2.1-12.2 5.1-17.6 8.9-5.7 4-10.9 8.9-15.2 14.5-9.1 11.9-14 26.2-14 41.3 0 37.5 30.5 68 68 68s68-30.5 68-68c0-23.2-11.5-43.6-29.1-55.9zm-57.5-14.9c.7-.7 1.8-1.2 3-1.5.5-.1 1-.2 1.5-.2 1.8 0 3 .7 3.1 1.4.1.4-.1.9-.6 1.3-1.1-.5-2.4-.7-3.6-.4-1.2.3-2.3.9-3.1 1.8-.6-.3-1-.6-1-1-.1-.3.1-.9.7-1.4zM194.9 207c-5.7 5.7-12.7 9.9-20.3 12.3l-9 1.9c-1.9.2-3.8.3-5.8.3-12.9 0-25-4.9-34.2-13.7.1 0 .2-.1.3-.2l-1.8-1.4c-5.3-5.5-9.3-12.2-11.5-19.5l-1.9-9c-.2-1.9-.3-3.9-.3-5.8 0-13.2 5.1-25.7 14.5-35 5.7-5.7 12.7-9.9 20.3-12.3l9-1.9c1.9-.2 3.8-.3 5.8-.3 12.9 0 25 4.9 34.2 13.7l1.5 1.5c5.3 5.5 9.3 12.2 11.5 19.5l1.9 9c.2 1.9.3 3.9.3 5.8 0 13.3-5.2 25.7-14.5 35.1z"/><path class="st0" d="M167.9 209.9c-.5.1-.9.5-.9 1l-1.4 10.2 9-1.9-5.4-8.8c-.3-.4-.8-.6-1.3-.5zm-46-29.9c-.1-.5-.5-.9-1-.9l-10.2-1.4 1.9 9 8.8-5.4c.4-.3.6-.8.5-1.3z"/><path class="st4" d="M325.7 95c38 0 68.6 31.2 68.6 69.9s-30.6 69.9-68.6 69.9-68.6-31.2-68.6-69.9S287.7 95 325.7 95z"/><path class="st5" d="M337.5 238.6c34.8-6.1 61.3-36.4 61.3-73.7l-.5.9c.9-7 .9-13.5-.5-18.6-.5 4.2-.9 6.5-1.8 7.5 0-.5 0-4.7-1.4-10.3-.5-4.2-1.4-8.4-2.7-12.1.5 1.9.5 3.3.5 4.7-5.5-14.5-18.3-32.6-50.8-32.2 0 0 11.4 1.4 16.5 9.3 0 0-5.5-1.4-9.6.9 5 1.9 9.6 4.2 13.3 6.5h.5c.9.5 1.8 1.4 2.7 1.9 6.9 5.1 13.3 12.1 12.8 21-1.8-2.8-3.7-4.7-6.4-5.1 3.2 12.6 3.2 22.8.9 30.8-1.8-5.6-3.2-8.4-4.6-9.8 1.8 16.8-.5 28.9-7.8 36.8 1.4-4.7 1.8-8.9 1.8-12.1-8.7 13.1-18.3 20-29.3 20.5-4.1 0-8.2-.5-12.3-1.9-5.5-1.9-10.5-5.1-15.1-9.8 6.9.5 13.7-.5 19.2-3.7l9.1-6.1c1.4-.5 2.3-.5 3.7 0 2.3-.5 3.2-1.4 2.3-3.7-.9-1.4-2.7-2.8-5-4.2-4.6-2.3-9.6-1.9-14.6 1.4-5 2.8-9.6 2.8-14.2-.5-2.7-1.9-5.9-4.7-8.7-8.4l-.9-1.9c-.5 4.2 0 8.9 1.8 15.4-1.8-6.1-2.3-11.2-1.8-15.4 0-3.3 1.4-5.6 4.1-5.6h-.9 1.4c3.2.5 6.4.9 10.5 2.3.5-3.7 0-7.9-2.7-12.1 3.7-3.7 6.9-6.1 9.6-7.5 1.4-.5 1.8-1.9 2.3-3.3.9-1.9.5-2.8-.5-3.7-2.7 0-5 0-7.8-.5-.9-.5-2.3-1.4-4.1-2.8l-4.1-4.2-1.4-.9-.5-.5.5-.5c.5-3.3 1.4-6.1 2.7-8.4l.5-.5c1.4-2.3 4.1-4.7 7.8-7.5-7.3.9-13.7 4.2-19.7 9.8-4.6-1.4-10.5-.9-16.9 1.9l-.9.5.9-.5c-4.1-1.9-6.9-7.5-8.2-16.8-5.5 5.1-7.8 14.9-7.8 28.4l-1.4 2.3-.5.5c-.9 1.4-1.8 3.3-3.2 5.6-1.8 3.7-2.7 6.5-2.7 9.3v2.8l4.1-3.3c-1.4 4.2-2.7 8.4-3.2 12.6v1.9l-1.4-1.4c0 15.8 5 30.8 13.3 42.9l.5.5.5.5c5.9 8.4 13.7 15.4 22.9 21 6.4 3.7 13.3 6.5 20.6 8.4l1.4.5c1.4.5 3.2.5 4.6.9 1.4 0 2.3.5 3.7.5h11c1.8 0 3.7-.5 5.5-.5-.2-.7 1.1-.7 1.1-.7zm46.2-90.9v.5-.5z"/><path class="st6" d="M476.5 130.4c-5.8 6.2-8.6 13.9-9.6 22.1h50.8v-3.8c-.5-5.3-1.4-10.5-4.3-15.3-3.8-6.2-10.1-9.6-17.3-10.5-10.5-1.9-20.6 0-30.2 3.8-14.4 5.3-26.4 13.9-36 25.4-1.4 1.9-2.9 4.3-4.8 6.7 0-1.4 0-1.9.5-2.9 1.9-13.4 6.7-26.4 15.8-36.9 10.5-12.5 24-20.1 40.3-23 15.8-2.4 30.7 0 44.6 8.1 12.9 7.2 21.6 18.2 26.8 32.1 2.9 7.7 4.3 16.3 4.8 24.4v17.7h-90.1c0 7.2 2.4 13.9 7.2 19.2 5.8 6.2 13.4 9.1 21.1 10.5 17.3 2.4 33.1-.5 47.9-9.1.5 0 1-.5 1-.5h.5v28.7c0 1-.5 1.4-1.4 1.9-10.5 5.3-22.1 8.6-34 9.1-7.7.5-15.3.5-22.5-1-22.5-4.8-40.7-21.1-45.1-44.6-4.8-26.8 8.1-51.3 33.6-62.3-.1.2-.1.2.4.2z"/><path class="st7" d="M220.6 321.2c0 13.9 11.3 25.1 25.1 25.1 13.9 0 25.1-11.3 25.1-25.1 0-13.9-11.3-25.1-25.1-25.1s-25.1 11.3-25.1 25.1z"/><path class="st2" d="M303.6 288c.2-.3.2-.8 0-1.1-5.9-9.9-14.2-18.1-24.1-23.9-10.2-5.9-21.9-9.1-33.8-9.1-20.6 0-39.7 9.2-52.6 25.3-.3.4-.3.8-.1 1.2l18.9 32.8c.2.3.6.6 1 .6h.1c.4-.1.8-.4.9-.8 3.7-14.5 16.8-24.6 31.7-24.6.9 0 1.9 0 2.8.1h54.1c.5.1.9-.1 1.1-.5z"/><path class="st8" d="M255.7 353.2c-.3-.4-.7-.5-1.2-.4-2.8.8-5.8 1.2-8.8 1.2-12.6 0-24.3-7.4-29.7-18.9v-.1l-27-46.8c-.2-.3-.6-.6-1-.6s-.8.2-1 .6c-5.6 10-8.6 21.4-8.6 33 0 16.2 5.8 31.9 16.5 44.1 10.5 12.1 25 20.1 40.8 22.4h.2c.4 0 .8-.2 1-.6l18.9-32.8c.2-.3.1-.8-.1-1.1z"/><path class="st9" d="M307.3 295.9h-37.9c-.4 0-.9.3-1 .7-.2.4-.1.9.2 1.2 6.3 6.2 9.8 14.5 9.8 23.4 0 6.7-2 13.2-5.8 18.7v.1l-27.1 46.9c-.2.3-.2.8 0 1.1.2.3.6.5 1 .5 17.8-.2 34.5-7.3 47-19.9 12.5-12.7 19.4-29.5 19.4-47.3 0-8.5-1.6-16.7-4.6-24.6-.1-.5-.5-.8-1-.8z"/><path class="st10" d="M448.6 266.4c-9.7-6.7-21.8-10.4-35.4-10.4-12.4 0-23.6 3.1-32.9 8.7-17.9 10.7-28.9 30.8-28.9 56.5 0 34.8 24.7 66.5 61.7 66.5s61.7-31.7 61.7-66.5c.1-24.4-9.8-43.8-26.2-54.8zm-35.4 1.9c19.9 0 24.7 27.6 24.7 52.7 0 23.2-3 54.3-24.4 54.3s-24.9-31.4-24.9-54.6c-.1-25.1 4.8-52.4 24.6-52.4z"/></svg>