<svg id="Слой_1" xmlns="http://www.w3.org/2000/svg" viewBox="0 0 640 480"><style>.st0{fill:#f03c2e}.st1{fill:#d34a47}.st2{fill:#fff}.st3{fill:#e44f26}.st4{fill:#f1662a}.st5{fill:#ebebeb}.st6{fill:#010101}.st7{fill:#131313}.st8{fill:#1572b6}.st9{fill:#33a9dc}.st10{fill:url(#path19_1_)}.st11,.st12{fill:#f6f6f6}.st12{stroke:#404040;stroke-width:5.1509;stroke-miterlimit:10}.st13{fill:#cb3837}.st14{fill:#cf649a}.st15{fill:#404137}.st16{fill:#83cd29}</style><path d="M584.4 193.2c-.6.2-1.2.5-1.8.6-2.4.4-3.9-.8-3.9-3.2v-13.5c.1-5.2 0-10.3-4-14.5 2.3-.4 4.4-.7 6.5-1.2 13.5-3.1 20.5-11.6 21.4-25.7.5-7.2-.8-13.8-5.6-19.4-.3-.4-.4-1.3-.2-1.9 1.3-4.7.9-9.2-.6-13.8-.4-1.1-1-1.5-2.1-1.4-4 .2-7.6 1.6-10.8 3.7-3.1 2.1-6 2.5-9.6 1.7-8.1-1.8-16.2-1.3-24.2.6-.9.2-2.1-.1-3-.6-3.8-2.2-7.6-4.4-11.9-5.2-3.4-.7-3.7-.5-4.6 2.8-1.1 4.1-1.2 8.2-.1 12.3.2.6 0 1.6-.4 2-8.9 10-5.7 28.8.3 36 4.7 5.6 10.9 8.1 17.8 9.4l3.6.6c-1 2.7-2 5.2-3 7.7-.2.5-.9.9-1.4 1.1-6.8 2.6-12.6.7-16.5-5.4-2.1-3.3-4.7-5.7-8.7-6.4-.1 0-.3-.1-.4-.1-1.1.3-2.1.6-3.2.9.6.8 1 1.9 1.8 2.4 3.4 2.1 5.5 5.1 7 8.7 2.3 5.6 6.7 8.1 12.4 8.6 2.8.2 5.6 0 8.7 0 0 3.5.1 7.4-.1 11.4-.1 2.1-2.2 3-4.8 2.1-6.8-2.3-13.1-5.7-18.5-10.3-19.7-16.9-27.2-38.3-20.7-63.4 6.5-25 23.5-40.3 48.9-45.1 35.1-6.6 68.4 18.9 71.9 54.6 2.8 28.1-13.8 54.3-40.2 63.9zm-33.1-30.8s0 .1-.1.1h.2c.1 0 .1.1-.1-.1zm-15.9 11.1c.5.3 1.1.8 1.7 1 .2.1.6-.4 1.3-.9-1-.4-1.6-.7-2.2-.8-.2-.1-.5.4-.8.7zm5 .8c.1.4.8.8 1.2.8.4 0 .8-.6 1.2-.9-.4-.3-.8-.7-1.9-1.7-.2.8-.6 1.3-.5 1.8zm6.1-1.5c-.5.1-1 .6-1.4.9.3.3.6.7 1 1.2.6-.6 1-.9 1.4-1.3-.3-.2-.7-.8-1-.8zm-15.2-2c.3.5.7 1 1.3 1.8.4-.7.8-1.2.8-1.3-.4-.5-.9-.9-1.4-1.3 0 0-.7.6-.7.8z"/><path class="st0" d="M404.1 387.7c3.6 3.6 3.6 9.3 0 12.9l-61.5 61.5c-3.6 3.6-9.3 3.6-12.9 0l-61.8-61.8c-3.6-3.6-3.6-9.3 0-12.9l42.4-42.4 16.1 16.1c-1.6 3.9-.9 8.7 2.3 11.9 1.1 1.1 2.3 1.8 3.6 2.4v38.9c-1.3.5-2.5 1.3-3.6 2.4-4.2 4.2-4.2 11.1 0 15.3 4.2 4.2 11.1 4.2 15.3 0 4.2-4.2 4.2-11.1 0-15.3-.9-.9-1.8-1.5-2.9-2.1V376l14.6 14.6c-1.6 3.9-.8 8.6 2.4 11.8 4.2 4.2 11.1 4.2 15.4 0 4.2-4.2 4.2-11.1 0-15.3-3-3-7.4-3.9-11.2-2.6l-15.7-15.7c1.3-3.8.5-8.2-2.6-11.2-3-3-7.4-3.9-11.1-2.6l-16.3-16.3 12.8-12.8c3.6-3.6 9.3-3.6 12.9 0l61.8 61.8"/><path class="st1" d="M121.7 175.5l1.2-19.2 3.2-5.4s-7.2 3-19.4 3c-12.1 0-19.3-2.9-19.3-2.9l3.6 5.9 1.3 18.7c0 2 6.6 3.6 14.7 3.6 8.1-.1 14.7-1.7 14.7-3.7m-3.6-89.8l2.4-9.6L133.9 62l-3.5-3-14.2 15-2.8 11.4c-2.1-.1-4.2-.1-6.3-.1C92.2 85.3 80 87 80 89.1c0 2.2 12.1 3.9 27 3.9s27.1-1.7 27.1-3.8c0-1.5-6.6-2.9-16-3.5"/><path class="st2" d="M116.7 91.1s-.5.1-2.1.1c-1.5 0-2.6 0-3.1-.4-.1-.1-.2-.3-.2-.5 0-.3.2-.4.4-.5l.2.4c-.1 0-.2.1-.2.1 0 .2 1.6.3 2.8.3 1.2 0 2.7-.1 2.7-.3 0-.1-.1-.1-.3-.2l.2-.4c.3.1.6.3.6.6.1.7-.6.7-1 .8"/><path class="st1" d="M133.9 62.1c.3-.4-.2-1.4-1.1-2.2-1-.8-2-1.2-2.4-.8-.3.4.2 1.4 1.1 2.2 1 .8 2 1.2 2.4.8m-12.8 66.4c-.3-3.1 6.7-7.5 4.9-7.6-3.9.2-5.8 4.5-7.7 9.1-.7 1.7-3.2 8.7-4.8 7.8-1.6-.9 2.1-6.7 3.1-10.1-1.2.9-5.5 4.3-6.7 1.1-1.8 1.5-5.7 2.4-5.2-1.7-1 1.7-3.1 4.1-5.7 3.1-3.4-1.3 2-12.1 3.3-11.6 1.3.5-.3 3-.7 4-.9 2.1-2 4.8-1.3 5.3 1.2.9 4.5-3.5 4.6-3.6.6-.8 2.4-6.2 3.8-5.6 1.4.6-3.6 7.7-1.7 9.1.4.3 1.9-.2 2.9-1.2.6-.7.4-2.1 2.4-6.9 2-4.8 3.8-10.8 5.2-10.4 1.4.5.2 3.5-.3 4.7-2.3 5.4-6.4 14.3-4.5 13.6 1.9-.7 2.9-.7 4.8-2.9s1.8-5.8 3-5.7c1.2.1 1 1.2.7 2.1 1.2-1.4 5.8-4.3 6.9-1.4 1.3 3.5-6.5 8.4-4.6 8.2 1.9-.2 5-2.2 6.3-4l3.6-32.7s-3.7 3-26.9 3c-23.3 0-26.5-3-26.5-3l3.1 29.8c1.6-4.7 5.5-14.1 11.7-13.8 2.8.1 6.5 5.5 3.3 5.7-1.4.1-1.5-2.7-3.1-3.1-1.2-.3-2.8.6-3.8 1.7-2.1 2-6.5 10-5.9 14 .8 5.1 7-1.8 8.1-3.8.7-1.4 1.3-5.7 2.9-5.2 1.6.4-.1 4.8-1.3 8.7-1.3 4.4-2 8.9-3.7 8.4-1.7-.5 1-6.1 1-7.1-1.6 1.4-4.5 5.1-8.2 3.3l1.9 18.5s5.1 4 20.5 4 20.7-4 20.7-4l2.4-21.4c-2 2.1-8.1 5.4-8.5 1.6"/><path class="st3" d="M211.2 184.2l-10.1-113h110.7l-10.1 112.9-45.3 12.6z"/><path class="st4" d="M256.4 187.1l36.7-10.2 8.6-96.5h-45.3z"/><path class="st5" d="M256.4 122.3h-18.3l-1.3-14.2h19.6V94.3h-34.7l.3 3.7 3.4 38.2h31zm0 36l-15.5-4.1-.9-11.1h-14l2 21.8 28.4 7.8z"/><path class="st6" d="M211.4 40.5h7v7h6.4v-7h7v21.1h-7v-7.1h-6.4v7.1h-7V40.5zm29.8 7H235v-7h19.4v7h-6.2v14.1h-7V47.5zm16.3-7h7.3l4.5 7.4 4.5-7.4h7.3v21.1h-7V51.1l-4.8 7.5h-.1l-4.8-7.5v10.4h-6.9v-21zm27.2 0h7v14.1h9.9v7h-16.9V40.5z"/><path class="st2" d="M256.4 122.3v13.9h17.1l-1.7 17.9-15.4 4.2v14.4l28.4-7.8.2-2.4 3.3-36.5.3-3.7h-3.7zm0-28v13.8h33.5l.2-3.1.7-7 .3-3.7z"/><path class="st7" d="M438.1 46.3h-9.2l9.6 10.4v4.9h-19.7v-5.8h9.6l-9.6-10.4v-4.9h19.3v5.8zm-23.2 0h-9.2l9.6 10.4v4.9h-19.7v-5.8h9.6l-9.6-10.4v-4.9h19.3v5.8zm-23 .2H382v9h9.9v6h-17v-21h17v6z"/><path class="st8" d="M361.4 184.2l-10.1-113H462l-10 112.9-45.4 12.6z"/><path class="st9" d="M406.7 187.1l36.6-10.1 8.6-96.6h-45.2z"/><path class="st2" d="M406.7 121.4H425l1.3-14.2h-19.6V93.3h34.7l-.3 3.7-3.4 38.2h-31z"/><path class="st5" d="M406.8 157.3l-.1.1-15.4-4.2-1-11.1h-13.9l1.9 21.8 28.4 7.9h.1z"/><path class="st2" d="M423.9 134.6l-1.7 18.6-15.5 4.2v14.4l28.4-7.9.2-2.3 2.5-27z"/><path class="st5" d="M406.7 93.3v13.9h-33.4l-.3-3.2-.6-7-.4-3.7zm0 28.1v13.8h-15.2l-.3-3.1-.7-7-.3-3.7z"/><g id="layer1" transform="translate(130.531 -317.844)"><linearGradient id="path19_1_" gradientUnits="userSpaceOnUse" x1="297.743" y1="264.265" x2="297.743" y2="336.923" gradientTransform="translate(19.712 279.771)"><stop offset=".15" stop-color="#2a4f84"/><stop offset=".388" stop-color="#294e82"/><stop offset="1" stop-color="#172e4e"/></linearGradient><path id="path19" class="st10" d="M390.4 602.7c0 7.7-6.3 14-14 14H258.6c-7.7 0-14-6.3-14-14v-44.6c0-7.7 6.3-14 14-14h117.8c7.7 0 14 6.3 14 14v44.6z"/><path id="path21" class="st11" d="M365.7 579.4c6.2 2.2 9.2 5.8 9.2 11.1 0 3.4-1.3 6.2-3.8 8.2-2.5 2-6.2 3.3-10.9 3.3s-9.1-1.4-13.1-3.6c0-1.2.4-2.5.9-3.9s1.3-2.5 2-3.4c3.7 1.9 6.9 2.9 9.6 2.9 1.3 0 2.3-.2 3-.7.7-.4 1-1 1-1.8 0-1.4-1.1-2.4-3.2-3.1l-3.8-1.4c-5.8-2.1-8.7-5.5-8.7-10.3 0-3.5 1.2-6.2 3.6-8.3 2.4-2 5.7-3.8 9.8-3.8 2 0 4.3.3 6.7.9 2.5.6 4.5 2 6 2.8.1 1.3-.2 2.7-.8 4.2-.6 1.5-1.3 2.6-2.2 3.3-3.9-1.7-7.1-2.6-9.7-2.6-.9 0-1.6.2-2.1.6-.5.4-.7.9-.7 1.6 0 1.1.9 2 2.6 2.6l4.6 1.4z"/><path id="path23" class="st11" d="M335 579.4c6.2 2.2 9.2 5.8 9.2 11.1 0 3.4-1.3 6.2-3.8 8.2-2.5 2-6.2 3.3-10.9 3.3s-9.1-1.4-13.1-3.6c0-1.2.4-2.5.9-3.9.6-1.4 1.3-2.5 2-3.4 3.7 1.9 6.9 2.9 9.7 2.9 1.3 0 2.3-.2 3-.7.7-.4 1-1 1-1.8 0-1.4-1.1-2.4-3.2-3.1L326 587c-5.8-2.1-8.7-5.5-8.7-10.3 0-3.5 1.2-6.2 3.6-8.3 2.4-2 5.7-3.8 9.8-3.8 2 0 4.3.3 6.7.9 2.5.6 4.5 2 6 2.8.1 1.3-.2 2.7-.8 4.2-.6 1.5-1.3 2.6-2.2 3.3-3.9-1.7-7.1-2.6-9.7-2.6-.9 0-1.6.2-2.1.6-.5.4-.7.9-.7 1.6 0 1.1.9 2 2.6 2.6l4.5 1.4z"/><path id="path25" class="st11" d="M312.6 579.9c0-2.1-.3-4.1-1-5.8-.7-1.8-1.6-3.3-2.9-4.6-1.3-1.3-2.8-2.3-4.5-3-1.8-.7-3.8-1.8-6-1.8-2.6 0-4.9 1.2-6.9 2.1-2 .9-3.6 2.2-4.9 3.8-1.3 1.6-2.2 3.5-2.8 5.7-.6 2.2-.9 4.5-.9 7.1 0 2.7.3 5.1.8 7.4.5 2.2 1.4 4.2 2.6 5.8 1.2 1.6 2.8 2.9 4.8 3.8 2 .9 4.4 1.6 7.3 1.6 5.4 0 9.9-1.6 13.6-4.2-.4-2.7-1.3-4.8-2.8-6.3-1.9.7-3.6 1.2-5 1.5-1.5.3-2.7.5-3.8.5-2.2 0-3.8-.6-4.8-1.7s-1.5-2.5-1.6-4.5h18c.4-2 .8-4.6.8-7.4zm-19.1.5c.1-2.3.6-4.8 1.3-5.9.7-1 1.8-1.5 3.3-1.5 1.5 0 2.7.5 3.4 1.6.8 1.1 1.1 3.3 1.1 5v.8h-9.1z"/><path id="path27" class="st12" d="M394 584.9c-2 1.7-3.1 4.2-3.1 7.4v12c0 4-1.2 7-4 9.1-2.8 2.1-6 3.1-9.7 3.2H375v-6c1.9-.6 2.7-1.2 3.5-2 1.4-1.3 2.5-3.3 2.5-6.1v-9.7c.1-3.3.3-5.9 1.5-7.7 1.2-1.9 3.5-3.5 7-4.9-3.8-1.8-6.4-4.1-7.7-6.9-.8-1.7-.8-4-.8-6.8v-8.9c0-2.9-1-5-2.1-6.2-.8-.8-1.7-1.4-3.8-1.8V544h5.4c2.3 0 4.3 1.3 6 2.6 1.9 1.5 3.2 3.4 3.9 5.9.4 1.4.5 2.8.5 4.1v10.3c0 3.6 1.1 6.3 2.9 8.1 1 1 2.5 2 5 2.8v4.6c-2.2.7-3.6 1.5-4.8 2.5z"/><path id="path29" class="st12" d="M256 544h-2c-2.3 0-4.3 1.3-6 2.6-1.9 1.5-3.4 3.4-3.9 5.9-.3 1.5-.2 2.8-.2 4.1v10.3c0 3.6-1.4 6.3-3.2 8.1-1 1-3.2 2-5.7 2.8v4.6c2.2.6 4.4 1.4 5.5 2.5 2 1.7 3.4 4.2 3.4 7.4v12c0 4 1 7 3.7 9.1 2.8 2.1 6 3.1 9.7 3.2h2.5v-6c-1.9-.6-3-1.2-3.8-2-1.4-1.3-2.2-3.3-2.2-6.1v-9.7c-.1-3.3-.6-5.9-1.8-7.7-1.2-1.9-3.5-3.5-7-4.9 3.8-1.8 6.4-4.1 7.7-6.9.8-1.7 1.1-4 1.1-6.8v-8.9c0-2.9.7-5 1.9-6.2.6-.6 1.8-1.2 3.4-1.6h2.5v-5.9l-5.6.1z"/><path id="path31" class="st11" d="M279 592.7h-1.9c-2 0-2.8-1.1-2.8-3.2V550c0-2.4-.7-4-1.6-5-.9-1-2.4-1-4.6-1h-4.6v47.4c0 3.3.7 5.7 2.1 7.3 1.3 1.5 3.6 2.3 6.7 2.3 2.2 0 4.7-.2 7.4-.7.1-.5.2-1.5.2-3s-.3-3-.9-4.6z"/></g><path class="st13" d="M51 371.1h179.1v59.7h-89.6v10h-39.8v-10H51v-59.7zm9.9 49.7h19.9V391h10v29.9h10V381H60.9v39.8zm49.8-39.8v49.8h19.9v-10h19.9V381h-39.8zm19.9 10h10v19.9h-10V391zm29.9-10v39.8h19.9V391h10v29.9h10V391h10v29.9h10V381h-59.9z"/><path class="st2" d="M60.9 420.8h19.9V391h10v29.8h9.9V381H60.9zm49.8-39.8v49.8h19.9v-10h19.9V381h-39.8zm29.8 29.9h-10V391h10v19.9zm20-29.9v39.8h19.9V391h9.9v29.8h10V391h9.9v29.8h10V381z"/><path class="st14" d="M245.4 272.1c-6 0-11.2 1.5-15.6 3.6-1.6-3.2-3.2-6-3.5-8.1-.3-2.4-.7-3.9-.3-6.8.4-2.9 2-7 2-7.3 0-.3-.4-1.8-3.8-1.8-3.5 0-6.4.7-6.8 1.6s-1 3-1.4 5.1c-.6 3.2-6.9 14.3-10.5 20.2-1.2-2.3-2.2-4.3-2.4-5.9-.3-2.4-.7-3.9-.3-6.8.4-2.9 2-7 2-7.3 0-.3-.4-1.8-3.8-1.8-3.5 0-6.4.7-6.8 1.6-.3.9-.7 3.1-1.4 5.1-.7 2.1-9.1 20.8-11.3 25.6-1.1 2.5-2.1 4.5-2.8 5.8-.7 1.3 0 .1-.1.2-.6 1.1-.9 1.8-.9 1.8-.5.8-1 1.6-1.2 1.6-.2 0-.5-2.3.1-5.3 1.2-6.5 4.3-16.6 4.2-17 0-.2.6-1.9-1.9-2.9-2.5-.9-3.3.6-3.5.6-.2 0-.4.5-.4.5s2.7-11.4-5.2-11.4c-5 0-11.8 5.4-15.2 10.3-2.1 1.2-6.7 3.7-11.6 6.3-1.8 1-3.8 2.1-5.6 3.1l-.4-.4c-9.6-10.2-27.4-17.5-26.6-31.3.3-5 2-18.2 34.1-34.2 26.3-13.1 47.4-9.5 51-1.5 5.2 11.4-11.3 32.6-38.6 35.7-10.4 1.2-15.9-2.9-17.3-4.4-1.4-1.6-1.6-1.6-2.2-1.3-.9.5-.3 1.9 0 2.7.8 2.1 4.2 5.9 9.9 7.8 5 1.6 17.2 2.6 32-3.2 16.6-6.4 29.5-24.2 25.7-39.1-3.9-15.1-29-20.1-52.7-11.7-14.1 5-29.5 12.9-40.5 23.2-13.1 12.2-15.2 22.9-14.3 27.3 3.1 15.8 24.9 26.1 33.6 33.8-.4.2-.8.5-1.2.7-4.4 2.1-21 10.8-25.2 20.1-4.7 10.4.7 17.9 4.4 18.9 11.2 3.1 22.7-2.5 28.9-11.7 6.2-9.2 5.4-21.2 2.6-26.7l-.1-.2 3.4-2c2.2-1.3 4.4-2.5 6.3-3.6-1.1 2.9-1.8 6.4-2.3 11.4-.5 5.9 1.9 13.6 5.1 16.6 1.4 1.3 3.1 1.3 4.1 1.3 3.7 0 5.4-3.1 7.2-6.7 2.3-4.5 4.3-9.6 4.3-9.6s-2.5 14 4.4 14c2.5 0 5-3.3 6.2-4.9 0 0 .1-.1.2-.3.1-.2.3-.4.4-.6v-.1c1-1.7 3.3-5.7 6.6-12.4 4.3-8.5 8.5-19.2 8.5-19.2s.4 2.6 1.6 6.9c.7 2.6 2.4 5.3 3.6 8.1-1 1.4-1.6 2.2-1.6 2.2-.8 1.1-1.7 2.2-2.7 3.4-3.4 4.1-7.5 8.8-8.1 10.1-.6 1.6-.5 2.8.7 3.7.9.7 2.5.8 4.2.7 3.1-.2 5.2-1 6.3-1.4 1.7-.6 3.6-1.5 5.4-2.9 3.4-2.5 5.4-6 5.2-10.7-.1-2.6-.9-5.1-2-7.6.3-.4.6-.9.9-1.3 5.3-7.8 9.4-16.3 9.4-16.3s.4 2.6 1.6 6.9c.6 2.2 1.9 4.6 3.1 6.9-5 4.1-8.1 8.8-9.2 11.9-2 5.7-.4 8.3 2.5 8.9 1.3.3 3.2-.3 4.6-.9 1.7-.6 3.9-1.5 5.8-3 3.4-2.5 6.6-5.9 6.4-10.6-.1-2.1-.7-4.3-1.4-6.3 4.2-1.7 9.7-2.8 16.7-1.9 14.9 1.7 17.9 11.1 17.3 15-.6 3.9-3.7 6-4.7 6.7-1 .6-1.4.9-1.3 1.3.1.7.6.7 1.5.5 1.2-.2 7.9-3.2 8.1-10.4 1-9-7.8-19-23.4-18.9zm-115.2 38.8c-4.9 5.4-11.9 7.5-14.8 5.7-3.2-1.8-1.9-9.8 4.1-15.6 3.7-3.5 8.5-6.7 11.7-8.7.7-.4 1.8-1.1 3.1-1.8.2-.1.3-.2.3-.2.2-.1.5-.3.8-.5 2.1 8.3 0 15.5-5.2 21.1zm36.1-24.5c-1.7 4.2-5.3 15-7.5 14.4-1.9-.5-3-8.7-.4-16.7 1.3-4.1 4.2-8.9 5.9-10.8 2.7-3 5.7-4 6.4-2.8.8 1.6-3.4 13.3-4.4 15.9zm29.8 14.2c-.7.4-1.4.6-1.7.4-.2-.1.3-.6.3-.6s3.7-4 5.2-5.8c.8-1.1 1.8-2.3 2.9-3.7v.4c0 4.8-4.7 8-6.7 9.3zm22.9-5.2c-.5-.4-.5-1.6 1.3-5.5.7-1.5 2.3-4.1 5.1-6.6.3 1 .5 2 .5 2.9.1 6-4.2 8.2-6.9 9.2z"/><g id="layer1_1_" transform="translate(-115.944 -501.421)"><path id="path22" class="st15" d="M646.4 866.6c-.1 0-.3 0-.4.1-.3.2-.4.4-.4.7V889c0 .2-.1.4-.3.5-.2.1-.4.1-.6 0l-3.5-2c-.5-.3-1.2-.3-1.7 0l-14.1 8.1c-.5.3-.8.9-.8 1.5v16.3c0 .6.3 1.2.8 1.5l14.1 8.1c.5.3 1.2.3 1.7 0l14.1-8.1c.5-.3.8-.9.8-1.5v-40.6c0-.6-.3-1.2-.9-1.5l-8.4-4.7c-.1.1-.3 0-.4 0zM555.6 887c-.3 0-.5.1-.8.2l-14.1 8.1c-.5.3-.8.9-.8 1.5v21.8c0 .3.2.6.4.7.3.2.6.2.8 0l8.4-4.8c.5-.3.9-.9.9-1.5v-10.2c0-.6.3-1.2.8-1.5l3.6-2.1c.3-.2.6-.2.8-.2.3 0 .6.1.8.2l3.6 2.1c.5.3.8.9.8 1.5V913c0 .6.3 1.2.9 1.5l8.4 4.8c.3.2.6.2.8 0 .3-.1.4-.4.4-.7v-21.8c0-.6-.3-1.2-.8-1.5l-14.1-8.1c-.2-.1-.5-.2-.8-.2zm126.8.2c-.3 0-.6.1-.8.2l-14.1 8.1c-.5.3-.8.9-.8 1.5v16.3c0 .6.3 1.2.9 1.5l14 8c.5.3 1.1.3 1.7 0l8.5-4.7c.3-.1.5-.4.5-.7 0-.3-.2-.6-.4-.7l-14.2-8.1c-.3-.2-.5-.5-.5-.8v-5.1c0-.3.2-.6.5-.7l4.4-2.5c.3-.2.6-.2.8 0l4.4 2.5c.3.2.4.4.4.7v4c0 .3.2.6.4.7.3.2.6.2.8 0l8.5-4.9c.5-.3.8-.9.8-1.5v-4c0-.6-.3-1.2-.8-1.5l-14-8.1c-.5-.2-.7-.2-1-.2zm-42.2 12.1c.1 0 .2 0 .2.1l4.8 2.8c.1.1.2.2.2.4v5.6c0 .2-.1.3-.2.4l-4.8 2.8c-.1.1-.3.1-.4 0l-4.8-2.8c-.1-.1-.2-.2-.2-.4v-5.6c0-.2.1-.3.2-.4l4.8-2.8c.1-.1.1-.1.2-.1z"/><path id="path28" class="st16" d="M724.6 886.8c-.5 0-1 .1-1.4.3l-13.3 7.7c-.9.5-1.4 1.4-1.4 2.4v15.3c0 1 .5 1.9 1.4 2.4l3.5 2c1.7.8 2.3.8 3.1.8 2.5 0 3.9-1.5 3.9-4.2v-15.1c0-.2-.2-.4-.4-.4h-1.7c-.2 0-.4.2-.4.4v15.1c0 1.2-1.2 2.3-3.2 1.4l-3.6-2.1c-.1-.1-.2-.2-.2-.3v-15.3c0-.1.1-.3.2-.4l13.3-7.7c.1-.1.3-.1.4 0l13.3 7.7c.1.1.2.2.2.4v15.3c0 .1-.1.3-.2.4l-13.3 7.7c-.1.1-.3.1-.4 0l-3.4-2c-.1-.1-.2-.1-.3 0-.9.5-1.1.6-2 .9-.2.1-.5.2.1.6l4.5 2.6c.4.2.9.4 1.4.4.5 0 1-.1 1.4-.4l13.3-7.7c.9-.5 1.4-1.4 1.4-2.4v-15.3c0-1-.5-1.9-1.4-2.4l-13.3-7.7c-.5-.3-1-.4-1.5-.4zm-126.6.3c-.3 0-.6.1-.8.2l-14.1 8.1c-.5.3-.8.9-.8 1.5v16.3c0 .6.3 1.2.8 1.5l14.1 8.1c.5.3 1.2.3 1.7 0l14.1-8.1c.5-.3.8-.9.8-1.5v-16.3c0-.6-.3-1.2-.8-1.5l-14.1-8.1c-.3-.1-.6-.2-.9-.2zm146.4.1v.4h1.1v2.9h.5v-2.9h1.1v-.4h-2.7zm3 0v3.3h.4v-2.8l.9 2.8h.5l1-2.8v2.7h.4v-3.3h-.6l-1 2.8-.9-2.8-.7.1zm-19.2 10.5c-3.8 0-6 1.6-6 4.3 0 2.9 2.2 3.7 5.9 4.1 4.4.4 4.7 1.1 4.7 1.9 0 1.5-1.2 2.1-4 2.1-3.5 0-4.3-.9-4.6-2.6 0-.2-.2-.3-.4-.3h-1.7c-.2 0-.4.2-.4.4 0 2.2 1.2 4.9 7 4.9 4.2 0 6.6-1.7 6.6-4.6 0-2.9-2-3.6-6-4.2-4.1-.5-4.5-.8-4.5-1.8 0-.8.3-1.9 3.4-1.9 2.7 0 3.7.6 4.2 2.4 0 .2.2.3.4.3h1.7c.1 0 .2-.1.3-.1.1-.1.1-.2.1-.3-.3-3.1-2.5-4.6-6.7-4.6zm-45.9 3.9h-.2l-2.7 1.6c-.1.1-.2.2-.2.3v3.1c0 .1.1.2.2.3l2.7 1.6c.1.1.2.1.3 0l2.7-1.6c.1-.1.2-.2.2-.3v-3.1c0-.1-.1-.2-.2-.3l-2.7-1.6h-.1z"/></g></svg>