<svg xmlns="http://www.w3.org/2000/svg" viewBox="0 0 640 480"><path d="M500.8 98.6c-32.7 0-70.9 26.4-70.9 59.7 0 4.1 5.4 5.8 7.7 2.2 0-.1 4.7-7.4 13.6-14.5 11.9-9.5 25.3-14.3 39.9-14.3 16.5 0 27.6 8.7 29.3 24.9H480c.8-5.1 3.1-10.4 6.7-15.3 2.2-3.1-.4-7.2-4.2-6.5-21.7 4.3-34.4 18.9-38.1 39.2-5 27.9 14 58.7 51.3 65.4 16.1 2.9 32.7 1 48.3-3.4 1.8-.6 3-2.1 3-4v-32.5c0-2.8-2.8-4.8-5.4-4-24.5 8-42.3 8.8-52.5 2.4-4.5-2.8-7.5-7-9.3-12.6h76.6c2.3 0 4.2-1.9 4.2-4.1v-15.1c-.1-37.4-27.3-67.5-59.8-67.5zm-26.2 78.2c-2.6 0-4.5 2.2-4.1 4.8 1.7 10.7 6.4 18.4 14.2 23.3 14.9 9.1 37.2 5 54 .1v23.7c-15.1 3.9-29.1 4.7-41.5 2.4-32.7-6-48.7-32.4-44.5-55.7 2.4-13.5 9.4-24.2 22-29.6-2.1 5-3.2 10.2-3.1 15 0 2.2 1.9 4.1 4.2 4.1H525c2.3 0 4.2-1.9 4.2-4.1 0-22.7-14.6-37.3-37.7-37.3-18.4 0-35.7 7-49.8 20.2 9.1-21 36-36.5 59.4-36.5 28.7 0 51.5 27.4 51.5 58.8v11h-77.9v-.2zm-72.8-32.5c-.6-.1-1.1.2-1.3.7l-1.7 3.8c-.7-4.9-1.9-13-3.4-18.2-2.4-8.1-7.5-13.3-7.8-13.5-.4-.4-1-.5-1.5-.2s-.7.8-.7 1.4l1.3 5.9c-3.2-3.3-8.4-8.1-13.4-10.5-1.2-.6-2.4-1.1-3.5-1.6C358.7 102.3 344.6 97 330 97c-20.6 0-39.5 10.3-50.6 27.8-1-.8-2.5-2.3-3.3-4.5-1.5-3.7-2.3-8-2.3-8-.1-.5-.4-.8-.8-.9-.5-.2-.9 0-1.2.3-9.2 8.8-8.3 22.6-7.9 25.6-1.1 1.2-4.4 4.8-7.6 10-4 6.5-5.3 17.7-5.3 18.2-.1.6.3 1 .7 1.3.5.2 1 .1 1.4-.3l2.7-2.9c-.3 1.1-.6 2.3-.8 3.7-1.2 5.9-.8 15.3-.8 15.7 0 .6.5 1 1 1.2.6.1 1.1-.2 1.4-.7l1.6-3.3c1.2 8.2 5.7 25.5 22.8 41.5 12.7 11.9 30.4 18.7 48.5 18.7 17.6 0 34.2-6.3 48-18.2 16.3-14.1 22.5-34.2 24.7-48.6 2.4-15.5 1-27.6.9-28-.4-.8-.7-1.2-1.3-1.3zm-33.1 4.5s1.6 2.1 2 7.6c.3 4.1-.6 10.6-1.2 14.1l-3.2-3.7c-.4-.4-.9-.5-1.4-.4-.4.2-.8.7-.7 1.2 0 .1 1.1 9.3-.7 17.4-.9 3.7-2.2 6.5-3.4 8.3l.4-6.1c0-.6-.4-1.1-.9-1.2-.5-.2-1.2.2-1.4.6-.1.1-5.6 12-20.7 16.7-2.1.6-4.4 1-6.6 1-8.1 0-15.4-4.1-19.6-7h1.1c6 0 10.5-2.6 14.2-4.6 1-.5 1.9-1.1 2.8-1.5 5.3-2.7 7.7-2.8 9.6-2.8 1 0 1.8-.6 2-1.5.6-2.3-2.1-6.4-5.6-8.3-1.7-.9-3.5-1.3-5.7-1.3-3.5 0-7.8 1.1-14.1 2.8-1.2.3-2.2.4-3.4.4-3.8 0-6.3-1.9-7.7-3.4-2-2-3-4.8-2.8-7.1.1-1.1.5-2.1 3-2.1 2.2 0 4.7.9 4.8 1 .2.1.3.1.4.1.6 0 1.2-.5 1.2-1.2v-.2l-.4-10.5c1.2-.8 4.1-2.7 6.9-4.6 6.8-4.9 7.7-6.8 6.9-8.2-1-2-3.5-2.2-6.4-2.6-1.7-.2-3.6-.4-5.3-1-3.6-1.2-5.9-4.3-6.4-5-.1-.6-.4-2.8.7-4.5 1.2-2 5.1-5.1 6.4-6.1.4-.3.6-.8.4-1.2-.1-.4-.5-.8-1.1-.9-.1 0-3.7-.4-9.5 1.6-4.7 1.6-8.5 4.2-9.7 5.2-.5-.1-1.5-.3-3-.4 9.1-10.3 22.1-16.2 35.9-16.2 10.1 0 19.7 3.1 27.8 8.9l-8.1 1.3c-.5.1-1 .5-1 1.1 0 .5.3 1.1.8 1.2.1 0 10.9 3.4 18.9 9.6 1.8 1.4 3.4 3.2 4.8 5.3 1.3 2.8 2.4 5.8 3.1 8.8l-2.7-2.1c-.4-.4-1.2-.4-1.6.1-.1.2-.1.8.2 1.4zM239.9 355.7c-2 .5-4.9 1.5-8.6 1.5-6.6 0-13-1.7-18.4-5.4-5.4-3.7-9.6-8.3-12.5-14.2l-31.3-54.9-2.2 3.7c-6.1 11-9.3 23.3-9.3 36.7 0 18.4 6.1 34.5 17.9 48.2 11.8 13.5 26.9 21.8 44.6 24.5l1.7.2 24.7-42.4-6.6 2.1zm-20.8 34.7c-15.7-2.7-29.1-10.3-39.9-22.5-11-12.7-16.7-27.7-16.7-44.8 0-11 2.2-21.3 6.6-30.4l26.4 47c3.2 6.4 7.8 11.8 14.2 15.9 6.4 3.9 13.5 6.1 21.1 6.1 2 0 3.7-.2 5.1-.5l-16.8 29.2z"/><path d="M198 314c1.7-7.3 5.9-13.5 12.2-18.4 5.9-4.7 12.7-6.9 20.8-6.9h65.1l-2.2-3.7c-6.1-10.5-14.7-18.9-26.4-25.7-11-6.6-23.3-9.8-36.5-9.8-11.3 0-22.3 2.4-32.1 7.3-10.5 5.1-19.6 12.5-26 21.1l-1 1.2 24.5 40.2 1.6-5.3zm-20.1-34.3c5.9-7.6 13.7-13.7 23.3-18.4 9.1-4.7 19.1-6.9 29.9-6.9 12.2 0 23.8 3.2 33.8 9.3 9.8 5.6 16.9 12.2 22.5 20.3h-56.6c-9.1 0-16.9 2.4-23.8 7.8-5.6 4.4-9.8 9.6-12.2 15.7l-16.9-27.8z"/><path d="M299.2 295.4l-.7-1.5h-48.7l4.2 4.2c7.3 7.3 11.3 16.2 11.3 25 0 7.1-2 13.7-6.1 19.6l-31.3 53.9h4.2c20.1-.2 37.2-7.6 51.4-21.8 14.2-14.2 21.3-31.6 21.3-51.7-.2-7.4-1.2-17.9-5.6-27.7zm-19.4 75.9c-12.2 12.2-26.7 18.9-43.6 20.1l26.7-46c4.7-6.9 6.9-14.2 6.9-22.3 0-8.6-2.9-16.9-8.8-24.2h34.3c3.7 8.6 4.4 17.9 4.4 24.2 0 18.6-6.7 34.8-19.9 48.2z"/><path d="M201.7 323.1c0 15.9 13.5 29.4 29.4 29.4s29.4-13.5 29.4-29.4c0-15.9-13.5-29.4-29.4-29.4s-29.4 13.5-29.4 29.4zm29.4-24.5c13.2 0 24.5 11.3 24.5 24.5s-11.3 24.5-24.5 24.5-24.5-11.3-24.5-24.5 11.3-24.5 24.5-24.5zm244.4-32.4c-13-13.2-30-20-50-20-20.2 0-37.2 6.8-50 20.3-12.8 13.2-19.2 31-19.2 52.5 0 19.5 6.6 37.1 19.4 51.5 13 14.9 29.8 22.2 49.7 22.2 19.9 0 36.9-7.3 50-22.2 13-14.7 19.7-32 19.7-51.8.1-21.5-6.6-39.1-19.6-52.5zm-3.7 101.1c-12.1 13.7-27.6 20.5-46.3 20.5-18.5 0-34-6.8-46-20.5s-18.2-30-18.2-48.4c0-20.3 6.2-36.9 18-49.3 11.8-12.2 27.6-18.6 46.3-18.6s34.2 6.4 46.5 18.8c12.1 12.2 18.2 28.8 18.2 49.1 0 18.3-6.2 34.7-18.5 48.4z"/><path d="M448.2 280.1c-1.7-5.9-4.7-10.5-8.4-13.7-3.9-3.4-8.9-5.1-14.5-5.1s-10.6 1.7-14.3 4.9c-3.7 3.2-6.4 7.8-8.1 13.7-1.5 5.6-2.7 11.5-3.2 17.1-.5 5.6-.7 12.5-.7 20.5 0 4.9 0 9.3.2 12.7.2 3.4.5 7.6 1 12.5.2 4.9 1.2 9.3 2.2 12.7 1.2 3.4 2.7 6.8 4.4 10.3 2 3.7 4.4 6.4 7.6 8.3 3.2 2 6.9 2.9 11.1 2.9 3.9 0 7.9-.7 10.6-2.9 3.2-2 5.9-4.6 7.9-8.3 1.7-3.4 3.2-6.8 4.4-10.3s2.2-7.6 2.7-12.7c.5-4.9 1-9 1-12.7.2-3.4.2-7.6.2-12.5 0-7.8-.2-14.7-.7-20.3-.5-5.6-1.7-11.5-3.4-17.1zm-.5 49.6c0 3.4-.5 7.8-1 12.5-.5 4.6-1.5 8.5-2.5 11.7-1.2 3.2-2.5 6.4-4.2 9.5-1.5 2.9-3.4 4.9-5.9 6.4-2.5 1.5-5.4 2.2-8.6 2.2-3.2 0-5.9-.7-8.4-2.2-2.5-1.5-4.4-3.4-5.9-6.4-1.7-2.9-3-6.1-3.9-9.3-1-3.2-1.7-7.1-2.2-11.7-.5-4.9-.7-9-1-12.5s-.2-7.6-.2-12.5c0-7.8.2-14.7.7-20 .7-5.4 1.7-10.7 3.2-16.1 1.5-5.1 3.7-9 6.6-11.5 2.7-2.4 6.4-3.7 11.1-3.7 4.4 0 8.1 1.2 11.6 3.4 3 2.7 5.4 6.6 6.9 11.5 1.5 5.4 2.7 10.7 3.2 16.4.5 5.6.7 12.2.7 19.8 0 4.9-.2 9-.2 12.5zM157.6 100c-3.5 0-7 .3-10.4.8 0-.1-.1-.2-.1-.3C149 99 150 97 149.5 95c-.5-2.6-3.3-4.3-6.8-4.3-.8 0-1.5.1-2.3.2-4.4.9-7.3 4.2-6.7 7.4.4 2 2.1 3.4 4.4 4v.4c-29.4 8.4-50.9 35.5-50.9 67.6 0 38.8 31.5 70.3 70.3 70.3s70.3-31.5 70.3-70.3c.1-38.8-31.4-70.3-70.2-70.3zm-21.5-2.2c-.4-1.9 1.8-4 4.9-4.6.6-.1 1.2-.2 1.8-.2 2.3 0 4.2 1 4.5 2.4.2 1.1-.4 2.3-1.7 3.2-1-.7-2.3-1-3.7-.8-1.3.3-2.4 1.1-3 2.2-1.5-.3-2.6-1.1-2.8-2.2zM195.3 208c-6.4 6.4-14.2 11-22.7 13.5l-6.2-10.1-1.6 11.7c-2.4.3-4.7.5-7.2.5-14.2 0-27.6-5.5-37.7-15.6-6.4-6.4-11-14.2-13.5-22.7l10.1-6.2-11.7-1.6c-.3-2.4-.5-4.7-.5-7.2 0-14.2 5.5-27.6 15.6-37.7 6.4-6.4 14.2-11 22.7-13.5l6.2 10.1 1.6-11.7c2.4-.3 4.7-.5 7.2-.5 14.2 0 27.6 5.5 37.7 15.6 6.4 6.4 11 14.2 13.5 22.7l-10.1 6.2 11.7 1.6c.3 2.4.5 4.7.5 7.2 0 14.3-5.5 27.6-15.6 37.7zm-1.2-74.1l-28.8 21.9c-2.1-1.1-4.5-1.8-6.9-1.9l-7.5-15.7-.4 17.4c-1.9 1-3.7 2.3-5.1 3.9l-9.2-3.3 6.8 7.1c-.9 2-1.4 4.1-1.5 6.3l-15.7 7.5 17.4.4c.1.1.1.2.2.3l-21.9 28.8 28.8-21.9c2.1 1.1 4.5 1.8 6.9 1.9l7.5 15.7.4-17.4c1.9-1 3.7-2.3 5.1-3.9l9.2 3.3-6.8-7.1c.9-2 1.4-4.1 1.5-6.3l15.7-7.5-17.4-.4c-.1-.1-.1-.2-.2-.3l21.9-28.8zm-36.5 21.8v.5-.5zm-2.9.9c1-.2 2-.3 2.9-.3.6 0 1.2 0 1.8.1 1.3.2 2.5.5 3.7 1l-10.5 8-8 10.5c-.3-.8-.6-1.7-.8-2.6-1.5-7.7 3.3-15.1 10.9-16.7zm10.3 25.7c-1.3.8-2.8 1.4-4.4 1.8-1 .2-2 .3-2.9.3-.6 0-1.2 0-1.8-.1-1.3-.2-2.5-.5-3.7-1l10.5-8 8-10.5c.3.8.6 1.7.8 2.6 1.1 6-1.6 11.9-6.5 14.9z"/></svg>