<svg xmlns="http://www.w3.org/2000/svg" width="1920" height="1080"><path d="M393-262l376 56 97 4z" fill="#bee5c5" stroke="#bee5c5" stroke-width="1.51"/><path d="M393-262l473 60 138-1z" fill="#b9e1c6" stroke="#b9e1c6" stroke-width="1.51"/><path d="M393-262l611 59 460-27z" fill="#abd9ca" stroke="#abd9ca" stroke-width="1.51"/><path d="M1328 1251l-334 74 521-84z" fill="#225997" stroke="#225997" stroke-width="1.51"/><path d="M1610 1237l-95 4 233 9z" fill="#203f8f" stroke="#203f8f" stroke-width="1.51"/><path d="M1515 1241l-521 84 754-75z" fill="#204e92" stroke="#204e92" stroke-width="1.51"/><path d="M1464-230l181 5 164-31z" fill="#9da3bb" stroke="#9da3bb" stroke-width="1.51"/><path d="M393-262l1071 32 345-26z" fill="#a4c9cb" stroke="#a4c9cb" stroke-width="1.51"/><path d="M393-262l1416 6 77-1z" fill="#a1bcc7" stroke="#a1bcc7" stroke-width="1.51"/><path d="M1896 420l32 166 133-223z" fill="#4773a0" stroke="#4773a0" stroke-width="1.51"/><path d="M2056 140l-13 90 18 133z" fill="#637993" stroke="#637993" stroke-width="1.51"/><path d="M1924 1237l-176 13 334 15z" fill="#1c2c80" stroke="#1c2c80" stroke-width="1.51"/><path d="M1748 1250l-754 75 1088-60z" fill="#1d3e8a" stroke="#1d3e8a" stroke-width="1.51"/><path d="M1957 999l78 22 47-178z" fill="#1d428d" stroke="#1d428d" stroke-width="1.51"/><path d="M2035 1021l42 124 5-302z" fill="#1c3b86" stroke="#1c3b86" stroke-width="1.51"/><path d="M2061 363l-133 223 164 2z" fill="#3a6d9a" stroke="#3a6d9a" stroke-width="1.51"/><path d="M2082 843l-5 302 40-493z" fill="#1c488a" stroke="#1c488a" stroke-width="1.51"/><path d="M2077 1145l5 120 35-613z" fill="#1a3882" stroke="#1a3882" stroke-width="1.51"/><path d="M1964 646l118 197 35-191z" fill="#245c96" stroke="#245c96" stroke-width="1.51"/><path d="M2061 363l31 225 25 64z" fill="#326994" stroke="#326994" stroke-width="1.51"/><path d="M2056 140l5 223 56 289z" fill="#4a7093" stroke="#4a7093" stroke-width="1.51"/><path d="M1886-257l166 199 66-186z" fill="#908a9f" stroke="#908a9f" stroke-width="1.51"/><path d="M2056 140l61 512 1-896z" fill="#6b7b8e" stroke="#6b7b8e" stroke-width="1.51"/><path d="M2052-58l4 198 62-384z" fill="#86848f" stroke="#86848f" stroke-width="1.51"/><path d="M2092 588l-128 58 153 6z" fill="#2c6396" stroke="#2c6396" stroke-width="1.51"/><path d="M1886-257l23 206 143-7z" fill="#938ca0" stroke="#938ca0" stroke-width="1.51"/><path d="M2052-58l-143 7 147 191z" fill="#858696" stroke="#858696" stroke-width="1.51"/><path d="M1909-51l4 192 143-1z" fill="#82869c" stroke="#82869c" stroke-width="1.51"/><path d="M2043 230l-84 20 102 113z" fill="#5e7997" stroke="#5e7997" stroke-width="1.51"/><path d="M2077 1145l-153 92 158 28z" fill="#192a7a" stroke="#192a7a" stroke-width="1.51"/><path d="M1964 646l-67 224 185-27z" fill="#24589b" stroke="#24589b" stroke-width="1.51"/><path d="M1897 870l60 129 125-156z" fill="#224a95" stroke="#224a95" stroke-width="1.51"/><path d="M1928 586l36 60 128-58z" fill="#32679d" stroke="#32679d" stroke-width="1.51"/><path d="M2035 1021l-149 99 191 25z" fill="#1f3588" stroke="#1f3588" stroke-width="1.51"/><path d="M1886 1120l38 117 153-92z" fill="#202f88" stroke="#202f88" stroke-width="1.51"/><path d="M1957 999l-71 121 149-99z" fill="#213b8f" stroke="#213b8f" stroke-width="1.51"/><path d="M1959 250l84-20 13-90z" fill="#6c7d96" stroke="#6c7d96" stroke-width="1.51"/><path d="M1913 141l46 109 97-110z" fill="#74819b" stroke="#74819b" stroke-width="1.51"/><path d="M1959 250l-63 170 165-57z" fill="#55789d" stroke="#55789d" stroke-width="1.51"/><path d="M1909-51l-136 37 140 155z" fill="#8d8ca6" stroke="#8d8ca6" stroke-width="1.51"/><path d="M1773-14l-21 61 161 94z" fill="#8a8fa8" stroke="#8a8fa8" stroke-width="1.51"/><path d="M1913 141l-88 147 134-38z" fill="#7082a4" stroke="#7082a4" stroke-width="1.51"/><path d="M1825 288l71 132 63-170z" fill="#5f7da5" stroke="#5f7da5" stroke-width="1.51"/><path d="M1928 586l-184 78 220-18z" fill="#366ba9" stroke="#366ba9" stroke-width="1.51"/><path d="M1744 664l153 206 67-224z" fill="#2d63a9" stroke="#2d63a9" stroke-width="1.51"/><path d="M1886-257l-77 1 100 205z" fill="#9a91af" stroke="#9a91af" stroke-width="1.51"/><path d="M1896 420l-66 1 98 165z" fill="#4876a9" stroke="#4876a9" stroke-width="1.51"/><path d="M1897 870l-158 171 218-42z" fill="#26479d" stroke="#26479d" stroke-width="1.51"/><path d="M1779 1102l107 18 71-121z" fill="#253d96" stroke="#253d96" stroke-width="1.51"/><path d="M1739 1041l40 61 178-103z" fill="#26429b" stroke="#26429b" stroke-width="1.51"/><path d="M1004-203l172 24 288-51z" fill="#a2c8c6" stroke="#a2c8c6" stroke-width="1.51"/><path d="M1825 288l5 133 66-1z" fill="#587caa" stroke="#587caa" stroke-width="1.51"/><path d="M1744 664l-8 188 161 18z" fill="#2a61aa" stroke="#2a61aa" stroke-width="1.51"/><path d="M1809-256l-36 242 136-37z" fill="#9892a9" stroke="#9892a9" stroke-width="1.51"/><path d="M1886 1120l-138 130 176-13z" fill="#22328d" stroke="#22328d" stroke-width="1.51"/><path d="M1830 421l-78 132 176 33z" fill="#4276ad" stroke="#4276ad" stroke-width="1.51"/><path d="M1752 553l-8 111 184-78z" fill="#3972ad" stroke="#3972ad" stroke-width="1.51"/><path d="M1736 852l3 189 158-171z" fill="#2752a3" stroke="#2752a3" stroke-width="1.51"/><path d="M1779 1102l-31 148 138-130z" fill="#263896" stroke="#263896" stroke-width="1.51"/><path d="M1752 47l73 241 88-147z" fill="#7e8aa8" stroke="#7e8aa8" stroke-width="1.51"/><path d="M1659-89l114 75 36-242z" fill="#9999ad" stroke="#9999ad" stroke-width="1.51"/><path d="M1681 1192l67 58 31-148z" fill="#243c94" stroke="#243c94" stroke-width="1.51"/><path d="M1645-225l14 136 150-167z" fill="#9b9eb5" stroke="#9b9eb5" stroke-width="1.51"/><path d="M1752 47l-101 28 174 213z" fill="#8292aa" stroke="#8292aa" stroke-width="1.51"/><path d="M1651 75l-62 174 236 39z" fill="#7692ad" stroke="#7692ad" stroke-width="1.51"/><path d="M1676 514l76 39 78-132z" fill="#457daf" stroke="#457daf" stroke-width="1.51"/><path d="M1640 415l36 99 154-93z" fill="#4c82b0" stroke="#4c82b0" stroke-width="1.51"/><path d="M1825 288l-185 127 190 6z" fill="#5783ad" stroke="#5783ad" stroke-width="1.51"/><path d="M1589 249l51 166 185-127z" fill="#608cae" stroke="#608cae" stroke-width="1.51"/><path d="M909 1307l-488 27 573-9z" fill="#456e91" stroke="#456e91" stroke-width="1.51"/><path d="M1736 852l-95 160 98 29z" fill="#2553a2" stroke="#2553a2" stroke-width="1.51"/><path d="M1631 880l10 132 95-160z" fill="#255ba7" stroke="#255ba7" stroke-width="1.51"/><path d="M1619 654l117 198 8-188z" fill="#2b70b0" stroke="#2b70b0" stroke-width="1.51"/><path d="M1739 1041l-58 151 98-90z" fill="#26429b" stroke="#26429b" stroke-width="1.51"/><path d="M1619 654l12 226 105-28z" fill="#276aae" stroke="#276aae" stroke-width="1.51"/><path d="M1659-89l93 136 21-61z" fill="#9298ab" stroke="#9298ab" stroke-width="1.51"/><path d="M1641 1012l40 180 58-151z" fill="#26489d" stroke="#26489d" stroke-width="1.51"/><path d="M1619 654l125 10 8-111z" fill="#3578b0" stroke="#3578b0" stroke-width="1.51"/><path d="M1676 514l-57 140 133-101z" fill="#397db2" stroke="#397db2" stroke-width="1.51"/><path d="M1659-89l-8 164 101-28z" fill="#909aac" stroke="#909aac" stroke-width="1.51"/><path d="M1681 1192l-71 45 138 13z" fill="#223c90" stroke="#223c90" stroke-width="1.51"/><path d="M1181 1249l-187 76 334-74z" fill="#296098" stroke="#296098" stroke-width="1.51"/><path d="M1619 654l-89 199 101 27z" fill="#256fb0" stroke="#256fb0" stroke-width="1.51"/><path d="M1515 193l74 56 62-174z" fill="#7c9cb0" stroke="#7c9cb0" stroke-width="1.51"/><path d="M1466-82l185 157 8-164z" fill="#94a3af" stroke="#94a3af" stroke-width="1.51"/><path d="M1455 596l164 58 57-140z" fill="#3483b5" stroke="#3483b5" stroke-width="1.51"/><path d="M1641 1012l-107 127 147 53z" fill="#264a9e" stroke="#264a9e" stroke-width="1.51"/><path d="M1534 1139l76 98 71-45z" fill="#244498" stroke="#244498" stroke-width="1.51"/><path d="M1498 672l32 181 89-199z" fill="#257ab5" stroke="#257ab5" stroke-width="1.51"/><path d="M1486 440l-31 156 221-82z" fill="#3c8db7" stroke="#3c8db7" stroke-width="1.51"/><path d="M1640 415l-154 25 190 74z" fill="#498ab3" stroke="#498ab3" stroke-width="1.51"/><path d="M1589 249l-103 191 154-25z" fill="#5691b3" stroke="#5691b3" stroke-width="1.51"/><path d="M1631 880l-129 87 139 45z" fill="#235ca7" stroke="#235ca7" stroke-width="1.51"/><path d="M1464-230l2 148 179-143z" fill="#9cacba" stroke="#9cacba" stroke-width="1.51"/><path d="M1485 116l30 77 136-118z" fill="#84a1b1" stroke="#84a1b1" stroke-width="1.51"/><path d="M1466-82l19 198 166-41z" fill="#8da6b1" stroke="#8da6b1" stroke-width="1.51"/><path d="M1645-225L1466-82l193-7z" fill="#9aa6b3" stroke="#9aa6b3" stroke-width="1.51"/><path d="M1502 967l32 172 107-127z" fill="#2555a4" stroke="#2555a4" stroke-width="1.51"/><path d="M1455 596l43 76 121-18z" fill="#2f84b7" stroke="#2f84b7" stroke-width="1.51"/><path d="M1530 853l-28 114 129-87z" fill="#2365ab" stroke="#2365ab" stroke-width="1.51"/><path d="M1534 1139l-19 102 95-4z" fill="#224797" stroke="#224797" stroke-width="1.51"/><path d="M1387 398l99 42 29-247z" fill="#5a9cb6" stroke="#5a9cb6" stroke-width="1.51"/><path d="M1515 193l-29 247 103-191z" fill="#6398b3" stroke="#6398b3" stroke-width="1.51"/><path d="M1176-179l208 4 80-55z" fill="#9fbdc2" stroke="#9fbdc2" stroke-width="1.51"/><path d="M1352 645l-20 244 166-217z" fill="#2286bb" stroke="#2286bb" stroke-width="1.51"/><path d="M1284 226l103 172 128-205z" fill="#69a6b8" stroke="#69a6b8" stroke-width="1.51"/><path d="M1332 889l170 78 28-114z" fill="#236daf" stroke="#236daf" stroke-width="1.51"/><path d="M1498 672l-166 217 198-36z" fill="#2379b5" stroke="#2379b5" stroke-width="1.51"/><path d="M1362 1017l-68 145 240-23z" fill="#295ca7" stroke="#295ca7" stroke-width="1.51"/><path d="M1328 1251l187-10 19-102z" fill="#244e9a" stroke="#244e9a" stroke-width="1.51"/><path d="M1294 1162l34 89 206-112z" fill="#2856a1" stroke="#2856a1" stroke-width="1.51"/><path d="M1502 967l-140 50 172 122z" fill="#265da8" stroke="#265da8" stroke-width="1.51"/><path d="M1464-230l-80 55 82 93z" fill="#9db3bb" stroke="#9db3bb" stroke-width="1.51"/><path d="M1466-82l-167 212 186-14z" fill="#8db0b5" stroke="#8db0b5" stroke-width="1.51"/><path d="M1362 543l93 53 31-156z" fill="#3994bb" stroke="#3994bb" stroke-width="1.51"/><path d="M1485 116l-186 14 216 63z" fill="#82aab5" stroke="#82aab5" stroke-width="1.51"/><path d="M1299 130l-15 96 231-33z" fill="#7baeb8" stroke="#7baeb8" stroke-width="1.51"/><path d="M1350-112l-51 242 167-212z" fill="#96b7b7" stroke="#96b7b7" stroke-width="1.51"/><path d="M1332 889l30 128 140-50z" fill="#236baf" stroke="#236baf" stroke-width="1.51"/><path d="M1455 596l-103 49 146 27z" fill="#2e8bba" stroke="#2e8bba" stroke-width="1.51"/><path d="M1387 398l-25 145 124-103z" fill="#469abb" stroke="#469abb" stroke-width="1.51"/><path d="M1384-175l-34 63 116 30z" fill="#9cb7ba" stroke="#9cb7ba" stroke-width="1.51"/><path d="M1222 736l110 153 20-244z" fill="#1f8cbe" stroke="#1f8cbe" stroke-width="1.51"/><path d="M1362 543l-10 102 103-49z" fill="#3193bd" stroke="#3193bd" stroke-width="1.51"/><path d="M1193-46l106 176 51-242z" fill="#95beba" stroke="#95beba" stroke-width="1.51"/><path d="M1284 226l-97 57 200 115z" fill="#62aebd" stroke="#62aebd" stroke-width="1.51"/><path d="M1187 283l32 156 168-41z" fill="#54acbf" stroke="#54acbf" stroke-width="1.51"/><path d="M1219 439l143 104 25-145z" fill="#46a2be" stroke="#46a2be" stroke-width="1.51"/><path d="M1216 1094l78 68 68-145z" fill="#2a67ad" stroke="#2a67ad" stroke-width="1.51"/><path d="M1176-179l174 67 34-63z" fill="#9fc0c0" stroke="#9fc0c0" stroke-width="1.51"/><path d="M1332 889l-142 100 172 28z" fill="#2473b2" stroke="#2473b2" stroke-width="1.51"/><path d="M1190 989l26 105 146-77z" fill="#276fb0" stroke="#276fb0" stroke-width="1.51"/><path d="M1143 484l209 161 10-102z" fill="#32a0c1" stroke="#32a0c1" stroke-width="1.51"/><path d="M1219 439l-76 45 219 59z" fill="#3fa7c1" stroke="#3fa7c1" stroke-width="1.51"/><path d="M1143 484l79 252 130-91z" fill="#2d9dc2" stroke="#2d9dc2" stroke-width="1.51"/><path d="M1176-179l17 133 157-66z" fill="#9ec4be" stroke="#9ec4be" stroke-width="1.51"/><path d="M1143 484l-66 78 145 174z" fill="#34a5c3" stroke="#34a5c3" stroke-width="1.51"/><path d="M1222 736l-89 87 199 66z" fill="#238abc" stroke="#238abc" stroke-width="1.51"/><path d="M1133 823l57 166 142-100z" fill="#2680b8" stroke="#2680b8" stroke-width="1.51"/><path d="M1193-46l-30 188 136-12z" fill="#8ec0bb" stroke="#8ec0bb" stroke-width="1.51"/><path d="M1294 1162l-113 87 147 2z" fill="#275ea0" stroke="#275ea0" stroke-width="1.51"/><path d="M1163 142l121 84 15-96z" fill="#80babc" stroke="#80babc" stroke-width="1.51"/><path d="M1216 1094l-35 155 113-87z" fill="#2d64a9" stroke="#2d64a9" stroke-width="1.51"/><path d="M1163 142l24 141 97-57z" fill="#77b9bd" stroke="#77b9bd" stroke-width="1.51"/><path d="M6 1305l-183 36 598-7z" fill="#85848c" stroke="#85848c" stroke-width="1.51"/><path d="M614 1266l-193 68 488-27z" fill="#537493" stroke="#537493" stroke-width="1.51"/><path d="M1133 823l-79 127 136 39z" fill="#2d83b7" stroke="#2d83b7" stroke-width="1.51"/><path d="M1004 74l159 68 30-188z" fill="#93c7bc" stroke="#93c7bc" stroke-width="1.51"/><path d="M1045 1138l136 111 35-155z" fill="#3469ab" stroke="#3469ab" stroke-width="1.51"/><path d="M1187 283l-133 52 165 104z" fill="#5cb4bf" stroke="#5cb4bf" stroke-width="1.51"/><path d="M1054 335l89 149 76-45z" fill="#51b1c1" stroke="#51b1c1" stroke-width="1.51"/><path d="M1013 676l120 147 89-87z" fill="#2899c1" stroke="#2899c1" stroke-width="1.51"/><path d="M1077 562l-64 114 209 60z" fill="#32a2c2" stroke="#32a2c2" stroke-width="1.51"/><path d="M1190 989l-145 149 171-44z" fill="#3171af" stroke="#3171af" stroke-width="1.51"/><path d="M1068 285l-14 50 133-52z" fill="#68babe" stroke="#68babe" stroke-width="1.51"/><path d="M1163 142l-95 143 119-2z" fill="#75bcbe" stroke="#75bcbe" stroke-width="1.51"/><path d="M1054 950l-9 188 145-149z" fill="#3379b2" stroke="#3379b2" stroke-width="1.51"/><path d="M989-56l15 130 189-120z" fill="#9bcdbc" stroke="#9bcdbc" stroke-width="1.51"/><path d="M1176-179L989-56l204 10z" fill="#a1ccbc" stroke="#a1ccbc" stroke-width="1.51"/><path d="M1004-203L989-56l187-123z" fill="#a5d1c2" stroke="#a5d1c2" stroke-width="1.51"/><path d="M279 1305H6l415 29z" fill="#7d818e" stroke="#7d818e" stroke-width="1.51"/><path d="M1045 1138l-51 187 187-76z" fill="#32689f" stroke="#32689f" stroke-width="1.51"/><path d="M1004 74l64 211 95-143z" fill="#85c5bd" stroke="#85c5bd" stroke-width="1.51"/><path d="M1016 839l38 111 79-127z" fill="#308dbb" stroke="#308dbb" stroke-width="1.51"/><path d="M1013 676l3 163 117-16z" fill="#2f99c0" stroke="#2f99c0" stroke-width="1.51"/><path d="M1054 335l23 227 66-78z" fill="#4bb2c2" stroke="#4bb2c2" stroke-width="1.51"/><path d="M1004 74l-78 163 142 48z" fill="#81c8be" stroke="#81c8be" stroke-width="1.51"/><path d="M1054 335L901 484l176 78z" fill="#4eb7c2" stroke="#4eb7c2" stroke-width="1.51"/><path d="M880 1194l114 131 51-187z" fill="#396ea3" stroke="#396ea3" stroke-width="1.51"/><path d="M900 960l145 178 9-188z" fill="#3880b3" stroke="#3880b3" stroke-width="1.51"/><path d="M872 440l29 44 153-149z" fill="#59bdc1" stroke="#59bdc1" stroke-width="1.51"/><path d="M901 484l112 192 64-114z" fill="#3eb0c3" stroke="#3eb0c3" stroke-width="1.51"/><path d="M926 237l128 98 14-50z" fill="#6ec1bf" stroke="#6ec1bf" stroke-width="1.51"/><path d="M880 1194l29 113 85 18z" fill="#396c9a" stroke="#396c9a" stroke-width="1.51"/><path d="M901 484l-52 158 164 34z" fill="#43b2c3" stroke="#43b2c3" stroke-width="1.51"/><path d="M1013 676L907 848l109-9z" fill="#339dc0" stroke="#339dc0" stroke-width="1.51"/><path d="M900 960l-20 234 165-56z" fill="#3f7baf" stroke="#3f7baf" stroke-width="1.51"/><path d="M1016 839L900 960l154-10z" fill="#358cb8" stroke="#358cb8" stroke-width="1.51"/><path d="M926 237l-54 203 182-105z" fill="#65c2c0" stroke="#65c2c0" stroke-width="1.51"/><path d="M868 135l58 102 78-163z" fill="#8ecfbd" stroke="#8ecfbd" stroke-width="1.51"/><path d="M905-96l84 40 15-147z" fill="#a7d7bf" stroke="#a7d7bf" stroke-width="1.51"/><path d="M907 848l-7 112 116-121z" fill="#3992ba" stroke="#3992ba" stroke-width="1.51"/><path d="M989-56l-84-40 99 170z" fill="#a0d4bc" stroke="#a0d4bc" stroke-width="1.51"/><path d="M905-96l-37 231 136-61z" fill="#9cd4bc" stroke="#9cd4bc" stroke-width="1.51"/><path d="M849 642l58 206 106-172z" fill="#3ba7c2" stroke="#3ba7c2" stroke-width="1.51"/><path d="M866-202l39 106 99-107z" fill="#abdac3" stroke="#abdac3" stroke-width="1.51"/><path d="M849 642l-62 68 120 138z" fill="#45a9c1" stroke="#45a9c1" stroke-width="1.51"/><path d="M775-49l93 184 37-231z" fill="#a5d8ba" stroke="#a5d8ba" stroke-width="1.51"/><path d="M697 1182l183 12 20-234z" fill="#4d7dad" stroke="#4d7dad" stroke-width="1.51"/><path d="M702 935l-5 247 203-222z" fill="#5288b0" stroke="#5288b0" stroke-width="1.51"/><path d="M759 580l90 62 52-158z" fill="#50b8c2" stroke="#50b8c2" stroke-width="1.51"/><path d="M787 710l-15 74 135 64z" fill="#48a3be" stroke="#48a3be" stroke-width="1.51"/><path d="M779 1239l-165 27 295 41z" fill="#4b7299" stroke="#4b7299" stroke-width="1.51"/><path d="M868 135l-129 84 187 18z" fill="#8bcfbc" stroke="#8bcfbc" stroke-width="1.51"/><path d="M708 371l164 69 54-203z" fill="#6ec5be" stroke="#6ec5be" stroke-width="1.51"/><path d="M739 219l-31 152 218-134z" fill="#80ccbc" stroke="#80ccbc" stroke-width="1.51"/><path d="M775-49L711 55l157 80z" fill="#a5d9b9" stroke="#a5d9b9" stroke-width="1.51"/><path d="M866-202L775-49l130-47z" fill="#afdbbd" stroke="#afdbbd" stroke-width="1.51"/><path d="M702 935l198 25 7-112z" fill="#4892b6" stroke="#4892b6" stroke-width="1.51"/><path d="M772 784l-70 151 205-87z" fill="#4d9cb9" stroke="#4d9cb9" stroke-width="1.51"/><path d="M880 1194l-101 45 130 68z" fill="#44719e" stroke="#44719e" stroke-width="1.51"/><path d="M769-206l6 157 91-153z" fill="#b3dec0" stroke="#b3dec0" stroke-width="1.51"/><path d="M872 440L759 580l142-96z" fill="#57bcc2" stroke="#57bcc2" stroke-width="1.51"/><path d="M697 1182l82 57 101-45z" fill="#4e76a3" stroke="#4e76a3" stroke-width="1.51"/><path d="M393-262l164 103 212-47z" fill="#c9e9c2" stroke="#c9e9c2" stroke-width="1.51"/><path d="M708 371l51 209 113-140z" fill="#63c1c0" stroke="#63c1c0" stroke-width="1.51"/><path d="M711 55l28 164 129-84z" fill="#9cd6b9" stroke="#9cd6b9" stroke-width="1.51"/><path d="M759 580l28 130 62-68z" fill="#51b2c1" stroke="#51b2c1" stroke-width="1.51"/><path d="M708 371L548 521l211 59z" fill="#6ac3bf" stroke="#6ac3bf" stroke-width="1.51"/><path d="M557-159l8 76 204-123z" fill="#c0e5bd" stroke="#c0e5bd" stroke-width="1.51"/><path d="M617 791l85 144 70-151z" fill="#57a1ba" stroke="#57a1ba" stroke-width="1.51"/><path d="M769-206L565-83l210 34z" fill="#b8e1ba" stroke="#b8e1ba" stroke-width="1.51"/><path d="M759 580l-138 82 166 48z" fill="#59b5c0" stroke="#59b5c0" stroke-width="1.51"/><path d="M617 791l155-7 15-74z" fill="#54aabe" stroke="#54aabe" stroke-width="1.51"/><path d="M621 662l-4 129 170-81z" fill="#5bb0be" stroke="#5bb0be" stroke-width="1.51"/><path d="M626 1190l71-8 5-247z" fill="#5c83ab" stroke="#5c83ab" stroke-width="1.51"/><path d="M697 1182l-83 84 165-27z" fill="#54779e" stroke="#54779e" stroke-width="1.51"/><path d="M547 963l79 227 76-255z" fill="#618daf" stroke="#618daf" stroke-width="1.51"/><path d="M565-83L711 55l64-104z" fill="#b3dfb7" stroke="#b3dfb7" stroke-width="1.51"/><path d="M571 341l137 30 31-152z" fill="#83cebb" stroke="#83cebb" stroke-width="1.51"/><path d="M711 55l-167 59 195 105z" fill="#a4dbb8" stroke="#a4dbb8" stroke-width="1.51"/><path d="M548 521l73 141 138-82z" fill="#65bebf" stroke="#65bebf" stroke-width="1.51"/><path d="M539 194l32 147 168-122z" fill="#95d4b9" stroke="#95d4b9" stroke-width="1.51"/><path d="M544 114l-5 80 200 25z" fill="#a3dab8" stroke="#a3dab8" stroke-width="1.51"/><path d="M626 1190l-12 76 83-84z" fill="#5b7aa1" stroke="#5b7aa1" stroke-width="1.51"/><path d="M617 791l-70 172 155-28z" fill="#619db5" stroke="#619db5" stroke-width="1.51"/><path d="M571 341l-23 180 160-150z" fill="#7dcbbc" stroke="#7dcbbc" stroke-width="1.51"/><path d="M565-83l-21 197 167-59z" fill="#b5e1b7" stroke="#b5e1b7" stroke-width="1.51"/><path d="M462-50l82 164 21-197z" fill="#c2e6b5" stroke="#c2e6b5" stroke-width="1.51"/><path d="M453 387l95 134 23-180z" fill="#88cfbc" stroke="#88cfbc" stroke-width="1.51"/><path d="M399 703l78 143 140-55z" fill="#74b1ba" stroke="#74b1ba" stroke-width="1.51"/><path d="M477 846l70 117 70-172z" fill="#6ca3b7" stroke="#6ca3b7" stroke-width="1.51"/><path d="M399 703l218 88 4-129z" fill="#6fb6be" stroke="#6fb6be" stroke-width="1.51"/><path d="M547 963l-90 57 169 170z" fill="#6d8dad" stroke="#6d8dad" stroke-width="1.51"/><path d="M436 1193l178 73 12-76z" fill="#667d9f" stroke="#667d9f" stroke-width="1.51"/><path d="M457 1020l-21 173 190-3z" fill="#7286a9" stroke="#7286a9" stroke-width="1.51"/><path d="M548 521l-103 13 176 128z" fill="#76c4be" stroke="#76c4be" stroke-width="1.51"/><path d="M445 534l-46 169 222-41z" fill="#7ac0bd" stroke="#7ac0bd" stroke-width="1.51"/><path d="M436 1193l-15 141 193-68z" fill="#6b7d97" stroke="#6b7d97" stroke-width="1.51"/><path d="M1-238l80 26 312-50z" fill="#eef8c1" stroke="#eef8c1" stroke-width="1.51"/><path d="M453 387l-8 147 103-13z" fill="#86cdbd" stroke="#86cdbd" stroke-width="1.51"/><path d="M557-159L462-50l103-33z" fill="#c9e9b7" stroke="#c9e9b7" stroke-width="1.51"/><path d="M539 194l-135 50 167 97z" fill="#a1d9b9" stroke="#a1d9b9" stroke-width="1.51"/><path d="M404 244l49 143 118-46z" fill="#99d6b9" stroke="#99d6b9" stroke-width="1.51"/><path d="M462-50l-55 187 137-23z" fill="#c0e6b5" stroke="#c0e6b5" stroke-width="1.51"/><path d="M393-262l69 212 95-109z" fill="#d2edbc" stroke="#d2edbc" stroke-width="1.51"/><path d="M81-212l169 9 143-59z" fill="#e8f6c0" stroke="#e8f6c0" stroke-width="1.51"/><path d="M407 137l132 57 5-80z" fill="#b4e1b6" stroke="#b4e1b6" stroke-width="1.51"/><path d="M477 846l-20 174 90-57z" fill="#739bb1" stroke="#739bb1" stroke-width="1.51"/><path d="M407 137l-3 107 135-50z" fill="#b3e0b6" stroke="#b3e0b6" stroke-width="1.51"/><path d="M328 519l117 15 8-147z" fill="#90d0bb" stroke="#90d0bb" stroke-width="1.51"/><path d="M298 435l30 84 125-132z" fill="#99d4ba" stroke="#99d4ba" stroke-width="1.51"/><path d="M334 796l-96 177 219 47z" fill="#85a4b2" stroke="#85a4b2" stroke-width="1.51"/><path d="M244 1189l192 4 21-173z" fill="#818ba8" stroke="#818ba8" stroke-width="1.51"/><path d="M393-262L296-70l166 20z" fill="#daf1b8" stroke="#daf1b8" stroke-width="1.51"/><path d="M274 70l133 67 55-187z" fill="#ccebb4" stroke="#ccebb4" stroke-width="1.51"/><path d="M296-70L274 70 462-50z" fill="#d6efb3" stroke="#d6efb3" stroke-width="1.51"/><path d="M334 796l123 224 20-174z" fill="#7da6b5" stroke="#7da6b5" stroke-width="1.51"/><path d="M399 703l-65 93 143 50z" fill="#80b5ba" stroke="#80b5ba" stroke-width="1.51"/><path d="M328 519l71 184 46-169z" fill="#89cabd" stroke="#89cabd" stroke-width="1.51"/><path d="M404 244l-97 44 146 99z" fill="#a7dbb8" stroke="#a7dbb8" stroke-width="1.51"/><path d="M238 973l6 216 213-169z" fill="#8795ac" stroke="#8795ac" stroke-width="1.51"/><path d="M250-203l46 133 97-192z" fill="#e2f3bc" stroke="#e2f3bc" stroke-width="1.51"/><path d="M279 1305l142 29 15-141z" fill="#768194" stroke="#768194" stroke-width="1.51"/><path d="M307 288l-9 147 155-48z" fill="#a2d9b9" stroke="#a2d9b9" stroke-width="1.51"/><path d="M244 1189l35 116 157-112z" fill="#7f859c" stroke="#7f859c" stroke-width="1.51"/><path d="M94 1274l-88 31h273z" fill="#868591" stroke="#868591" stroke-width="1.51"/><path d="M328 519l-80 184h151z" fill="#8ec7bc" stroke="#8ec7bc" stroke-width="1.51"/><path d="M307 288l97-44 3-107z" fill="#b6e2b6" stroke="#b6e2b6" stroke-width="1.51"/><path d="M274 70l33 218 100-151z" fill="#c3e7b5" stroke="#c3e7b5" stroke-width="1.51"/><path d="M248 703l86 93 65-93z" fill="#89bebb" stroke="#89bebb" stroke-width="1.51"/><path d="M238 973l-55 181 61 35z" fill="#8d92a9" stroke="#8d92a9" stroke-width="1.51"/><path d="M274 70L158 188l149 100z" fill="#c6e8b5" stroke="#c6e8b5" stroke-width="1.51"/><path d="M182 689l66 14 80-184z" fill="#94c8bc" stroke="#94c8bc" stroke-width="1.51"/><path d="M135 497l47 192 146-170z" fill="#99d0bc" stroke="#99d0bc" stroke-width="1.51"/><path d="M248 703L134 858l200-62z" fill="#8fb9b9" stroke="#8fb9b9" stroke-width="1.51"/><path d="M134 858l104 115 96-177z" fill="#8eadb4" stroke="#8eadb4" stroke-width="1.51"/><path d="M142 443l156-8 9-147z" fill="#a7dbb8" stroke="#a7dbb8" stroke-width="1.51"/><path d="M298 435l-163 62 193 22z" fill="#9ed5bb" stroke="#9ed5bb" stroke-width="1.51"/><path d="M134 858l56 109 48 6z" fill="#90a7b0" stroke="#90a7b0" stroke-width="1.51"/><path d="M121-85L274 70l22-140z" fill="#def1b3" stroke="#def1b3" stroke-width="1.51"/><path d="M250-203L121-85l175 15z" fill="#e5f5b6" stroke="#e5f5b6" stroke-width="1.51"/><path d="M142 443l-7 54 163-62z" fill="#a5d8ba" stroke="#a5d8ba" stroke-width="1.51"/><path d="M158 188l-16 255 165-155z" fill="#b5e1b6" stroke="#b5e1b6" stroke-width="1.51"/><path d="M190 967l-7 187 55-181z" fill="#8e9bac" stroke="#8e9bac" stroke-width="1.51"/><path d="M182 689l-48 169 114-155z" fill="#94bfbb" stroke="#94bfbb" stroke-width="1.51"/><path d="M244 1189l-150 85 185 31z" fill="#848697" stroke="#848697" stroke-width="1.51"/><path d="M80 143l78 45L274 70z" fill="#d2edb3" stroke="#d2edb3" stroke-width="1.51"/><path d="M121-85L80 143l194-73z" fill="#dcf1b3" stroke="#dcf1b3" stroke-width="1.51"/><path d="M4 268l138 175 16-255z" fill="#bce4b6" stroke="#bce4b6" stroke-width="1.51"/><path d="M183 1154l-89 120 150-85z" fill="#8b8a9f" stroke="#8b8a9f" stroke-width="1.51"/><path d="M81-212l40 127 129-118z" fill="#ecf7ba" stroke="#ecf7ba" stroke-width="1.51"/><path d="M-9 86l89 57 41-228z" fill="#e2f4b2" stroke="#e2f4b2" stroke-width="1.51"/><path d="M1 831l133 27 48-169z" fill="#99bbb8" stroke="#99bbb8" stroke-width="1.51"/><path d="M135 497L9 517l173 172z" fill="#a1d3bc" stroke="#a1d3bc" stroke-width="1.51"/><path d="M9 517l-77 173 250-1z" fill="#a2cebc" stroke="#a2cebc" stroke-width="1.51"/><path d="M-45 953l-6 208 234-7z" fill="#9898ab" stroke="#9898ab" stroke-width="1.51"/><path d="M-45 953l228 201 7-187z" fill="#959eac" stroke="#959eac" stroke-width="1.51"/><path d="M134 858l-179 95 235 14z" fill="#97a9b1" stroke="#97a9b1" stroke-width="1.51"/><path d="M-68 690L1 831l181-142z" fill="#9dc4bc" stroke="#9dc4bc" stroke-width="1.51"/><path d="M-51 1161l145 113 89-120z" fill="#928da0" stroke="#928da0" stroke-width="1.51"/><path d="M-32-46L-9 86 121-85z" fill="#e8f6b3" stroke="#e8f6b3" stroke-width="1.51"/><path d="M4 268l-15 176 153-1z" fill="#b5dfb9" stroke="#b5dfb9" stroke-width="1.51"/><path d="M80 143L4 268l154-80z" fill="#ceebb4" stroke="#ceebb4" stroke-width="1.51"/><path d="M1 831l-46 122 179-95z" fill="#9bb1b5" stroke="#9bb1b5" stroke-width="1.51"/><path d="M-11 444l20 73 126-20z" fill="#abdabb" stroke="#abdabb" stroke-width="1.51"/><path d="M-11 444l146 53 7-54z" fill="#abdbba" stroke="#abdbba" stroke-width="1.51"/><path d="M81-212L-32-46l153-39z" fill="#eff9b5" stroke="#eff9b5" stroke-width="1.51"/><path d="M-110 1104l59 57 6-208z" fill="#9a9bb2" stroke="#9a9bb2" stroke-width="1.51"/><path d="M1-238L-32-46 81-212z" fill="#f3fabd" stroke="#f3fabd" stroke-width="1.51"/><path d="M-51 1161l57 144 88-31z" fill="#908a9b" stroke="#908a9b" stroke-width="1.51"/><path d="M-9 86L4 268l76-125z" fill="#d5efb6" stroke="#d5efb6" stroke-width="1.51"/><path d="M-32-46L-151 65-9 86z" fill="#e7f6ba" stroke="#e7f6ba" stroke-width="1.51"/><path d="M-151 65l-38 177L-9 86z" fill="#dff3be" stroke="#dff3be" stroke-width="1.51"/><path d="M-203-178L-32-46 1-238z" fill="#f5fbc2" stroke="#f5fbc2" stroke-width="1.51"/><path d="M-167 369l156 75L4 268z" fill="#bae2bf" stroke="#bae2bf" stroke-width="1.51"/><path d="M-9 86l-180 156L4 268z" fill="#d3edbd" stroke="#d3edbd" stroke-width="1.51"/><path d="M-51 1161l-126 180 183-36z" fill="#8f899d" stroke="#8f899d" stroke-width="1.51"/><path d="M-11 444l-177 110L9 517z" fill="#addac3" stroke="#addac3" stroke-width="1.51"/><path d="M-188 554l73 82L9 517z" fill="#a8d6c5" stroke="#a8d6c5" stroke-width="1.51"/><path d="M-115 636l47 54L9 517z" fill="#a5d1c3" stroke="#a5d1c3" stroke-width="1.51"/><path d="M-182 859l137 94L1 831z" fill="#9db2bb" stroke="#9db2bb" stroke-width="1.51"/><path d="M-68 690l-114 169L1 831z" fill="#9fbec1" stroke="#9fbec1" stroke-width="1.51"/><path d="M-189 242l22 127L4 268z" fill="#c5e7c2" stroke="#c5e7c2" stroke-width="1.51"/><path d="M-142 975l32 129 65-151z" fill="#9ca2b6" stroke="#9ca2b6" stroke-width="1.51"/><path d="M-167 369l-21 185 177-110z" fill="#b3ddc5" stroke="#b3ddc5" stroke-width="1.51"/><path d="M-182 859l40 116 97-22z" fill="#9dacbc" stroke="#9dacbc" stroke-width="1.51"/><path d="M-188-10l37 75L-32-46z" fill="#ebf7be" stroke="#ebf7be" stroke-width="1.51"/><path d="M-203-178l15 168 156-36z" fill="#f3fbbf" stroke="#f3fbbf" stroke-width="1.51"/><path d="M-110 1104l-67 237 126-180z" fill="#978faa" stroke="#978faa" stroke-width="1.51"/><path d="M-115 636l-67 223 114-169z" fill="#a2c6c6" stroke="#a2c6c6" stroke-width="1.51"/><path d="M-188 554l6 305 67-223z" fill="#a4cbc9" stroke="#a4cbc9" stroke-width="1.51"/><path d="M-142 975l-35 366 67-237z" fill="#9b94b3" stroke="#9b94b3" stroke-width="1.51"/><path d="M-182 859l5 482 35-366z" fill="#9d9eb9" stroke="#9d9eb9" stroke-width="1.51"/><path d="M-188-10l-1 252 38-177z" fill="#e4f5c2" stroke="#e4f5c2" stroke-width="1.51"/><path d="M-189 242l1 312 21-185z" fill="#bbe2c7" stroke="#bbe2c7" stroke-width="1.51"/><path d="M-189 242l-14-420 15 732z" fill="#d5eec5" stroke="#d5eec5" stroke-width="1.51"/><path d="M-203-178l14 420 1-252z" fill="#ecf8c2" stroke="#ecf8c2" stroke-width="1.51"/></svg>