<?xml version="1.0" encoding="utf-8"?>
<!-- Generator: Adobe Illustrator 21.0.0, SVG Export Plug-In . SVG Version: 6.00 Build 0)  -->
<svg version="1.1" id="Слой_1" xmlns="http://www.w3.org/2000/svg" xmlns:xlink="http://www.w3.org/1999/xlink" x="0px" y="0px"
	 viewBox="0 0 640 480" style="enable-background:new 0 0 640 480;" xml:space="preserve">
<style type="text/css">
	.st0{fill:#FFFFFF;}
	.st1{fill:#3D6DEB;}
	.st2{fill:#DA143A;}
	.st3{fill:#A9A8AE;}
	.st4{fill:#2394BC;}
	.st5{fill:#EC8840;}
	.st6{fill:#26A6D1;}
	.st7{fill:#73A1FB;}
	.st8{fill:#78B86D;}
	.st9{fill:#F1CB30;}
	.st10{fill:#E2574C;}
</style>
<g id="Слой_1_1_">
</g>
<path class="st0" d="M169.9,159c0,0.4,0,0.9,0,1.3c0.2,1.2,0.1,2.5-0.1,3.7c-0.2,3.4-0.5,6.7-1.2,10c-0.1,0.5-0.2,1.1-0.4,1.6
	c0.2-0.2,0.4-0.3,0.6-0.5c1-2.3,2-4.6,3.1-6.9c0.9-4.9,1.5-9.9,2-14.7l-0.1,0L169.9,159z"/>
<path class="st0" d="M135.8,181.5c3.7,0.8,7.5-3.1,10.4-7.2c0,0,0-0.1,0-0.1c0.5-5.5,1.8-11,3.9-16.4l-5.3,7c0-0.1,0-0.1,0-0.2
	c-1.4-6.6,2.6-13.1,9-14.9c1.1-2.2,2.3-4.3,3.6-6.2c0.2-0.2,0.3-0.5,0.5-0.7c0,0,0,0,0,0l-5.8-12.1c-1,2.7-2.1,5.3-3.2,7.9l-0.2,8
	c-1.6,0.9-3,2-4.2,3.3l-0.5-0.2c-1.3,2.8-2.6,5.7-4,8.5c-0.2,0.8-0.3,1.6-0.4,2.4l-1,0.5c-1.5,3.1-3,6.2-4.5,9.3l6.3,0.2l-6.9,9
	C134.2,180.5,134.9,181.3,135.8,181.5z"/>
<path class="st0" d="M158,174.7C157.9,174.7,157.9,174.7,158,174.7c-0.6,0.8-1,1.5-1.5,2.2c-0.1,0.1-0.2,0.3-0.3,0.4
	c0,0.5,0.1,0.9,0.1,1.3C157,177.4,157.5,176,158,174.7z"/>
<path class="st0" d="M123.6,193.7c0.7,1,1.2,2,1.4,3l2.5-1.9c-1.2-0.7-2.4-1.3-3.6-1.9C123.8,193.2,123.7,193.5,123.6,193.7z"/>
<g>
	<path class="st0" d="M164.3,212.2c-0.3,0.3-0.6,0.5-0.9,0.7l-0.1,0.7l9.4-2l-3.1-5.1C167.9,208.4,166.1,210.3,164.3,212.2z"/>
	<path class="st0" d="M109.5,176.3l7.4-4.5c0.4-0.3,0.7-0.8,0.6-1.3c-0.1-0.5-0.5-0.9-1.1-1l-10.7-1.4l1.6,7.8
		C108,175.9,108.7,176.1,109.5,176.3z"/>
</g>
<g>
	<path class="st0" d="M164.3,212.2l3.4-0.7l-1.1-1.7C165.9,210.5,165.1,211.4,164.3,212.2z"/>
	<path class="st0" d="M106.1,175.5l6-3.7c0.4-0.3,0.7-0.8,0.6-1.3c-0.1-0.5-0.5-0.9-1-1l-10.7-1.4l1.5,7
		C103.6,175.1,104.8,175.3,106.1,175.5z"/>
</g>
<g>
	<path class="st1" d="M171.7,169.3l-6.2,8.2c-0.1,0.1-0.1,0.2-0.2,0.2l-8.2,6.2c0.4,0.1,0.7,0.1,1.1,0.2c0.1,0,0.1,0,0.2,0
		c1.4,0.2,2.7,0.1,4-0.2c1.4-0.3,2.6-0.8,3.8-1.5c4.4-2.7,6.6-7.9,5.6-12.9C171.8,169.4,171.8,169.3,171.7,169.3z"/>
	<path class="st1" d="M161.5,159.9c0,0-0.1,0-0.1,0c-0.5-0.1-1-0.1-1.5-0.1c-0.8,0-1.7,0.1-2.5,0.3c-6.6,1.4-10.8,7.9-9.4,14.4
		c0,0.1,0,0.1,0,0.2l6.2-8.2c0.1-0.1,0.1-0.2,0.2-0.2l8.2-6.2C162.2,160,161.9,159.9,161.5,159.9z"/>
	<path class="st1" d="M110.7,177.7l10.2,1.4c0.5,0.1,0.9,0.4,1,0.9c0.1,0.5-0.1,1-0.5,1.3l-8.8,5.4c2.3,7.2,6.2,13.9,11.5,19.5
		c0-0.1,0.1-0.2,0.2-0.3l19.7-25.9l-14.6-0.4c-0.5,0-1-0.4-1.1-0.9c-0.1-0.5,0.2-1.1,0.7-1.3l14.3-6.8c0.1-1.7,0.5-3.4,1.2-4.9
		l-5.9-6.2c-0.4-0.4-0.4-1-0.1-1.5c0.3-0.5,0.9-0.7,1.4-0.5l8,2.8c1.2-1.2,2.5-2.3,4-3.1l0.4-15.8c0-0.5,0.4-1,0.9-1.1
		c0.5-0.1,1.1,0.2,1.3,0.7l6.8,14.3c2,0.2,3.9,0.7,5.7,1.5l26.8-20.4c0.1-0.1,0.2-0.1,0.3-0.2c-9.3-8.9-21.4-13.7-34.2-13.7
		c-1.9,0-3.8,0.1-5.8,0.3l-1.4,10.2c-0.1,0.5-0.4,0.9-0.9,1c-0.5,0.1-1-0.1-1.3-0.5l-5.4-8.8c-7.6,2.4-14.6,6.6-20.3,12.3
		c-9.3,9.3-14.5,21.8-14.5,35C110.4,173.9,110.5,175.8,110.7,177.7z"/>
	<path class="st1" d="M175.8,163.9l14.6,0.4c0.5,0,1,0.4,1.1,0.9c0.1,0.5-0.2,1.1-0.7,1.3l-14.3,6.8c-0.1,1.7-0.5,3.4-1.2,4.9
		l5.9,6.2c0.4,0.4,0.4,1,0.1,1.5c-0.3,0.5-0.9,0.7-1.4,0.5l-8-2.8c-1.2,1.2-2.5,2.3-4,3.1l-0.4,15.8c0,0.5-0.4,1-0.9,1.1
		c-0.5,0.1-1.1-0.2-1.3-0.7l-6.8-14.3c-2-0.2-3.9-0.7-5.7-1.5l-26.8,20.4c-0.1,0.1-0.2,0.1-0.3,0.2c9.3,8.9,21.4,13.7,34.2,13.7
		c1.9,0,3.8-0.1,5.8-0.3l1.4-10.2c0.1-0.5,0.4-0.9,0.9-1c0.5-0.1,1,0.1,1.3,0.5l5.4,8.8c7.6-2.4,14.6-6.6,20.3-12.3
		c9.4-9.3,14.5-21.8,14.5-35c0-1.9-0.1-3.8-0.3-5.8l-10.2-1.4c-0.5-0.1-0.9-0.4-1-0.9c-0.1-0.5,0.1-1,0.5-1.3l8.8-5.4
		c-2.3-7.2-6.2-13.9-11.5-19.5c0,0.1-0.1,0.2-0.2,0.3L175.8,163.9z"/>
</g>
<path class="st0" d="M166.2,182.4c-1.2,0.7-2.5,1.2-3.8,1.5c-1.3,0.3-2.7,0.3-4,0.2c-0.1,0-0.1,0-0.2,0c-0.4,0-0.7-0.1-1.1-0.2
	l8.2-6.2l-10.9-11.3c-0.1,0.1-0.2,0.1-0.2,0.2l-6.2,8.2c0-0.1,0-0.1,0-0.2c-1.4-6.6,2.8-13,9.4-14.4c0.8-0.2,1.7-0.3,2.5-0.3
	c0.5,0,1,0,1.5,0.1c0,0,0.1,0,0.1,0c0.4,0,0.7,0.1,1.1,0.2l4.4-3.3c-1.8-0.8-3.7-1.4-5.7-1.5l-6.8-14.3c-0.2-0.5-0.8-0.8-1.3-0.7
	c-0.5,0.1-0.9,0.6-0.9,1.1l-0.4,15.8c-1.5,0.8-2.9,1.9-4,3.1l-8-2.8c-0.5-0.2-1.1,0-1.4,0.5c-0.3,0.5-0.2,1.1,0.1,1.5l5.9,6.2
	c-0.7,1.6-1.1,3.2-1.2,4.9l-14.3,6.8c-0.5,0.2-0.8,0.8-0.7,1.3c0.1,0.5,0.6,0.9,1.1,0.9l14.6,0.4l-19.7,25.9
	c-0.1,0.1-0.1,0.2-0.2,0.3l1.8,1.4l26.8-20.4c1.8,0.8,3.7,1.4,5.7,1.5l6.8,14.3c0.2,0.5,0.8,0.8,1.3,0.7c0.5-0.1,0.9-0.6,0.9-1.1
	l0.4-15.8c1.5-0.8,2.9-1.9,4-3.1l8,2.8c0.5,0.2,1.1,0,1.4-0.5c0.3-0.5,0.2-1.1-0.1-1.5l-5.9-6.2c0.7-1.6,1.1-3.2,1.2-4.9l14.3-6.8
	c0.5-0.2,0.8-0.8,0.7-1.3c-0.1-0.5-0.6-0.9-1.1-0.9l-14.6-0.4l-4,5.5C172.9,174.5,170.6,179.7,166.2,182.4z"/>
<path class="st2" d="M195.6,137.8l-1.5-1.5c-0.1,0-0.2,0.1-0.3,0.2L167,156.8l-4.4,3.3l-8.2,6.2l10.9,11.3c0.1-0.1,0.2-0.1,0.2-0.2
	l6.2-8.2c0,0.1,0,0.1,0,0.2l4-5.5l19.7-25.9C195.5,137.9,195.6,137.8,195.6,137.8z"/>
<g>
	<path class="st0" d="M151.8,134c0.5-0.1,0.9-0.5,0.9-1l1.4-10.2l-9,1.9l5.4,8.8C150.8,133.9,151.3,134.1,151.8,134z"/>
	<path class="st0" d="M197.8,163.9c0.1,0.5,0.5,0.9,1,0.9l10.2,1.4l-1.9-9l-8.8,5.4C197.9,162.9,197.7,163.4,197.8,163.9z"/>
</g>
<path class="st3" d="M198.8,116.2c-11-7.7-24.5-12.3-38.9-12.3c-2.4,0-4.9,0.1-7.3,0.4c0.8-1.3,1.1-2.8,0.8-4.3c-0.6-3-3.7-5-7.6-5
	c-0.8,0-1.6,0.1-2.4,0.3c-2.3,0.5-4.3,1.6-5.6,3.1c-1.4,1.6-2,3.5-1.6,5.4c0.3,1.5,1.2,2.7,2.5,3.6c-6.3,2.1-12.2,5.1-17.6,8.9
	c-5.7,4-10.9,8.9-15.2,14.5c-9.1,11.9-14,26.2-14,41.3c0,37.5,30.5,68,68,68s68-30.5,68-68C227.9,148.9,216.4,128.5,198.8,116.2z
	 M141.3,101.3c0.7-0.7,1.8-1.2,3-1.5c0.5-0.1,1-0.2,1.5-0.2c1.8,0,3,0.7,3.1,1.4c0.1,0.4-0.1,0.9-0.6,1.3c-1.1-0.5-2.4-0.7-3.6-0.4
	c-1.2,0.3-2.3,0.9-3.1,1.8c-0.6-0.3-1-0.6-1-1C140.5,102.4,140.7,101.8,141.3,101.3z M194.9,207c-5.7,5.7-12.7,9.9-20.3,12.3l-9,1.9
	c-1.9,0.2-3.8,0.3-5.8,0.3c-12.9,0-25-4.9-34.2-13.7c0.1,0,0.2-0.1,0.3-0.2l-1.8-1.4c-5.3-5.5-9.3-12.2-11.5-19.5l-1.9-9
	c-0.2-1.9-0.3-3.9-0.3-5.8c0-13.2,5.1-25.7,14.5-35c5.7-5.7,12.7-9.9,20.3-12.3l9-1.9c1.9-0.2,3.8-0.3,5.8-0.3
	c12.9,0,25,4.9,34.2,13.7l1.5,1.5c5.3,5.5,9.3,12.2,11.5,19.5l1.9,9c0.2,1.9,0.3,3.9,0.3,5.8C209.4,185.2,204.2,197.6,194.9,207z"/>
<g>
	<path class="st0" d="M167.9,209.9c-0.5,0.1-0.9,0.5-0.9,1l-1.4,10.2l9-1.9l-5.4-8.8C168.9,210,168.4,209.8,167.9,209.9z"/>
	<path class="st0" d="M121.9,180c-0.1-0.5-0.5-0.9-1-0.9l-10.2-1.4l1.9,9l8.8-5.4C121.8,181,122,180.5,121.9,180z"/>
</g>
<g>
	<g>
		<path class="st4" d="M325.7,95c38,0,68.6,31.2,68.6,69.9s-30.6,69.9-68.6,69.9s-68.6-31.2-68.6-69.9S287.7,95,325.7,95z"/>
		<path class="st5" d="M337.5,238.6c34.8-6.1,61.3-36.4,61.3-73.7l-0.5,0.9c0.9-7,0.9-13.5-0.5-18.6c-0.5,4.2-0.9,6.5-1.8,7.5
			c0-0.5,0-4.7-1.4-10.3c-0.5-4.2-1.4-8.4-2.7-12.1c0.5,1.9,0.5,3.3,0.5,4.7c-5.5-14.5-18.3-32.6-50.8-32.2c0,0,11.4,1.4,16.5,9.3
			c0,0-5.5-1.4-9.6,0.9c5,1.9,9.6,4.2,13.3,6.5h0.5c0.9,0.5,1.8,1.4,2.7,1.9c6.9,5.1,13.3,12.1,12.8,21c-1.8-2.8-3.7-4.7-6.4-5.1
			c3.2,12.6,3.2,22.8,0.9,30.8c-1.8-5.6-3.2-8.4-4.6-9.8c1.8,16.8-0.5,28.9-7.8,36.8c1.4-4.7,1.8-8.9,1.8-12.1
			c-8.7,13.1-18.3,20-29.3,20.5c-4.1,0-8.2-0.5-12.3-1.9c-5.5-1.9-10.5-5.1-15.1-9.8c6.9,0.5,13.7-0.5,19.2-3.7l9.1-6.1l0,0
			c1.4-0.5,2.3-0.5,3.7,0c2.3-0.5,3.2-1.4,2.3-3.7c-0.9-1.4-2.7-2.8-5-4.2c-4.6-2.3-9.6-1.9-14.6,1.4c-5,2.8-9.6,2.8-14.2-0.5
			c-2.7-1.9-5.9-4.7-8.7-8.4l-0.9-1.9c-0.5,4.2,0,8.9,1.8,15.4l0,0l0,0c-1.8-6.1-2.3-11.2-1.8-15.4l0,0c0-3.3,1.4-5.6,4.1-5.6h-0.9
			h1.4c3.2,0.5,6.4,0.9,10.5,2.3c0.5-3.7,0-7.9-2.7-12.1l0,0c3.7-3.7,6.9-6.1,9.6-7.5c1.4-0.5,1.8-1.9,2.3-3.3l0,0l0,0l0,0
			c0.9-1.9,0.5-2.8-0.5-3.7c-2.7,0-5,0-7.8-0.5l0,0c-0.9-0.5-2.3-1.4-4.1-2.8l-4.1-4.2l-1.4-0.9l0,0l0,0l0,0l-0.5-0.5l0.5-0.5
			c0.5-3.3,1.4-6.1,2.7-8.4l0.5-0.5c1.4-2.3,4.1-4.7,7.8-7.5c-7.3,0.9-13.7,4.2-19.7,9.8c-4.6-1.4-10.5-0.9-16.9,1.9l-0.9,0.5l0,0
			l0.9-0.5l0,0c-4.1-1.9-6.9-7.5-8.2-16.8c-5.5,5.1-7.8,14.9-7.8,28.4l-1.4,2.3l-0.5,0.5l0,0l0,0l0,0c-0.9,1.4-1.8,3.3-3.2,5.6
			c-1.8,3.7-2.7,6.5-2.7,9.3l0,0l0,0v0.9l0,0c0,0.5,0,1.4,0,1.9l4.1-3.3c-1.4,4.2-2.7,8.4-3.2,12.6v1.9l-1.4-1.4
			c0,15.8,5,30.8,13.3,42.9l0.5,0.5l0.5,0.5c5.9,8.4,13.7,15.4,22.9,21c6.4,3.7,13.3,6.5,20.6,8.4l1.4,0.5c1.4,0.5,3.2,0.5,4.6,0.9
			c1.4,0,2.3,0.5,3.7,0.5h1.4h2.3h2.3h1.8h3.2c1.8,0,3.7-0.5,5.5-0.5C336.2,238.6,337.5,238.6,337.5,238.6z M383.7,147.7v0.5V147.7
			L383.7,147.7z"/>
	</g>
</g>
<g>
	<g>
		<g>
			<path class="st6" d="M476.5,130.4c-5.8,6.2-8.6,13.9-9.6,22.1c17.3,0,34,0,50.8,0c0-1.4,0-2.4,0-3.8c-0.5-5.3-1.4-10.5-4.3-15.3
				c-3.8-6.2-10.1-9.6-17.3-10.5c-10.5-1.9-20.6,0-30.2,3.8c-14.4,5.3-26.4,13.9-36,25.4c-1.4,1.9-2.9,4.3-4.8,6.7
				c0-1.4,0-1.9,0.5-2.9c1.9-13.4,6.7-26.4,15.8-36.9c10.5-12.5,24-20.1,40.3-23c15.8-2.4,30.7,0,44.6,8.1
				c12.9,7.2,21.6,18.2,26.8,32.1c2.9,7.7,4.3,16.3,4.8,24.4c0,5.3,0,10.5,0,15.8c0,0.5,0,1,0,1.9c-30.2,0-59.9,0-90.1,0
				c0,7.2,2.4,13.9,7.2,19.2c5.8,6.2,13.4,9.1,21.1,10.5c17.3,2.4,33.1-0.5,47.9-9.1c0.5,0,1-0.5,1-0.5s0,0,0.5,0c0,0.5,0,1,0,1.4
				c0,9.1,0,18.2,0,27.3c0,1-0.5,1.4-1.4,1.9c-10.5,5.3-22.1,8.6-34,9.1c-7.7,0.5-15.3,0.5-22.5-1c-22.5-4.8-40.7-21.1-45.1-44.6
				c-4.8-26.8,8.1-51.3,33.6-62.3C476,130.4,476,130.4,476.5,130.4z"/>
		</g>
	</g>
</g>
<path class="st7" d="M220.6,321.2c0,13.9,11.3,25.1,25.1,25.1c13.9,0,25.1-11.3,25.1-25.1c0-13.9-11.3-25.1-25.1-25.1
	C231.9,296.1,220.6,307.4,220.6,321.2z"/>
<path class="st2" d="M303.6,288c0.2-0.3,0.2-0.8,0-1.1c-5.9-9.9-14.2-18.1-24.1-23.9c-10.2-5.9-21.9-9.1-33.8-9.1
	c-20.6,0-39.7,9.2-52.6,25.3c-0.3,0.4-0.3,0.8-0.1,1.2l18.9,32.8c0.2,0.3,0.6,0.6,1,0.6c0,0,0.1,0,0.1,0c0.4-0.1,0.8-0.4,0.9-0.8
	c3.7-14.5,16.8-24.6,31.7-24.6c0.9,0,1.9,0,2.8,0.1c0,0,0.1,0,0.1,0h54C303,288.6,303.4,288.4,303.6,288z"/>
<path class="st8" d="M255.7,353.2c-0.3-0.4-0.7-0.5-1.2-0.4c-2.8,0.8-5.8,1.2-8.8,1.2c-12.6,0-24.3-7.4-29.7-18.9c0,0,0-0.1,0-0.1
	l-27-46.8c-0.2-0.3-0.6-0.6-1-0.6c0,0,0,0,0,0c-0.4,0-0.8,0.2-1,0.6c-5.6,10-8.6,21.4-8.6,33c0,16.2,5.8,31.9,16.5,44.1
	c10.5,12.1,25,20.1,40.8,22.4c0.1,0,0.1,0,0.2,0c0.4,0,0.8-0.2,1-0.6l18.9-32.8C256,354,255.9,353.5,255.7,353.2z"/>
<path class="st9" d="M307.3,295.9h-37.9c-0.4,0-0.9,0.3-1,0.7c-0.2,0.4-0.1,0.9,0.2,1.2c6.3,6.2,9.8,14.5,9.8,23.4
	c0,6.7-2,13.2-5.8,18.7c0,0,0,0.1,0,0.1l-27.1,46.9c-0.2,0.3-0.2,0.8,0,1.1c0.2,0.3,0.6,0.5,1,0.5c0,0,0,0,0,0
	c17.8-0.2,34.5-7.3,47-19.9c12.5-12.7,19.4-29.5,19.4-47.3c0-8.5-1.6-16.7-4.6-24.6C308.2,296.2,307.8,295.9,307.3,295.9z"/>
<g>
	<path class="st10" d="M448.6,266.4c-9.7-6.7-21.8-10.4-35.4-10.4c-12.4,0-23.6,3.1-32.9,8.7c-17.9,10.7-28.9,30.8-28.9,56.5
		c0,34.8,24.7,66.5,61.7,66.5c37,0,61.7-31.7,61.7-66.5C474.9,296.8,465,277.4,448.6,266.4z M413.2,268.3
		c19.9,0,24.7,27.6,24.7,52.7c0,23.2-3,54.3-24.4,54.3s-24.9-31.4-24.9-54.6C388.5,295.6,393.4,268.3,413.2,268.3z"/>
</g>
</svg>
