<?xml version="1.0" encoding="utf-8"?>
<!-- Generator: Adobe Illustrator 21.0.0, SVG Export Plug-In . SVG Version: 6.00 Build 0)  -->
<svg version="1.1" id="Слой_1" xmlns="http://www.w3.org/2000/svg" xmlns:xlink="http://www.w3.org/1999/xlink" x="0px" y="0px"
	 viewBox="0 0 640 480" style="enable-background:new 0 0 640 480;" xml:space="preserve">
<style type="text/css">
	.st0{fill:#F03C2E;}
	.st1{fill:#D34A47;}
	.st2{fill:#FFFFFF;}
	.st3{fill:#E44F26;}
	.st4{fill:#F1662A;}
	.st5{fill:#EBEBEB;}
	.st6{fill:#010101;}
	.st7{fill:#131313;}
	.st8{fill:#1572B6;}
	.st9{fill:#33A9DC;}
	.st10{fill:url(#path19_1_);}
	.st11{fill:#F6F6F6;}
	.st12{fill:#F6F6F6;stroke:#404040;stroke-width:5.1509;stroke-miterlimit:10;}
	.st13{fill:#CB3837;}
	.st14{fill:#CF649A;}
	.st15{fill:#404137;}
	.st16{fill:#83CD29;}
</style>
<g id="Слой_1_1_">
</g>
<g>
	<path d="M584.4,193.2c-0.6,0.2-1.2,0.5-1.8,0.6c-2.4,0.4-3.9-0.8-3.9-3.2c0-4.5,0-9,0-13.5c0.1-5.2,0-10.3-4-14.5
		c2.3-0.4,4.4-0.7,6.5-1.2c13.5-3.1,20.5-11.6,21.4-25.7c0.5-7.2-0.8-13.8-5.6-19.4c-0.3-0.4-0.4-1.3-0.2-1.9
		c1.3-4.7,0.9-9.2-0.6-13.8c-0.4-1.1-1-1.5-2.1-1.4c-4,0.2-7.6,1.6-10.8,3.7c-3.1,2.1-6,2.5-9.6,1.7c-8.1-1.8-16.2-1.3-24.2,0.6
		c-0.9,0.2-2.1-0.1-3-0.6c-3.8-2.2-7.6-4.4-11.9-5.2c-3.4-0.7-3.7-0.5-4.6,2.8c-1.1,4.1-1.2,8.2-0.1,12.3c0.2,0.6,0,1.6-0.4,2
		c-8.9,10-5.7,28.8,0.3,36c4.7,5.6,10.9,8.1,17.8,9.4c1.2,0.2,2.4,0.4,3.6,0.6c-1,2.7-2,5.2-3,7.7c-0.2,0.5-0.9,0.9-1.4,1.1
		c-6.8,2.6-12.6,0.7-16.5-5.4c-2.1-3.3-4.7-5.7-8.7-6.4c-0.1,0-0.3-0.1-0.4-0.1c-1.1,0.3-2.1,0.6-3.2,0.9c0.6,0.8,1,1.9,1.8,2.4
		c3.4,2.1,5.5,5.1,7,8.7c2.3,5.6,6.7,8.1,12.4,8.6c2.8,0.2,5.6,0,8.7,0c0,3.5,0.1,7.4-0.1,11.4c-0.1,2.1-2.2,3-4.8,2.1
		c-6.8-2.3-13.1-5.7-18.5-10.3c-19.7-16.9-27.2-38.3-20.7-63.4c6.5-25,23.5-40.3,48.9-45.1c35.1-6.6,68.4,18.9,71.9,54.6
		C627.4,157.4,610.8,183.6,584.4,193.2z M551.3,162.4c0,0,0,0.1-0.1,0.1c0.1,0,0.1,0,0.2,0C551.5,162.5,551.5,162.6,551.3,162.4z
		 M535.4,173.5c0.5,0.3,1.1,0.8,1.7,1c0.2,0.1,0.6-0.4,1.3-0.9c-1-0.4-1.6-0.7-2.2-0.8C536,172.7,535.7,173.2,535.4,173.5z
		 M540.4,174.3c0.1,0.4,0.8,0.8,1.2,0.8c0.4,0,0.8-0.6,1.2-0.9c-0.4-0.3-0.8-0.7-1.9-1.7C540.7,173.3,540.3,173.8,540.4,174.3z
		 M546.5,172.8c-0.5,0.1-1,0.6-1.4,0.9c0.3,0.3,0.6,0.7,1,1.2c0.6-0.6,1-0.9,1.4-1.3C547.2,173.4,546.8,172.8,546.5,172.8z
		 M531.3,170.8c0.3,0.5,0.7,1,1.3,1.8c0.4-0.7,0.8-1.2,0.8-1.3c-0.4-0.5-0.9-0.9-1.4-1.3C532,170,531.3,170.6,531.3,170.8z"/>
</g>
<path class="st0" d="M404.1,387.7c3.6,3.6,3.6,9.3,0,12.9l-61.5,61.5c-3.6,3.6-9.3,3.6-12.9,0l-61.8-61.8c-3.6-3.6-3.6-9.3,0-12.9
	l42.4-42.4l16.1,16.1c-1.6,3.9-0.9,8.7,2.3,11.9c1.1,1.1,2.3,1.8,3.6,2.4v38.9c-1.3,0.5-2.5,1.3-3.6,2.4c-4.2,4.2-4.2,11.1,0,15.3
	c4.2,4.2,11.1,4.2,15.3,0c4.2-4.2,4.2-11.1,0-15.3c-0.9-0.9-1.8-1.5-2.9-2.1V376l14.6,14.6c-1.6,3.9-0.8,8.6,2.4,11.8
	c4.2,4.2,11.1,4.2,15.4,0c4.2-4.2,4.2-11.1,0-15.3c-3-3-7.4-3.9-11.2-2.6l-15.7-15.7c1.3-3.8,0.5-8.2-2.6-11.2
	c-3-3-7.4-3.9-11.1-2.6l-16.3-16.3l12.8-12.8c3.6-3.6,9.3-3.6,12.9,0L404.1,387.7"/>
<path class="st1" d="M121.7,175.5l1.2-19.2l3.2-5.4c0,0-7.2,3-19.4,3c-12.1,0-19.3-2.9-19.3-2.9l3.6,5.9l1.3,18.7
	c0,2,6.6,3.6,14.7,3.6C115.1,179.1,121.7,177.5,121.7,175.5 M118.1,85.7l2.4-9.6l13.4-14.1l-3.5-3l-14.2,15l-2.8,11.4
	c-2.1-0.1-4.2-0.1-6.3-0.1c-14.9,0-27.1,1.7-27.1,3.8C80,91.3,92.1,93,107,93c14.9,0,27.1-1.7,27.1-3.8
	C134.1,87.7,127.5,86.3,118.1,85.7"/>
<path class="st2" d="M116.7,91.1c0,0-0.5,0.1-2.1,0.1c-1.5,0-2.6,0-3.1-0.4c-0.1-0.1-0.2-0.3-0.2-0.5c0-0.3,0.2-0.4,0.4-0.5l0.2,0.4
	c-0.1,0-0.2,0.1-0.2,0.1c0,0.2,1.6,0.3,2.8,0.3c1.2,0,2.7-0.1,2.7-0.3c0-0.1-0.1-0.1-0.3-0.2l0.2-0.4c0.3,0.1,0.6,0.3,0.6,0.6
	C117.8,91,117.1,91,116.7,91.1"/>
<path class="st1" d="M133.9,62.1c0.3-0.4-0.2-1.4-1.1-2.2c-1-0.8-2-1.2-2.4-0.8c-0.3,0.4,0.2,1.4,1.1,2.2
	C132.5,62.1,133.5,62.5,133.9,62.1 M121.1,128.5c-0.3-3.1,6.7-7.5,4.9-7.6c-3.9,0.2-5.8,4.5-7.7,9.1c-0.7,1.7-3.2,8.7-4.8,7.8
	c-1.6-0.9,2.1-6.7,3.1-10.1c-1.2,0.9-5.5,4.3-6.7,1.1c-1.8,1.5-5.7,2.4-5.2-1.7c-1,1.7-3.1,4.1-5.7,3.1c-3.4-1.3,2-12.1,3.3-11.6
	c1.3,0.5-0.3,3-0.7,4c-0.9,2.1-2,4.8-1.3,5.3c1.2,0.9,4.5-3.5,4.6-3.6c0.6-0.8,2.4-6.2,3.8-5.6c1.4,0.6-3.6,7.7-1.7,9.1
	c0.4,0.3,1.9-0.2,2.9-1.2c0.6-0.7,0.4-2.1,2.4-6.9c2-4.8,3.8-10.8,5.2-10.4c1.4,0.5,0.2,3.5-0.3,4.7c-2.3,5.4-6.4,14.3-4.5,13.6
	c1.9-0.7,2.9-0.7,4.8-2.9s1.8-5.8,3-5.7c1.2,0.1,1,1.2,0.7,2.1c1.2-1.4,5.8-4.3,6.9-1.4c1.3,3.5-6.5,8.4-4.6,8.2
	c1.9-0.2,5-2.2,6.3-4l3.6-32.7c0,0-3.7,3-26.9,3c-23.3,0-26.5-3-26.5-3l3.1,29.8c1.6-4.7,5.5-14.1,11.7-13.8
	c2.8,0.1,6.5,5.5,3.3,5.7c-1.4,0.1-1.5-2.7-3.1-3.1c-1.2-0.3-2.8,0.6-3.8,1.7c-2.1,2-6.5,10-5.9,14c0.8,5.1,7-1.8,8.1-3.8
	c0.7-1.4,1.3-5.7,2.9-5.2c1.6,0.4-0.1,4.8-1.3,8.7c-1.3,4.4-2,8.9-3.7,8.4c-1.7-0.5,1-6.1,1-7.1c-1.6,1.4-4.5,5.1-8.2,3.3l1.9,18.5
	c0,0,5.1,4,20.5,4s20.7-4,20.7-4l2.4-21.4C127.6,129,121.5,132.3,121.1,128.5"/>
<g>
	<polygon class="st3" points="211.2,184.2 201.1,71.2 311.8,71.2 301.7,184.1 256.4,196.7 	"/>
	<polygon class="st4" points="256.4,187.1 293.1,176.9 301.7,80.4 256.4,80.4 	"/>
	<polygon class="st5" points="256.4,122.3 238.1,122.3 236.8,108.1 256.4,108.1 256.4,94.3 256.4,94.3 221.7,94.3 222,98 
		225.4,136.2 256.4,136.2 	"/>
	<polygon class="st5" points="256.4,158.3 256.4,158.3 240.9,154.2 240,143.1 232.5,143.1 226,143.1 228,164.9 256.4,172.7 
		256.4,172.7 	"/>
	<path class="st6" d="M211.4,40.5h7v7h6.4v-7h7v21.1h-7v-7.1h-6.4v7.1h-7V40.5L211.4,40.5z"/>
	<path class="st6" d="M241.2,47.5H235v-7h19.4v7h-6.2v14.1h-7L241.2,47.5L241.2,47.5z"/>
	<path class="st6" d="M257.5,40.5h7.3l4.5,7.4l4.5-7.4h7.3v21.1h-7V51.1l-4.8,7.5h-0.1l-4.8-7.5v10.4h-6.9L257.5,40.5L257.5,40.5z"
		/>
	<path class="st6" d="M284.7,40.5h7v14.1h9.9v7h-16.9L284.7,40.5L284.7,40.5z"/>
	<polygon class="st2" points="256.4,122.3 256.4,136.2 273.5,136.2 271.8,154.1 256.4,158.3 256.4,172.7 284.8,164.9 285,162.5 
		288.3,126 288.6,122.3 284.9,122.3 	"/>
	<polygon class="st2" points="256.4,94.3 256.4,102.9 256.4,108.1 256.4,108.1 289.8,108.1 289.8,108.1 289.9,108.1 290.1,105 
		290.8,98 291.1,94.3 	"/>
</g>
<g>
	<path class="st7" d="M438.1,46.3h-9.2l9.6,10.4v4.9h-19.7v-5.8h9.6l-9.6-10.4v-4.9h19.3V46.3L438.1,46.3z M414.9,46.3h-9.2
		l9.6,10.4v4.9h-19.7v-5.8h9.6l-9.6-10.4v-4.9h19.3L414.9,46.3L414.9,46.3z M391.9,46.5H382v9h9.9v6h-17V40.5h17V46.5z"/>
</g>
<polygon class="st8" points="361.4,184.2 351.3,71.2 462,71.2 452,184.1 406.6,196.7 "/>
<polygon class="st9" points="406.7,187.1 443.3,177 451.9,80.4 406.7,80.4 "/>
<g>
	<polygon class="st2" points="406.7,121.4 425,121.4 426.3,107.2 406.7,107.2 406.7,93.3 406.7,93.3 441.4,93.3 441.1,97 
		437.7,135.2 406.7,135.2 	"/>
	<polygon class="st5" points="406.8,157.3 406.7,157.4 391.3,153.2 390.3,142.1 382.8,142.1 376.4,142.1 378.3,163.9 406.7,171.8 
		406.8,171.8 	"/>
	<polygon class="st2" points="423.9,134.6 422.2,153.2 406.7,157.4 406.7,171.8 435.1,163.9 435.3,161.6 437.8,134.6 	"/>
	<polygon class="st5" points="406.7,93.3 406.7,101.9 406.7,107.1 406.7,107.2 373.3,107.2 373.3,107.2 373.3,107.2 373,104 
		372.4,97 372,93.3 	"/>
	<polygon class="st5" points="406.7,121.4 406.7,130 406.7,135.2 406.7,135.2 391.5,135.2 391.5,135.2 391.5,135.2 391.2,132.1 
		390.5,125.1 390.2,121.4 	"/>
</g>
<g id="layer1" transform="translate(130.53125,-317.84375)">
	
		<linearGradient id="path19_1_" gradientUnits="userSpaceOnUse" x1="297.7434" y1="264.2652" x2="297.7434" y2="336.9227" gradientTransform="matrix(1 0 0 1 19.7117 279.7711)">
		<stop  offset="0.1497" style="stop-color:#2A4F84"/>
		<stop  offset="0.3884" style="stop-color:#294E82"/>
		<stop  offset="1" style="stop-color:#172E4E"/>
	</linearGradient>
	<path id="path19" class="st10" d="M390.4,602.7c0,7.7-6.3,14-14,14H258.6c-7.7,0-14-6.3-14-14v-44.6c0-7.7,6.3-14,14-14h117.8
		c7.7,0,14,6.3,14,14V602.7z"/>
	<path id="path21" class="st11" d="M365.7,579.4c6.2,2.2,9.2,5.8,9.2,11.1c0,3.4-1.3,6.2-3.8,8.2c-2.5,2-6.2,3.3-10.9,3.3
		c-4.7,0-9.1-1.4-13.1-3.6c0-1.2,0.4-2.5,0.9-3.9s1.3-2.5,2-3.4c3.7,1.9,6.9,2.9,9.6,2.9c1.3,0,2.3-0.2,3-0.7c0.7-0.4,1-1,1-1.8
		c0-1.4-1.1-2.4-3.2-3.1l-3.8-1.4c-5.8-2.1-8.7-5.5-8.7-10.3c0-3.5,1.2-6.2,3.6-8.3c2.4-2,5.7-3.8,9.8-3.8c2,0,4.3,0.3,6.7,0.9
		c2.5,0.6,4.5,2,6,2.8c0.1,1.3-0.2,2.7-0.8,4.2c-0.6,1.5-1.3,2.6-2.2,3.3c-3.9-1.7-7.1-2.6-9.7-2.6c-0.9,0-1.6,0.2-2.1,0.6
		c-0.5,0.4-0.7,0.9-0.7,1.6c0,1.1,0.9,2,2.6,2.6L365.7,579.4L365.7,579.4z"/>
	<path id="path23" class="st11" d="M335,579.4c6.2,2.2,9.2,5.8,9.2,11.1c0,3.4-1.3,6.2-3.8,8.2c-2.5,2-6.2,3.3-10.9,3.3
		c-4.7,0-9.1-1.4-13.1-3.6c0-1.2,0.4-2.5,0.9-3.9c0.6-1.4,1.3-2.5,2-3.4c3.7,1.9,6.9,2.9,9.7,2.9c1.3,0,2.3-0.2,3-0.7
		c0.7-0.4,1-1,1-1.8c0-1.4-1.1-2.4-3.2-3.1L326,587c-5.8-2.1-8.7-5.5-8.7-10.3c0-3.5,1.2-6.2,3.6-8.3c2.4-2,5.7-3.8,9.8-3.8
		c2,0,4.3,0.3,6.7,0.9c2.5,0.6,4.5,2,6,2.8c0.1,1.3-0.2,2.7-0.8,4.2c-0.6,1.5-1.3,2.6-2.2,3.3c-3.9-1.7-7.1-2.6-9.7-2.6
		c-0.9,0-1.6,0.2-2.1,0.6c-0.5,0.4-0.7,0.9-0.7,1.6c0,1.1,0.9,2,2.6,2.6L335,579.4L335,579.4z"/>
	<path id="path25" class="st11" d="M312.6,579.9c0-2.1-0.3-4.1-1-5.8c-0.7-1.8-1.6-3.3-2.9-4.6c-1.3-1.3-2.8-2.3-4.5-3
		c-1.8-0.7-3.8-1.8-6-1.8c-2.6,0-4.9,1.2-6.9,2.1c-2,0.9-3.6,2.2-4.9,3.8c-1.3,1.6-2.2,3.5-2.8,5.7c-0.6,2.2-0.9,4.5-0.9,7.1
		c0,2.7,0.3,5.1,0.8,7.4c0.5,2.2,1.4,4.2,2.6,5.8c1.2,1.6,2.8,2.9,4.8,3.8c2,0.9,4.4,1.6,7.3,1.6c5.4,0,9.9-1.6,13.6-4.2
		c-0.4-2.7-1.3-4.8-2.8-6.3c-1.9,0.7-3.6,1.2-5,1.5c-1.5,0.3-2.7,0.5-3.8,0.5c-2.2,0-3.8-0.6-4.8-1.7c-1-1.1-1.5-2.5-1.6-4.5h18
		C312.2,585.3,312.6,582.7,312.6,579.9z M293.5,580.4c0.1-2.3,0.6-4.8,1.3-5.9c0.7-1,1.8-1.5,3.3-1.5c1.5,0,2.7,0.5,3.4,1.6
		c0.8,1.1,1.1,3.3,1.1,5l0,0.8H293.5L293.5,580.4L293.5,580.4z"/>
	<path id="path27" class="st12" d="M394,584.9c-2,1.7-3.1,4.2-3.1,7.4v12c0,4-1.2,7-4,9.1c-2.8,2.1-6,3.1-9.7,3.2l-2.2,0v-6
		c1.9-0.6,2.7-1.2,3.5-2c1.4-1.3,2.5-3.3,2.5-6.1v-9.7c0.1-3.3,0.3-5.9,1.5-7.7c1.2-1.9,3.5-3.5,7-4.9c-3.8-1.8-6.4-4.1-7.7-6.9
		c-0.8-1.7-0.8-4-0.8-6.8v-8.9c0-2.9-1-5-2.1-6.2c-0.8-0.8-1.7-1.4-3.8-1.8V544c2.6,0,3.9,0,5.4,0c2.3,0,4.3,1.3,6,2.6
		c1.9,1.5,3.2,3.4,3.9,5.9c0.4,1.4,0.5,2.8,0.5,4.1v10.3c0,3.6,1.1,6.3,2.9,8.1c1,1,2.5,2,5,2.8v4.6
		C396.6,583.1,395.2,583.9,394,584.9L394,584.9z"/>
	<path id="path29" class="st12" d="M256,544L256,544c-0.7,0-1.4,0-2,0c-2.3,0-4.3,1.3-6,2.6c-1.9,1.5-3.4,3.4-3.9,5.9
		c-0.3,1.5-0.2,2.8-0.2,4.1v10.3c0,3.6-1.4,6.3-3.2,8.1c-1,1-3.2,2-5.7,2.8v4.6c2.2,0.6,4.4,1.4,5.5,2.5c2,1.7,3.4,4.2,3.4,7.4v12
		c0,4,1,7,3.7,9.1c2.8,2.1,6,3.1,9.7,3.2l2.5,0v-6c-1.9-0.6-3-1.2-3.8-2c-1.4-1.3-2.2-3.3-2.2-6.1v-9.7c-0.1-3.3-0.6-5.9-1.8-7.7
		c-1.2-1.9-3.5-3.5-7-4.9c3.8-1.8,6.4-4.1,7.7-6.9c0.8-1.7,1.1-4,1.1-6.8v-8.9c0-2.9,0.7-5,1.9-6.2c0.6-0.6,1.8-1.2,3.4-1.6l2.5,0
		c0-2.2,0-3.5,0-5.9L256,544L256,544L256,544L256,544z"/>
	<path id="path31" class="st11" d="M279,592.7h-1.9c-2,0-2.8-1.1-2.8-3.2V550c0-2.4-0.7-4-1.6-5c-0.9-1-2.4-1-4.6-1H264l-0.5,0v0
		l0,5.9v41.5c0,3.3,0.7,5.7,2.1,7.3c1.3,1.5,3.6,2.3,6.7,2.3c2.2,0,4.7-0.2,7.4-0.7c0.1-0.5,0.2-1.5,0.2-3
		C279.9,595.8,279.6,594.3,279,592.7L279,592.7z"/>
</g>
<path class="st13" d="M51,371.1h179.1v59.7h-89.6v10h-39.8v-10H51V371.1z M60.9,420.8h19.9V391h10v29.9h10V381H60.9V420.8z
	 M110.7,381v49.8h19.9v-10h19.9V381H110.7z M130.6,391h10v19.9h-10V391z M160.5,381v39.8h19.9V391h10v29.9h10V391h10v29.9h10V381
	H160.5z"/>
<polygon class="st2" points="60.9,420.8 80.8,420.8 80.8,391 90.8,391 90.8,420.8 100.7,420.8 100.7,381 60.9,381 "/>
<path class="st2" d="M110.7,381v49.8h19.9v-10h19.9V381H110.7z M140.5,410.9h-10V391h10V410.9z"/>
<polygon class="st2" points="160.5,381 160.5,420.8 180.4,420.8 180.4,391 190.3,391 190.3,420.8 200.3,420.8 200.3,391 210.2,391 
	210.2,420.8 220.2,420.8 220.2,381 "/>
<path class="st14" d="M245.4,272.1c-6,0-11.2,1.5-15.6,3.6c-1.6-3.2-3.2-6-3.5-8.1c-0.3-2.4-0.7-3.9-0.3-6.8c0.4-2.9,2-7,2-7.3
	c0-0.3-0.4-1.8-3.8-1.8c-3.5,0-6.4,0.7-6.8,1.6s-1,3-1.4,5.1c-0.6,3.2-6.9,14.3-10.5,20.2c-1.2-2.3-2.2-4.3-2.4-5.9
	c-0.3-2.4-0.7-3.9-0.3-6.8c0.4-2.9,2-7,2-7.3c0-0.3-0.4-1.8-3.8-1.8c-3.5,0-6.4,0.7-6.8,1.6c-0.3,0.9-0.7,3.1-1.4,5.1
	c-0.7,2.1-9.1,20.8-11.3,25.6c-1.1,2.5-2.1,4.5-2.8,5.8c-0.7,1.3,0,0.1-0.1,0.2c-0.6,1.1-0.9,1.8-0.9,1.8v0c-0.5,0.8-1,1.6-1.2,1.6
	c-0.2,0-0.5-2.3,0.1-5.3c1.2-6.5,4.3-16.6,4.2-17c0-0.2,0.6-1.9-1.9-2.9c-2.5-0.9-3.3,0.6-3.5,0.6c-0.2,0-0.4,0.5-0.4,0.5
	s2.7-11.4-5.2-11.4c-5,0-11.8,5.4-15.2,10.3c-2.1,1.2-6.7,3.7-11.6,6.3c-1.8,1-3.8,2.1-5.6,3.1l-0.4-0.4
	c-9.6-10.2-27.4-17.5-26.6-31.3c0.3-5,2-18.2,34.1-34.2c26.3-13.1,47.4-9.5,51-1.5c5.2,11.4-11.3,32.6-38.6,35.7
	c-10.4,1.2-15.9-2.9-17.3-4.4c-1.4-1.6-1.6-1.6-2.2-1.3c-0.9,0.5-0.3,1.9,0,2.7c0.8,2.1,4.2,5.9,9.9,7.8c5,1.6,17.2,2.6,32-3.2
	c16.6-6.4,29.5-24.2,25.7-39.1c-3.9-15.1-29-20.1-52.7-11.7c-14.1,5-29.5,12.9-40.5,23.2c-13.1,12.2-15.2,22.9-14.3,27.3
	c3.1,15.8,24.9,26.1,33.6,33.8c-0.4,0.2-0.8,0.5-1.2,0.7c-4.4,2.1-21,10.8-25.2,20.1c-4.7,10.4,0.7,17.9,4.4,18.9
	c11.2,3.1,22.7-2.5,28.9-11.7c6.2-9.2,5.4-21.2,2.6-26.7l-0.1-0.2l3.4-2c2.2-1.3,4.4-2.5,6.3-3.6c-1.1,2.9-1.8,6.4-2.3,11.4
	c-0.5,5.9,1.9,13.6,5.1,16.6c1.4,1.3,3.1,1.3,4.1,1.3c3.7,0,5.4-3.1,7.2-6.7c2.3-4.5,4.3-9.6,4.3-9.6s-2.5,14,4.4,14
	c2.5,0,5-3.3,6.2-4.9v0c0,0,0.1-0.1,0.2-0.3c0.1-0.2,0.3-0.4,0.4-0.6v-0.1c1-1.7,3.3-5.7,6.6-12.4c4.3-8.5,8.5-19.2,8.5-19.2
	s0.4,2.6,1.6,6.9c0.7,2.6,2.4,5.3,3.6,8.1c-1,1.4-1.6,2.2-1.6,2.2l0,0c-0.8,1.1-1.7,2.2-2.7,3.4c-3.4,4.1-7.5,8.8-8.1,10.1
	c-0.6,1.6-0.5,2.8,0.7,3.7c0.9,0.7,2.5,0.8,4.2,0.7c3.1-0.2,5.2-1,6.3-1.4c1.7-0.6,3.6-1.5,5.4-2.9c3.4-2.5,5.4-6,5.2-10.7
	c-0.1-2.6-0.9-5.1-2-7.6c0.3-0.4,0.6-0.9,0.9-1.3c5.3-7.8,9.4-16.3,9.4-16.3s0.4,2.6,1.6,6.9c0.6,2.2,1.9,4.6,3.1,6.9
	c-5,4.1-8.1,8.8-9.2,11.9c-2,5.7-0.4,8.3,2.5,8.9c1.3,0.3,3.2-0.3,4.6-0.9c1.7-0.6,3.9-1.5,5.8-3c3.4-2.5,6.6-5.9,6.4-10.6
	c-0.1-2.1-0.7-4.3-1.4-6.3c4.2-1.7,9.7-2.8,16.7-1.9c14.9,1.7,17.9,11.1,17.3,15c-0.6,3.9-3.7,6-4.7,6.7c-1,0.6-1.4,0.9-1.3,1.3
	c0.1,0.7,0.6,0.7,1.5,0.5c1.2-0.2,7.9-3.2,8.1-10.4C269.8,282,261,272,245.4,272.1L245.4,272.1z M130.2,310.9
	c-4.9,5.4-11.9,7.5-14.8,5.7c-3.2-1.8-1.9-9.8,4.1-15.6c3.7-3.5,8.5-6.7,11.7-8.7c0.7-0.4,1.8-1.1,3.1-1.8c0.2-0.1,0.3-0.2,0.3-0.2
	c0.2-0.1,0.5-0.3,0.8-0.5C137.5,298.1,135.4,305.3,130.2,310.9L130.2,310.9z M166.3,286.4c-1.7,4.2-5.3,15-7.5,14.4
	c-1.9-0.5-3-8.7-0.4-16.7c1.3-4.1,4.2-8.9,5.9-10.8c2.7-3,5.7-4,6.4-2.8C171.5,272.1,167.3,283.8,166.3,286.4z M196.1,300.6
	c-0.7,0.4-1.4,0.6-1.7,0.4c-0.2-0.1,0.3-0.6,0.3-0.6s3.7-4,5.2-5.8c0.8-1.1,1.8-2.3,2.9-3.7v0.4
	C202.8,296.1,198.1,299.3,196.1,300.6L196.1,300.6z M219,295.4c-0.5-0.4-0.5-1.6,1.3-5.5c0.7-1.5,2.3-4.1,5.1-6.6
	c0.3,1,0.5,2,0.5,2.9C226,292.2,221.7,294.4,219,295.4z"/>
<g id="layer1_1_" transform="translate(-115.94417,-501.42131)">
	<path id="path22" class="st15" d="M646.4,866.6c-0.1,0-0.3,0-0.4,0.1c-0.3,0.2-0.4,0.4-0.4,0.7v21.6c0,0.2-0.1,0.4-0.3,0.5
		c-0.2,0.1-0.4,0.1-0.6,0l-3.5-2c-0.5-0.3-1.2-0.3-1.7,0l-14.1,8.1c-0.5,0.3-0.8,0.9-0.8,1.5v16.3c0,0.6,0.3,1.2,0.8,1.5l14.1,8.1
		c0.5,0.3,1.2,0.3,1.7,0l14.1-8.1c0.5-0.3,0.8-0.9,0.8-1.5v-40.6c0-0.6-0.3-1.2-0.9-1.5l-8.4-4.7
		C646.7,866.7,646.5,866.6,646.4,866.6L646.4,866.6z M555.6,887c-0.3,0-0.5,0.1-0.8,0.2l-14.1,8.1c-0.5,0.3-0.8,0.9-0.8,1.5l0,21.8
		c0,0.3,0.2,0.6,0.4,0.7c0.3,0.2,0.6,0.2,0.8,0l8.4-4.8c0.5-0.3,0.9-0.9,0.9-1.5v-10.2c0-0.6,0.3-1.2,0.8-1.5l3.6-2.1
		c0.3-0.2,0.6-0.2,0.8-0.2c0.3,0,0.6,0.1,0.8,0.2l3.6,2.1c0.5,0.3,0.8,0.9,0.8,1.5v10.2c0,0.6,0.3,1.2,0.9,1.5l8.4,4.8
		c0.3,0.2,0.6,0.2,0.8,0c0.3-0.1,0.4-0.4,0.4-0.7l0-21.8c0-0.6-0.3-1.2-0.8-1.5l-14.1-8.1c-0.2-0.1-0.5-0.2-0.8-0.2H555.6L555.6,887
		z M682.4,887.2c-0.3,0-0.6,0.1-0.8,0.2l-14.1,8.1c-0.5,0.3-0.8,0.9-0.8,1.5v16.3c0,0.6,0.3,1.2,0.9,1.5l14,8c0.5,0.3,1.1,0.3,1.7,0
		l8.5-4.7c0.3-0.1,0.5-0.4,0.5-0.7c0-0.3-0.2-0.6-0.4-0.7l-14.2-8.1c-0.3-0.2-0.5-0.5-0.5-0.8v-5.1c0-0.3,0.2-0.6,0.5-0.7l4.4-2.5
		c0.3-0.2,0.6-0.2,0.8,0l4.4,2.5c0.3,0.2,0.4,0.4,0.4,0.7v4c0,0.3,0.2,0.6,0.4,0.7c0.3,0.2,0.6,0.2,0.8,0l8.5-4.9
		c0.5-0.3,0.8-0.9,0.8-1.5V897c0-0.6-0.3-1.2-0.8-1.5l-14-8.1C682.9,887.2,682.7,887.2,682.4,887.2L682.4,887.2z M640.2,899.3
		c0.1,0,0.2,0,0.2,0.1l4.8,2.8c0.1,0.1,0.2,0.2,0.2,0.4v5.6c0,0.2-0.1,0.3-0.2,0.4l-4.8,2.8c-0.1,0.1-0.3,0.1-0.4,0l-4.8-2.8
		c-0.1-0.1-0.2-0.2-0.2-0.4v-5.6c0-0.2,0.1-0.3,0.2-0.4l4.8-2.8C640.1,899.3,640.1,899.3,640.2,899.3L640.2,899.3z"/>
	<path id="path28" class="st16" d="M724.6,886.8c-0.5,0-1,0.1-1.4,0.3l-13.3,7.7c-0.9,0.5-1.4,1.4-1.4,2.4v15.3c0,1,0.5,1.9,1.4,2.4
		l3.5,2c1.7,0.8,2.3,0.8,3.1,0.8c2.5,0,3.9-1.5,3.9-4.2v-15.1c0-0.2-0.2-0.4-0.4-0.4h-1.7c-0.2,0-0.4,0.2-0.4,0.4v15.1
		c0,1.2-1.2,2.3-3.2,1.4l-3.6-2.1c-0.1-0.1-0.2-0.2-0.2-0.3v-15.3c0-0.1,0.1-0.3,0.2-0.4l13.3-7.7c0.1-0.1,0.3-0.1,0.4,0l13.3,7.7
		c0.1,0.1,0.2,0.2,0.2,0.4v15.3c0,0.1-0.1,0.3-0.2,0.4l-13.3,7.7c-0.1,0.1-0.3,0.1-0.4,0l-3.4-2c-0.1-0.1-0.2-0.1-0.3,0
		c-0.9,0.5-1.1,0.6-2,0.9c-0.2,0.1-0.5,0.2,0.1,0.6l4.5,2.6c0.4,0.2,0.9,0.4,1.4,0.4c0.5,0,1-0.1,1.4-0.4l13.3-7.7
		c0.9-0.5,1.4-1.4,1.4-2.4v-15.3c0-1-0.5-1.9-1.4-2.4l-13.3-7.7C725.6,886.9,725.1,886.8,724.6,886.8L724.6,886.8z M598,887.1
		c-0.3,0-0.6,0.1-0.8,0.2l-14.1,8.1c-0.5,0.3-0.8,0.9-0.8,1.5v16.3c0,0.6,0.3,1.2,0.8,1.5l14.1,8.1c0.5,0.3,1.2,0.3,1.7,0l14.1-8.1
		c0.5-0.3,0.8-0.9,0.8-1.5v-16.3c0-0.6-0.3-1.2-0.8-1.5l-14.1-8.1C598.6,887.2,598.3,887.1,598,887.1z M744.4,887.2v0.4h1.1v2.9h0.5
		v-2.9h1.1v-0.4H744.4z M747.4,887.2v3.3h0.4v-1.9c0-0.1,0-0.2,0-0.4c0-0.2,0-0.3,0-0.4v-0.1l0.9,2.8h0.5l1-2.8c0,0.2,0,0.3,0,0.5
		c0,0.2,0,0.3,0,0.3v1.9h0.4v-3.3H750l-1,2.8l-0.9-2.8L747.4,887.2L747.4,887.2z M728.2,897.7c-3.8,0-6,1.6-6,4.3
		c0,2.9,2.2,3.7,5.9,4.1c4.4,0.4,4.7,1.1,4.7,1.9c0,1.5-1.2,2.1-4,2.1c-3.5,0-4.3-0.9-4.6-2.6c0-0.2-0.2-0.3-0.4-0.3h-1.7
		c-0.2,0-0.4,0.2-0.4,0.4c0,2.2,1.2,4.9,7,4.9c4.2,0,6.6-1.7,6.6-4.6c0-2.9-2-3.6-6-4.2c-4.1-0.5-4.5-0.8-4.5-1.8
		c0-0.8,0.3-1.9,3.4-1.9c2.7,0,3.7,0.6,4.2,2.4c0,0.2,0.2,0.3,0.4,0.3h1.7c0.1,0,0.2-0.1,0.3-0.1c0.1-0.1,0.1-0.2,0.1-0.3
		C734.6,899.2,732.4,897.7,728.2,897.7L728.2,897.7z M682.3,901.6c-0.1,0-0.1,0-0.2,0l-2.7,1.6c-0.1,0.1-0.2,0.2-0.2,0.3v3.1
		c0,0.1,0.1,0.2,0.2,0.3l2.7,1.6c0.1,0.1,0.2,0.1,0.3,0l2.7-1.6c0.1-0.1,0.2-0.2,0.2-0.3v-3.1c0-0.1-0.1-0.2-0.2-0.3l-2.7-1.6
		C682.4,901.6,682.4,901.6,682.3,901.6z"/>
</g>
</svg>
