<?xml version="1.0" encoding="utf-8"?>
<!-- Generator: Adobe Illustrator 21.0.0, SVG Export Plug-In . SVG Version: 6.00 Build 0)  -->
<svg version="1.1" id="Слой_1" xmlns="http://www.w3.org/2000/svg" xmlns:xlink="http://www.w3.org/1999/xlink" x="0px" y="0px"
	 viewBox="0 0 640 480" style="enable-background:new 0 0 640 480;" xml:space="preserve">
<g id="Слой_1_1_">
</g>
<g id="Слой_3">
	<g>
		<g>
			<path d="M500.8,98.6c-32.7,0-70.9,26.4-70.9,59.7c0,4.1,5.4,5.8,7.7,2.2c0-0.1,4.7-7.4,13.6-14.5c11.9-9.5,25.3-14.3,39.9-14.3
				c16.5,0,27.6,8.7,29.3,24.9H480c0.8-5.1,3.1-10.4,6.7-15.3c2.2-3.1-0.4-7.2-4.2-6.5c-21.7,4.3-34.4,18.9-38.1,39.2
				c-5,27.9,14,58.7,51.3,65.4c16.1,2.9,32.7,1,48.3-3.4c1.8-0.6,3-2.1,3-4v-32.5c0-2.8-2.8-4.8-5.4-4c-24.5,8-42.3,8.8-52.5,2.4
				c-4.5-2.8-7.5-7-9.3-12.6h76.6c2.3,0,4.2-1.9,4.2-4.1v-15.1C560.5,128.7,533.3,98.6,500.8,98.6z M474.6,176.8
				c-2.6,0-4.5,2.2-4.1,4.8c1.7,10.7,6.4,18.4,14.2,23.3c14.9,9.1,37.2,5,54,0.1v23.7c-15.1,3.9-29.1,4.7-41.5,2.4
				c-32.7-6-48.7-32.4-44.5-55.7c2.4-13.5,9.4-24.2,22-29.6c-2.1,5-3.2,10.2-3.1,15c0,2.2,1.9,4.1,4.2,4.1H525
				c2.3,0,4.2-1.9,4.2-4.1c0-22.7-14.6-37.3-37.7-37.3c-18.4,0-35.7,7-49.8,20.2c9.1-21,36-36.5,59.4-36.5
				c28.7,0,51.5,27.4,51.5,58.8v11h-77.9V176.8z"/>
		</g>
	</g>
	<g id="XMLID_21_">
		<path id="XMLID_22_" d="M401.8,144.3c-0.6-0.1-1.1,0.2-1.3,0.7l-1.7,3.8c-0.7-4.9-1.9-13-3.4-18.2c-2.4-8.1-7.5-13.3-7.8-13.5
			c-0.4-0.4-1-0.5-1.5-0.2s-0.7,0.8-0.7,1.4l1.3,5.9c-3.2-3.3-8.4-8.1-13.4-10.5c-1.2-0.6-2.4-1.1-3.5-1.6
			c-11.1-9.8-25.2-15.1-39.8-15.1c-20.6,0-39.5,10.3-50.6,27.8c-1-0.8-2.5-2.3-3.3-4.5c-1.5-3.7-2.3-8-2.3-8
			c-0.1-0.5-0.4-0.8-0.8-0.9c-0.5-0.2-0.9,0-1.2,0.3c-9.2,8.8-8.3,22.6-7.9,25.6c-1.1,1.2-4.4,4.8-7.6,10c-4,6.5-5.3,17.7-5.3,18.2
			c-0.1,0.6,0.3,1,0.7,1.3c0.5,0.2,1,0.1,1.4-0.3l2.7-2.9c-0.3,1.1-0.6,2.3-0.8,3.7c-1.2,5.9-0.8,15.3-0.8,15.7c0,0.6,0.5,1,1,1.2
			c0.6,0.1,1.1-0.2,1.4-0.7l1.6-3.3c1.2,8.2,5.7,25.5,22.8,41.5c12.7,11.9,30.4,18.7,48.5,18.7l0,0c17.6,0,34.2-6.3,48-18.2
			c16.3-14.1,22.5-34.2,24.7-48.6c2.4-15.5,1-27.6,0.9-28C402.7,144.8,402.4,144.4,401.8,144.3z M368.7,148.8c0,0,1.6,2.1,2,7.6
			c0.3,4.1-0.6,10.6-1.2,14.1l-3.2-3.7c-0.4-0.4-0.9-0.5-1.4-0.4c-0.4,0.2-0.8,0.7-0.7,1.2c0,0.1,1.1,9.3-0.7,17.4
			c-0.9,3.7-2.2,6.5-3.4,8.3l0.4-6.1c0-0.6-0.4-1.1-0.9-1.2c-0.5-0.2-1.2,0.2-1.4,0.6c-0.1,0.1-5.6,12-20.7,16.7
			c-2.1,0.6-4.4,1-6.6,1c-8.1,0-15.4-4.1-19.6-7c0.4,0,0.7,0,1.1,0c6,0,10.5-2.6,14.2-4.6c1-0.5,1.9-1.1,2.8-1.5
			c5.3-2.7,7.7-2.8,9.6-2.8c1,0,1.8-0.6,2-1.5c0.6-2.3-2.1-6.4-5.6-8.3c-1.7-0.9-3.5-1.3-5.7-1.3c-3.5,0-7.8,1.1-14.1,2.8
			c-1.2,0.3-2.2,0.4-3.4,0.4c-3.8,0-6.3-1.9-7.7-3.4c-2-2-3-4.8-2.8-7.1c0.1-1.1,0.5-2.1,3-2.1c2.2,0,4.7,0.9,4.8,1
			c0.2,0.1,0.3,0.1,0.4,0.1l0,0c0.6,0,1.2-0.5,1.2-1.2c0-0.1,0-0.1,0-0.2l-0.4-10.5c1.2-0.8,4.1-2.7,6.9-4.6
			c6.8-4.9,7.7-6.8,6.9-8.2c-1-2-3.5-2.2-6.4-2.6c-1.7-0.2-3.6-0.4-5.3-1c-3.6-1.2-5.9-4.3-6.4-5c-0.1-0.6-0.4-2.8,0.7-4.5
			c1.2-2,5.1-5.1,6.4-6.1c0.4-0.3,0.6-0.8,0.4-1.2c-0.1-0.4-0.5-0.8-1.1-0.9c-0.1,0-3.7-0.4-9.5,1.6c-4.7,1.6-8.5,4.2-9.7,5.2
			c-0.5-0.1-1.5-0.3-3-0.4c9.1-10.3,22.1-16.2,35.9-16.2c10.1,0,19.7,3.1,27.8,8.9l-8.1,1.3c-0.5,0.1-1,0.5-1,1.1
			c0,0.5,0.3,1.1,0.8,1.2c0.1,0,10.9,3.4,18.9,9.6c1.8,1.4,3.4,3.2,4.8,5.3c1.3,2.8,2.4,5.8,3.1,8.8l-2.7-2.1
			c-0.4-0.4-1.2-0.4-1.6,0.1C368.4,147.6,368.4,148.2,368.7,148.8z"/>
	</g>
</g>
<g transform="translate(1 1)">
	<g>
		<g>
			<path d="M238.9,354.7c-2,0.5-4.9,1.5-8.6,1.5c-6.6,0-13-1.7-18.4-5.4c-5.4-3.7-9.6-8.3-12.5-14.2l-31.3-54.9l-2.2,3.7
				c-6.1,11-9.3,23.3-9.3,36.7c0,18.4,6.1,34.5,17.9,48.2c11.8,13.5,26.9,21.8,44.6,24.5l1.7,0.2l24.7-42.4L238.9,354.7z
				 M218.1,389.4c-15.7-2.7-29.1-10.3-39.9-22.5c-11-12.7-16.7-27.7-16.7-44.8c0-11,2.2-21.3,6.6-30.4l26.4,47
				c3.2,6.4,7.8,11.8,14.2,15.9c6.4,3.9,13.5,6.1,21.1,6.1c2,0,3.7-0.2,5.1-0.5L218.1,389.4z"/>
			<path d="M197,313c1.7-7.3,5.9-13.5,12.2-18.4c5.9-4.7,12.7-6.9,20.8-6.9h65.1l-2.2-3.7c-6.1-10.5-14.7-18.9-26.4-25.7
				c-11-6.6-23.3-9.8-36.5-9.8c-11.3,0-22.3,2.4-32.1,7.3c-10.5,5.1-19.6,12.5-26,21.1l-1,1.2l24.5,40.2L197,313z M176.9,278.7
				c5.9-7.6,13.7-13.7,23.3-18.4c9.1-4.7,19.1-6.9,29.9-6.9c12.2,0,23.8,3.2,33.8,9.3c9.8,5.6,16.9,12.2,22.5,20.3h-56.6
				c-9.1,0-16.9,2.4-23.8,7.8c-5.6,4.4-9.8,9.6-12.2,15.7L176.9,278.7z"/>
			<path d="M298.2,294.4l-0.7-1.5h-48.7l4.2,4.2c7.3,7.3,11.3,16.2,11.3,25c0,7.1-2,13.7-6.1,19.6l-31.3,53.9h4.2
				c20.1-0.2,37.2-7.6,51.4-21.8c14.2-14.2,21.3-31.6,21.3-51.7C303.6,314.7,302.6,304.2,298.2,294.4z M278.8,370.3
				c-12.2,12.2-26.7,18.9-43.6,20.1l26.7-46c4.7-6.9,6.9-14.2,6.9-22.3c0-8.6-2.9-16.9-8.8-24.2h34.3c3.7,8.6,4.4,17.9,4.4,24.2
				C298.7,340.7,292,356.9,278.8,370.3z"/>
			<path d="M200.7,322.1c0,15.9,13.5,29.4,29.4,29.4s29.4-13.5,29.4-29.4c0-15.9-13.5-29.4-29.4-29.4S200.7,306.2,200.7,322.1z
				 M230.1,297.6c13.2,0,24.5,11.3,24.5,24.5c0,13.2-11.3,24.5-24.5,24.5c-13.2,0-24.5-11.3-24.5-24.5
				C205.6,308.9,216.9,297.6,230.1,297.6z"/>
		</g>
	</g>
</g>
<g transform="translate(1 1)">
	<g>
		<g>
			<path d="M474.5,265.2c-13-13.2-30-20-50-20c-20.2,0-37.2,6.8-50,20.3c-12.8,13.2-19.2,31-19.2,52.5c0,19.5,6.6,37.1,19.4,51.5
				c13,14.9,29.8,22.2,49.7,22.2c19.9,0,36.9-7.3,50-22.2c13-14.7,19.7-32,19.7-51.8C494.2,296.2,487.5,278.6,474.5,265.2z
				 M470.8,366.3c-12.1,13.7-27.6,20.5-46.3,20.5c-18.5,0-34-6.8-46-20.5s-18.2-30-18.2-48.4c0-20.3,6.2-36.9,18-49.3
				c11.8-12.2,27.6-18.6,46.3-18.6s34.2,6.4,46.5,18.8c12.1,12.2,18.2,28.8,18.2,49.1C489.3,336.2,483.1,352.6,470.8,366.3z"/>
			<path d="M447.2,279.1c-1.7-5.9-4.7-10.5-8.4-13.7c-3.9-3.4-8.9-5.1-14.5-5.1s-10.6,1.7-14.3,4.9c-3.7,3.2-6.4,7.8-8.1,13.7
				c-1.5,5.6-2.7,11.5-3.2,17.1c-0.5,5.6-0.7,12.5-0.7,20.5c0,4.9,0,9.3,0.2,12.7c0.2,3.4,0.5,7.6,1,12.5c0.2,4.9,1.2,9.3,2.2,12.7
				c1.2,3.4,2.7,6.8,4.4,10.3c2,3.7,4.4,6.4,7.6,8.3c3.2,2,6.9,2.9,11.1,2.9c3.9,0,7.9-0.7,10.6-2.9c3.2-2,5.9-4.6,7.9-8.3
				c1.7-3.4,3.2-6.8,4.4-10.3s2.2-7.6,2.7-12.7c0.5-4.9,1-9,1-12.7c0.2-3.4,0.2-7.6,0.2-12.5c0-7.8-0.2-14.7-0.7-20.3
				C450.1,290.6,448.9,284.7,447.2,279.1z M446.7,328.7c0,3.4-0.5,7.8-1,12.5c-0.5,4.6-1.5,8.5-2.5,11.7c-1.2,3.2-2.5,6.4-4.2,9.5
				c-1.5,2.9-3.4,4.9-5.9,6.4c-2.5,1.5-5.4,2.2-8.6,2.2c-3.2,0-5.9-0.7-8.4-2.2c-2.5-1.5-4.4-3.4-5.9-6.4c-1.7-2.9-3-6.1-3.9-9.3
				c-1-3.2-1.7-7.1-2.2-11.7c-0.5-4.9-0.7-9-1-12.5s-0.2-7.6-0.2-12.5c0-7.8,0.2-14.7,0.7-20c0.7-5.4,1.7-10.7,3.2-16.1
				c1.5-5.1,3.7-9,6.6-11.5c2.7-2.4,6.4-3.7,11.1-3.7c4.4,0,8.1,1.2,11.6,3.4c3,2.7,5.4,6.6,6.9,11.5c1.5,5.4,2.7,10.7,3.2,16.4
				c0.5,5.6,0.7,12.2,0.7,19.8C446.9,321.1,446.7,325.2,446.7,328.7z"/>
		</g>
	</g>
</g>
<g>
	<path d="M157.6,100c-3.5,0-7,0.3-10.4,0.8c0-0.1-0.1-0.2-0.1-0.3c1.9-1.5,2.9-3.5,2.4-5.5c-0.5-2.6-3.3-4.3-6.8-4.3
		c-0.8,0-1.5,0.1-2.3,0.2c-4.4,0.9-7.3,4.2-6.7,7.4c0.4,2,2.1,3.4,4.4,4c0,0.1,0,0.3,0,0.4c-29.4,8.4-50.9,35.5-50.9,67.6
		c0,38.8,31.5,70.3,70.3,70.3c38.8,0,70.3-31.5,70.3-70.3C227.9,131.5,196.4,100,157.6,100z M136.1,97.8c-0.4-1.9,1.8-4,4.9-4.6
		c0.6-0.1,1.2-0.2,1.8-0.2c2.3,0,4.2,1,4.5,2.4c0.2,1.1-0.4,2.3-1.7,3.2c-1-0.7-2.3-1-3.7-0.8c-1.3,0.3-2.4,1.1-3,2.2
		C137.4,99.7,136.3,98.9,136.1,97.8z M195.3,208c-6.4,6.4-14.2,11-22.7,13.5l-6.2-10.1l-1.6,11.7c-2.4,0.3-4.7,0.5-7.2,0.5
		c-14.2,0-27.6-5.5-37.7-15.6c-6.4-6.4-11-14.2-13.5-22.7l10.1-6.2l-11.7-1.6c-0.3-2.4-0.5-4.7-0.5-7.2c0-14.2,5.5-27.6,15.6-37.7
		c6.4-6.4,14.2-11,22.7-13.5l6.2,10.1l1.6-11.7c2.4-0.3,4.7-0.5,7.2-0.5c14.2,0,27.6,5.5,37.7,15.6c6.4,6.4,11,14.2,13.5,22.7
		l-10.1,6.2l11.7,1.6c0.3,2.4,0.5,4.7,0.5,7.2C210.9,184.6,205.4,197.9,195.3,208z M194.1,133.9l-28.8,21.9
		c-2.1-1.1-4.5-1.8-6.9-1.9l-7.5-15.7l-0.4,17.4c-1.9,1-3.7,2.3-5.1,3.9l-9.2-3.3l6.8,7.1c-0.9,2-1.4,4.1-1.5,6.3l-15.7,7.5
		l17.4,0.4c0.1,0.1,0.1,0.2,0.2,0.3l-21.9,28.8l28.8-21.9c2.1,1.1,4.5,1.8,6.9,1.9l7.5,15.7l0.4-17.4c1.9-1,3.7-2.3,5.1-3.9l9.2,3.3
		l-6.8-7.1c0.9-2,1.4-4.1,1.5-6.3l15.7-7.5l-17.4-0.4c-0.1-0.1-0.1-0.2-0.2-0.3L194.1,133.9z M157.6,155.7v0.5V155.7L157.6,155.7z
		 M154.7,156.6c1-0.2,2-0.3,2.9-0.3c0.6,0,1.2,0,1.8,0.1l0,0l0,0c1.3,0.2,2.5,0.5,3.7,1l-10.5,8l-8,10.5c-0.3-0.8-0.6-1.7-0.8-2.6
		C142.3,165.6,147.1,158.2,154.7,156.6z M165,182.3L165,182.3L165,182.3c-1.3,0.8-2.8,1.4-4.4,1.8c-1,0.2-2,0.3-2.9,0.3
		c-0.6,0-1.2,0-1.8-0.1l0,0l0,0c-1.3-0.2-2.5-0.5-3.7-1l10.5-8l8-10.5c0.3,0.8,0.6,1.7,0.8,2.6C172.6,173.4,169.9,179.3,165,182.3z"
		/>
</g>
</svg>
