<svg xmlns="http://www.w3.org/2000/svg" width="1920" height="1080"><path d="M393,-262L769,-206L866,-202Z" fill="#bee5c5" stroke="#bee5c5" stroke-width="1.51"/><path d="M393,-262L866,-202L1004,-203Z" fill="#b9e1c6" stroke="#b9e1c6" stroke-width="1.51"/><path d="M393,-262L1004,-203L1464,-230Z" fill="#abd9ca" stroke="#abd9ca" stroke-width="1.51"/><path d="M1328,1251L994,1325L1515,1241Z" fill="#225997" stroke="#225997" stroke-width="1.51"/><path d="M1610,1237L1515,1241L1748,1250Z" fill="#203f8f" stroke="#203f8f" stroke-width="1.51"/><path d="M1515,1241L994,1325L1748,1250Z" fill="#204e92" stroke="#204e92" stroke-width="1.51"/><path d="M1464,-230L1645,-225L1809,-256Z" fill="#9da3bb" stroke="#9da3bb" stroke-width="1.51"/><path d="M393,-262L1464,-230L1809,-256Z" fill="#a4c9cb" stroke="#a4c9cb" stroke-width="1.51"/><path d="M393,-262L1809,-256L1886,-257Z" fill="#a1bcc7" stroke="#a1bcc7" stroke-width="1.51"/><path d="M1896,420L1928,586L2061,363Z" fill="#4773a0" stroke="#4773a0" stroke-width="1.51"/><path d="M2056,140L2043,230L2061,363Z" fill="#637993" stroke="#637993" stroke-width="1.51"/><path d="M1924,1237L1748,1250L2082,1265Z" fill="#1c2c80" stroke="#1c2c80" stroke-width="1.51"/><path d="M1748,1250L994,1325L2082,1265Z" fill="#1d3e8a" stroke="#1d3e8a" stroke-width="1.51"/><path d="M1957,999L2035,1021L2082,843Z" fill="#1d428d" stroke="#1d428d" stroke-width="1.51"/><path d="M2035,1021L2077,1145L2082,843Z" fill="#1c3b86" stroke="#1c3b86" stroke-width="1.51"/><path d="M2061,363L1928,586L2092,588Z" fill="#3a6d9a" stroke="#3a6d9a" stroke-width="1.51"/><path d="M2082,843L2077,1145L2117,652Z" fill="#1c488a" stroke="#1c488a" stroke-width="1.51"/><path d="M2077,1145L2082,1265L2117,652Z" fill="#1a3882" stroke="#1a3882" stroke-width="1.51"/><path d="M1964,646L2082,843L2117,652Z" fill="#245c96" stroke="#245c96" stroke-width="1.51"/><path d="M2061,363L2092,588L2117,652Z" fill="#326994" stroke="#326994" stroke-width="1.51"/><path d="M2056,140L2061,363L2117,652Z" fill="#4a7093" stroke="#4a7093" stroke-width="1.51"/><path d="M1886,-257L2052,-58L2118,-244Z" fill="#908a9f" stroke="#908a9f" stroke-width="1.51"/><path d="M2056,140L2117,652L2118,-244Z" fill="#6b7b8e" stroke="#6b7b8e" stroke-width="1.51"/><path d="M2052,-58L2056,140L2118,-244Z" fill="#86848f" stroke="#86848f" stroke-width="1.51"/><path d="M2092,588L1964,646L2117,652Z" fill="#2c6396" stroke="#2c6396" stroke-width="1.51"/><path d="M1886,-257L1909,-51L2052,-58Z" fill="#938ca0" stroke="#938ca0" stroke-width="1.51"/><path d="M2052,-58L1909,-51L2056,140Z" fill="#858696" stroke="#858696" stroke-width="1.51"/><path d="M1909,-51L1913,141L2056,140Z" fill="#82869c" stroke="#82869c" stroke-width="1.51"/><path d="M2043,230L1959,250L2061,363Z" fill="#5e7997" stroke="#5e7997" stroke-width="1.51"/><path d="M2077,1145L1924,1237L2082,1265Z" fill="#192a7a" stroke="#192a7a" stroke-width="1.51"/><path d="M1964,646L1897,870L2082,843Z" fill="#24589b" stroke="#24589b" stroke-width="1.51"/><path d="M1897,870L1957,999L2082,843Z" fill="#224a95" stroke="#224a95" stroke-width="1.51"/><path d="M1928,586L1964,646L2092,588Z" fill="#32679d" stroke="#32679d" stroke-width="1.51"/><path d="M2035,1021L1886,1120L2077,1145Z" fill="#1f3588" stroke="#1f3588" stroke-width="1.51"/><path d="M1886,1120L1924,1237L2077,1145Z" fill="#202f88" stroke="#202f88" stroke-width="1.51"/><path d="M1957,999L1886,1120L2035,1021Z" fill="#213b8f" stroke="#213b8f" stroke-width="1.51"/><path d="M1959,250L2043,230L2056,140Z" fill="#6c7d96" stroke="#6c7d96" stroke-width="1.51"/><path d="M1913,141L1959,250L2056,140Z" fill="#74819b" stroke="#74819b" stroke-width="1.51"/><path d="M1959,250L1896,420L2061,363Z" fill="#55789d" stroke="#55789d" stroke-width="1.51"/><path d="M1909,-51L1773,-14L1913,141Z" fill="#8d8ca6" stroke="#8d8ca6" stroke-width="1.51"/><path d="M1773,-14L1752,47L1913,141Z" fill="#8a8fa8" stroke="#8a8fa8" stroke-width="1.51"/><path d="M1913,141L1825,288L1959,250Z" fill="#7082a4" stroke="#7082a4" stroke-width="1.51"/><path d="M1825,288L1896,420L1959,250Z" fill="#5f7da5" stroke="#5f7da5" stroke-width="1.51"/><path d="M1928,586L1744,664L1964,646Z" fill="#366ba9" stroke="#366ba9" stroke-width="1.51"/><path d="M1744,664L1897,870L1964,646Z" fill="#2d63a9" stroke="#2d63a9" stroke-width="1.51"/><path d="M1886,-257L1809,-256L1909,-51Z" fill="#9a91af" stroke="#9a91af" stroke-width="1.51"/><path d="M1896,420L1830,421L1928,586Z" fill="#4876a9" stroke="#4876a9" stroke-width="1.51"/><path d="M1897,870L1739,1041L1957,999Z" fill="#26479d" stroke="#26479d" stroke-width="1.51"/><path d="M1779,1102L1886,1120L1957,999Z" fill="#253d96" stroke="#253d96" stroke-width="1.51"/><path d="M1739,1041L1779,1102L1957,999Z" fill="#26429b" stroke="#26429b" stroke-width="1.51"/><path d="M1004,-203L1176,-179L1464,-230Z" fill="#a2c8c6" stroke="#a2c8c6" stroke-width="1.51"/><path d="M1825,288L1830,421L1896,420Z" fill="#587caa" stroke="#587caa" stroke-width="1.51"/><path d="M1744,664L1736,852L1897,870Z" fill="#2a61aa" stroke="#2a61aa" stroke-width="1.51"/><path d="M1809,-256L1773,-14L1909,-51Z" fill="#9892a9" stroke="#9892a9" stroke-width="1.51"/><path d="M1886,1120L1748,1250L1924,1237Z" fill="#22328d" stroke="#22328d" stroke-width="1.51"/><path d="M1830,421L1752,553L1928,586Z" fill="#4276ad" stroke="#4276ad" stroke-width="1.51"/><path d="M1752,553L1744,664L1928,586Z" fill="#3972ad" stroke="#3972ad" stroke-width="1.51"/><path d="M1736,852L1739,1041L1897,870Z" fill="#2752a3" stroke="#2752a3" stroke-width="1.51"/><path d="M1779,1102L1748,1250L1886,1120Z" fill="#263896" stroke="#263896" stroke-width="1.51"/><path d="M1752,47L1825,288L1913,141Z" fill="#7e8aa8" stroke="#7e8aa8" stroke-width="1.51"/><path d="M1659,-89L1773,-14L1809,-256Z" fill="#9999ad" stroke="#9999ad" stroke-width="1.51"/><path d="M1681,1192L1748,1250L1779,1102Z" fill="#243c94" stroke="#243c94" stroke-width="1.51"/><path d="M1645,-225L1659,-89L1809,-256Z" fill="#9b9eb5" stroke="#9b9eb5" stroke-width="1.51"/><path d="M1752,47L1651,75L1825,288Z" fill="#8292aa" stroke="#8292aa" stroke-width="1.51"/><path d="M1651,75L1589,249L1825,288Z" fill="#7692ad" stroke="#7692ad" stroke-width="1.51"/><path d="M1676,514L1752,553L1830,421Z" fill="#457daf" stroke="#457daf" stroke-width="1.51"/><path d="M1640,415L1676,514L1830,421Z" fill="#4c82b0" stroke="#4c82b0" stroke-width="1.51"/><path d="M1825,288L1640,415L1830,421Z" fill="#5783ad" stroke="#5783ad" stroke-width="1.51"/><path d="M1589,249L1640,415L1825,288Z" fill="#608cae" stroke="#608cae" stroke-width="1.51"/><path d="M909,1307L421,1334L994,1325Z" fill="#456e91" stroke="#456e91" stroke-width="1.51"/><path d="M1736,852L1641,1012L1739,1041Z" fill="#2553a2" stroke="#2553a2" stroke-width="1.51"/><path d="M1631,880L1641,1012L1736,852Z" fill="#255ba7" stroke="#255ba7" stroke-width="1.51"/><path d="M1619,654L1736,852L1744,664Z" fill="#2b70b0" stroke="#2b70b0" stroke-width="1.51"/><path d="M1739,1041L1681,1192L1779,1102Z" fill="#26429b" stroke="#26429b" stroke-width="1.51"/><path d="M1619,654L1631,880L1736,852Z" fill="#276aae" stroke="#276aae" stroke-width="1.51"/><path d="M1659,-89L1752,47L1773,-14Z" fill="#9298ab" stroke="#9298ab" stroke-width="1.51"/><path d="M1641,1012L1681,1192L1739,1041Z" fill="#26489d" stroke="#26489d" stroke-width="1.51"/><path d="M1619,654L1744,664L1752,553Z" fill="#3578b0" stroke="#3578b0" stroke-width="1.51"/><path d="M1676,514L1619,654L1752,553Z" fill="#397db2" stroke="#397db2" stroke-width="1.51"/><path d="M1659,-89L1651,75L1752,47Z" fill="#909aac" stroke="#909aac" stroke-width="1.51"/><path d="M1681,1192L1610,1237L1748,1250Z" fill="#223c90" stroke="#223c90" stroke-width="1.51"/><path d="M1181,1249L994,1325L1328,1251Z" fill="#296098" stroke="#296098" stroke-width="1.51"/><path d="M1619,654L1530,853L1631,880Z" fill="#256fb0" stroke="#256fb0" stroke-width="1.51"/><path d="M1515,193L1589,249L1651,75Z" fill="#7c9cb0" stroke="#7c9cb0" stroke-width="1.51"/><path d="M1466,-82L1651,75L1659,-89Z" fill="#94a3af" stroke="#94a3af" stroke-width="1.51"/><path d="M1455,596L1619,654L1676,514Z" fill="#3483b5" stroke="#3483b5" stroke-width="1.51"/><path d="M1641,1012L1534,1139L1681,1192Z" fill="#264a9e" stroke="#264a9e" stroke-width="1.51"/><path d="M1534,1139L1610,1237L1681,1192Z" fill="#244498" stroke="#244498" stroke-width="1.51"/><path d="M1498,672L1530,853L1619,654Z" fill="#257ab5" stroke="#257ab5" stroke-width="1.51"/><path d="M1486,440L1455,596L1676,514Z" fill="#3c8db7" stroke="#3c8db7" stroke-width="1.51"/><path d="M1640,415L1486,440L1676,514Z" fill="#498ab3" stroke="#498ab3" stroke-width="1.51"/><path d="M1589,249L1486,440L1640,415Z" fill="#5691b3" stroke="#5691b3" stroke-width="1.51"/><path d="M1631,880L1502,967L1641,1012Z" fill="#235ca7" stroke="#235ca7" stroke-width="1.51"/><path d="M1464,-230L1466,-82L1645,-225Z" fill="#9cacba" stroke="#9cacba" stroke-width="1.51"/><path d="M1485,116L1515,193L1651,75Z" fill="#84a1b1" stroke="#84a1b1" stroke-width="1.51"/><path d="M1466,-82L1485,116L1651,75Z" fill="#8da6b1" stroke="#8da6b1" stroke-width="1.51"/><path d="M1645,-225L1466,-82L1659,-89Z" fill="#9aa6b3" stroke="#9aa6b3" stroke-width="1.51"/><path d="M1502,967L1534,1139L1641,1012Z" fill="#2555a4" stroke="#2555a4" stroke-width="1.51"/><path d="M1455,596L1498,672L1619,654Z" fill="#2f84b7" stroke="#2f84b7" stroke-width="1.51"/><path d="M1530,853L1502,967L1631,880Z" fill="#2365ab" stroke="#2365ab" stroke-width="1.51"/><path d="M1534,1139L1515,1241L1610,1237Z" fill="#224797" stroke="#224797" stroke-width="1.51"/><path d="M1387,398L1486,440L1515,193Z" fill="#5a9cb6" stroke="#5a9cb6" stroke-width="1.51"/><path d="M1515,193L1486,440L1589,249Z" fill="#6398b3" stroke="#6398b3" stroke-width="1.51"/><path d="M1176,-179L1384,-175L1464,-230Z" fill="#9fbdc2" stroke="#9fbdc2" stroke-width="1.51"/><path d="M1352,645L1332,889L1498,672Z" fill="#2286bb" stroke="#2286bb" stroke-width="1.51"/><path d="M1284,226L1387,398L1515,193Z" fill="#69a6b8" stroke="#69a6b8" stroke-width="1.51"/><path d="M1332,889L1502,967L1530,853Z" fill="#236daf" stroke="#236daf" stroke-width="1.51"/><path d="M1498,672L1332,889L1530,853Z" fill="#2379b5" stroke="#2379b5" stroke-width="1.51"/><path d="M1362,1017L1294,1162L1534,1139Z" fill="#295ca7" stroke="#295ca7" stroke-width="1.51"/><path d="M1328,1251L1515,1241L1534,1139Z" fill="#244e9a" stroke="#244e9a" stroke-width="1.51"/><path d="M1294,1162L1328,1251L1534,1139Z" fill="#2856a1" stroke="#2856a1" stroke-width="1.51"/><path d="M1502,967L1362,1017L1534,1139Z" fill="#265da8" stroke="#265da8" stroke-width="1.51"/><path d="M1464,-230L1384,-175L1466,-82Z" fill="#9db3bb" stroke="#9db3bb" stroke-width="1.51"/><path d="M1466,-82L1299,130L1485,116Z" fill="#8db0b5" stroke="#8db0b5" stroke-width="1.51"/><path d="M1362,543L1455,596L1486,440Z" fill="#3994bb" stroke="#3994bb" stroke-width="1.51"/><path d="M1485,116L1299,130L1515,193Z" fill="#82aab5" stroke="#82aab5" stroke-width="1.51"/><path d="M1299,130L1284,226L1515,193Z" fill="#7baeb8" stroke="#7baeb8" stroke-width="1.51"/><path d="M1350,-112L1299,130L1466,-82Z" fill="#96b7b7" stroke="#96b7b7" stroke-width="1.51"/><path d="M1332,889L1362,1017L1502,967Z" fill="#236baf" stroke="#236baf" stroke-width="1.51"/><path d="M1455,596L1352,645L1498,672Z" fill="#2e8bba" stroke="#2e8bba" stroke-width="1.51"/><path d="M1387,398L1362,543L1486,440Z" fill="#469abb" stroke="#469abb" stroke-width="1.51"/><path d="M1384,-175L1350,-112L1466,-82Z" fill="#9cb7ba" stroke="#9cb7ba" stroke-width="1.51"/><path d="M1222,736L1332,889L1352,645Z" fill="#1f8cbe" stroke="#1f8cbe" stroke-width="1.51"/><path d="M1362,543L1352,645L1455,596Z" fill="#3193bd" stroke="#3193bd" stroke-width="1.51"/><path d="M1193,-46L1299,130L1350,-112Z" fill="#95beba" stroke="#95beba" stroke-width="1.51"/><path d="M1284,226L1187,283L1387,398Z" fill="#62aebd" stroke="#62aebd" stroke-width="1.51"/><path d="M1187,283L1219,439L1387,398Z" fill="#54acbf" stroke="#54acbf" stroke-width="1.51"/><path d="M1219,439L1362,543L1387,398Z" fill="#46a2be" stroke="#46a2be" stroke-width="1.51"/><path d="M1216,1094L1294,1162L1362,1017Z" fill="#2a67ad" stroke="#2a67ad" stroke-width="1.51"/><path d="M1176,-179L1350,-112L1384,-175Z" fill="#9fc0c0" stroke="#9fc0c0" stroke-width="1.51"/><path d="M1332,889L1190,989L1362,1017Z" fill="#2473b2" stroke="#2473b2" stroke-width="1.51"/><path d="M1190,989L1216,1094L1362,1017Z" fill="#276fb0" stroke="#276fb0" stroke-width="1.51"/><path d="M1143,484L1352,645L1362,543Z" fill="#32a0c1" stroke="#32a0c1" stroke-width="1.51"/><path d="M1219,439L1143,484L1362,543Z" fill="#3fa7c1" stroke="#3fa7c1" stroke-width="1.51"/><path d="M1143,484L1222,736L1352,645Z" fill="#2d9dc2" stroke="#2d9dc2" stroke-width="1.51"/><path d="M1176,-179L1193,-46L1350,-112Z" fill="#9ec4be" stroke="#9ec4be" stroke-width="1.51"/><path d="M1143,484L1077,562L1222,736Z" fill="#34a5c3" stroke="#34a5c3" stroke-width="1.51"/><path d="M1222,736L1133,823L1332,889Z" fill="#238abc" stroke="#238abc" stroke-width="1.51"/><path d="M1133,823L1190,989L1332,889Z" fill="#2680b8" stroke="#2680b8" stroke-width="1.51"/><path d="M1193,-46L1163,142L1299,130Z" fill="#8ec0bb" stroke="#8ec0bb" stroke-width="1.51"/><path d="M1294,1162L1181,1249L1328,1251Z" fill="#275ea0" stroke="#275ea0" stroke-width="1.51"/><path d="M1163,142L1284,226L1299,130Z" fill="#80babc" stroke="#80babc" stroke-width="1.51"/><path d="M1216,1094L1181,1249L1294,1162Z" fill="#2d64a9" stroke="#2d64a9" stroke-width="1.51"/><path d="M1163,142L1187,283L1284,226Z" fill="#77b9bd" stroke="#77b9bd" stroke-width="1.51"/><path d="M6,1305L-177,1341L421,1334Z" fill="#85848c" stroke="#85848c" stroke-width="1.51"/><path d="M614,1266L421,1334L909,1307Z" fill="#537493" stroke="#537493" stroke-width="1.51"/><path d="M1133,823L1054,950L1190,989Z" fill="#2d83b7" stroke="#2d83b7" stroke-width="1.51"/><path d="M1004,74L1163,142L1193,-46Z" fill="#93c7bc" stroke="#93c7bc" stroke-width="1.51"/><path d="M1045,1138L1181,1249L1216,1094Z" fill="#3469ab" stroke="#3469ab" stroke-width="1.51"/><path d="M1187,283L1054,335L1219,439Z" fill="#5cb4bf" stroke="#5cb4bf" stroke-width="1.51"/><path d="M1054,335L1143,484L1219,439Z" fill="#51b1c1" stroke="#51b1c1" stroke-width="1.51"/><path d="M1013,676L1133,823L1222,736Z" fill="#2899c1" stroke="#2899c1" stroke-width="1.51"/><path d="M1077,562L1013,676L1222,736Z" fill="#32a2c2" stroke="#32a2c2" stroke-width="1.51"/><path d="M1190,989L1045,1138L1216,1094Z" fill="#3171af" stroke="#3171af" stroke-width="1.51"/><path d="M1068,285L1054,335L1187,283Z" fill="#68babe" stroke="#68babe" stroke-width="1.51"/><path d="M1163,142L1068,285L1187,283Z" fill="#75bcbe" stroke="#75bcbe" stroke-width="1.51"/><path d="M1054,950L1045,1138L1190,989Z" fill="#3379b2" stroke="#3379b2" stroke-width="1.51"/><path d="M989,-56L1004,74L1193,-46Z" fill="#9bcdbc" stroke="#9bcdbc" stroke-width="1.51"/><path d="M1176,-179L989,-56L1193,-46Z" fill="#a1ccbc" stroke="#a1ccbc" stroke-width="1.51"/><path d="M1004,-203L989,-56L1176,-179Z" fill="#a5d1c2" stroke="#a5d1c2" stroke-width="1.51"/><path d="M279,1305L6,1305L421,1334Z" fill="#7d818e" stroke="#7d818e" stroke-width="1.51"/><path d="M1045,1138L994,1325L1181,1249Z" fill="#32689f" stroke="#32689f" stroke-width="1.51"/><path d="M1004,74L1068,285L1163,142Z" fill="#85c5bd" stroke="#85c5bd" stroke-width="1.51"/><path d="M1016,839L1054,950L1133,823Z" fill="#308dbb" stroke="#308dbb" stroke-width="1.51"/><path d="M1013,676L1016,839L1133,823Z" fill="#2f99c0" stroke="#2f99c0" stroke-width="1.51"/><path d="M1054,335L1077,562L1143,484Z" fill="#4bb2c2" stroke="#4bb2c2" stroke-width="1.51"/><path d="M1004,74L926,237L1068,285Z" fill="#81c8be" stroke="#81c8be" stroke-width="1.51"/><path d="M1054,335L901,484L1077,562Z" fill="#4eb7c2" stroke="#4eb7c2" stroke-width="1.51"/><path d="M880,1194L994,1325L1045,1138Z" fill="#396ea3" stroke="#396ea3" stroke-width="1.51"/><path d="M900,960L1045,1138L1054,950Z" fill="#3880b3" stroke="#3880b3" stroke-width="1.51"/><path d="M872,440L901,484L1054,335Z" fill="#59bdc1" stroke="#59bdc1" stroke-width="1.51"/><path d="M901,484L1013,676L1077,562Z" fill="#3eb0c3" stroke="#3eb0c3" stroke-width="1.51"/><path d="M926,237L1054,335L1068,285Z" fill="#6ec1bf" stroke="#6ec1bf" stroke-width="1.51"/><path d="M880,1194L909,1307L994,1325Z" fill="#396c9a" stroke="#396c9a" stroke-width="1.51"/><path d="M901,484L849,642L1013,676Z" fill="#43b2c3" stroke="#43b2c3" stroke-width="1.51"/><path d="M1013,676L907,848L1016,839Z" fill="#339dc0" stroke="#339dc0" stroke-width="1.51"/><path d="M900,960L880,1194L1045,1138Z" fill="#3f7baf" stroke="#3f7baf" stroke-width="1.51"/><path d="M1016,839L900,960L1054,950Z" fill="#358cb8" stroke="#358cb8" stroke-width="1.51"/><path d="M926,237L872,440L1054,335Z" fill="#65c2c0" stroke="#65c2c0" stroke-width="1.51"/><path d="M868,135L926,237L1004,74Z" fill="#8ecfbd" stroke="#8ecfbd" stroke-width="1.51"/><path d="M905,-96L989,-56L1004,-203Z" fill="#a7d7bf" stroke="#a7d7bf" stroke-width="1.51"/><path d="M907,848L900,960L1016,839Z" fill="#3992ba" stroke="#3992ba" stroke-width="1.51"/><path d="M989,-56L905,-96L1004,74Z" fill="#a0d4bc" stroke="#a0d4bc" stroke-width="1.51"/><path d="M905,-96L868,135L1004,74Z" fill="#9cd4bc" stroke="#9cd4bc" stroke-width="1.51"/><path d="M849,642L907,848L1013,676Z" fill="#3ba7c2" stroke="#3ba7c2" stroke-width="1.51"/><path d="M866,-202L905,-96L1004,-203Z" fill="#abdac3" stroke="#abdac3" stroke-width="1.51"/><path d="M849,642L787,710L907,848Z" fill="#45a9c1" stroke="#45a9c1" stroke-width="1.51"/><path d="M775,-49L868,135L905,-96Z" fill="#a5d8ba" stroke="#a5d8ba" stroke-width="1.51"/><path d="M697,1182L880,1194L900,960Z" fill="#4d7dad" stroke="#4d7dad" stroke-width="1.51"/><path d="M702,935L697,1182L900,960Z" fill="#5288b0" stroke="#5288b0" stroke-width="1.51"/><path d="M759,580L849,642L901,484Z" fill="#50b8c2" stroke="#50b8c2" stroke-width="1.51"/><path d="M787,710L772,784L907,848Z" fill="#48a3be" stroke="#48a3be" stroke-width="1.51"/><path d="M779,1239L614,1266L909,1307Z" fill="#4b7299" stroke="#4b7299" stroke-width="1.51"/><path d="M868,135L739,219L926,237Z" fill="#8bcfbc" stroke="#8bcfbc" stroke-width="1.51"/><path d="M708,371L872,440L926,237Z" fill="#6ec5be" stroke="#6ec5be" stroke-width="1.51"/><path d="M739,219L708,371L926,237Z" fill="#80ccbc" stroke="#80ccbc" stroke-width="1.51"/><path d="M775,-49L711,55L868,135Z" fill="#a5d9b9" stroke="#a5d9b9" stroke-width="1.51"/><path d="M866,-202L775,-49L905,-96Z" fill="#afdbbd" stroke="#afdbbd" stroke-width="1.51"/><path d="M702,935L900,960L907,848Z" fill="#4892b6" stroke="#4892b6" stroke-width="1.51"/><path d="M772,784L702,935L907,848Z" fill="#4d9cb9" stroke="#4d9cb9" stroke-width="1.51"/><path d="M880,1194L779,1239L909,1307Z" fill="#44719e" stroke="#44719e" stroke-width="1.51"/><path d="M769,-206L775,-49L866,-202Z" fill="#b3dec0" stroke="#b3dec0" stroke-width="1.51"/><path d="M872,440L759,580L901,484Z" fill="#57bcc2" stroke="#57bcc2" stroke-width="1.51"/><path d="M697,1182L779,1239L880,1194Z" fill="#4e76a3" stroke="#4e76a3" stroke-width="1.51"/><path d="M393,-262L557,-159L769,-206Z" fill="#c9e9c2" stroke="#c9e9c2" stroke-width="1.51"/><path d="M708,371L759,580L872,440Z" fill="#63c1c0" stroke="#63c1c0" stroke-width="1.51"/><path d="M711,55L739,219L868,135Z" fill="#9cd6b9" stroke="#9cd6b9" stroke-width="1.51"/><path d="M759,580L787,710L849,642Z" fill="#51b2c1" stroke="#51b2c1" stroke-width="1.51"/><path d="M708,371L548,521L759,580Z" fill="#6ac3bf" stroke="#6ac3bf" stroke-width="1.51"/><path d="M557,-159L565,-83L769,-206Z" fill="#c0e5bd" stroke="#c0e5bd" stroke-width="1.51"/><path d="M617,791L702,935L772,784Z" fill="#57a1ba" stroke="#57a1ba" stroke-width="1.51"/><path d="M769,-206L565,-83L775,-49Z" fill="#b8e1ba" stroke="#b8e1ba" stroke-width="1.51"/><path d="M759,580L621,662L787,710Z" fill="#59b5c0" stroke="#59b5c0" stroke-width="1.51"/><path d="M617,791L772,784L787,710Z" fill="#54aabe" stroke="#54aabe" stroke-width="1.51"/><path d="M621,662L617,791L787,710Z" fill="#5bb0be" stroke="#5bb0be" stroke-width="1.51"/><path d="M626,1190L697,1182L702,935Z" fill="#5c83ab" stroke="#5c83ab" stroke-width="1.51"/><path d="M697,1182L614,1266L779,1239Z" fill="#54779e" stroke="#54779e" stroke-width="1.51"/><path d="M547,963L626,1190L702,935Z" fill="#618daf" stroke="#618daf" stroke-width="1.51"/><path d="M565,-83L711,55L775,-49Z" fill="#b3dfb7" stroke="#b3dfb7" stroke-width="1.51"/><path d="M571,341L708,371L739,219Z" fill="#83cebb" stroke="#83cebb" stroke-width="1.51"/><path d="M711,55L544,114L739,219Z" fill="#a4dbb8" stroke="#a4dbb8" stroke-width="1.51"/><path d="M548,521L621,662L759,580Z" fill="#65bebf" stroke="#65bebf" stroke-width="1.51"/><path d="M539,194L571,341L739,219Z" fill="#95d4b9" stroke="#95d4b9" stroke-width="1.51"/><path d="M544,114L539,194L739,219Z" fill="#a3dab8" stroke="#a3dab8" stroke-width="1.51"/><path d="M626,1190L614,1266L697,1182Z" fill="#5b7aa1" stroke="#5b7aa1" stroke-width="1.51"/><path d="M617,791L547,963L702,935Z" fill="#619db5" stroke="#619db5" stroke-width="1.51"/><path d="M571,341L548,521L708,371Z" fill="#7dcbbc" stroke="#7dcbbc" stroke-width="1.51"/><path d="M565,-83L544,114L711,55Z" fill="#b5e1b7" stroke="#b5e1b7" stroke-width="1.51"/><path d="M462,-50L544,114L565,-83Z" fill="#c2e6b5" stroke="#c2e6b5" stroke-width="1.51"/><path d="M453,387L548,521L571,341Z" fill="#88cfbc" stroke="#88cfbc" stroke-width="1.51"/><path d="M399,703L477,846L617,791Z" fill="#74b1ba" stroke="#74b1ba" stroke-width="1.51"/><path d="M477,846L547,963L617,791Z" fill="#6ca3b7" stroke="#6ca3b7" stroke-width="1.51"/><path d="M399,703L617,791L621,662Z" fill="#6fb6be" stroke="#6fb6be" stroke-width="1.51"/><path d="M547,963L457,1020L626,1190Z" fill="#6d8dad" stroke="#6d8dad" stroke-width="1.51"/><path d="M436,1193L614,1266L626,1190Z" fill="#667d9f" stroke="#667d9f" stroke-width="1.51"/><path d="M457,1020L436,1193L626,1190Z" fill="#7286a9" stroke="#7286a9" stroke-width="1.51"/><path d="M548,521L445,534L621,662Z" fill="#76c4be" stroke="#76c4be" stroke-width="1.51"/><path d="M445,534L399,703L621,662Z" fill="#7ac0bd" stroke="#7ac0bd" stroke-width="1.51"/><path d="M436,1193L421,1334L614,1266Z" fill="#6b7d97" stroke="#6b7d97" stroke-width="1.51"/><path d="M1,-238L81,-212L393,-262Z" fill="#eef8c1" stroke="#eef8c1" stroke-width="1.51"/><path d="M453,387L445,534L548,521Z" fill="#86cdbd" stroke="#86cdbd" stroke-width="1.51"/><path d="M557,-159L462,-50L565,-83Z" fill="#c9e9b7" stroke="#c9e9b7" stroke-width="1.51"/><path d="M539,194L404,244L571,341Z" fill="#a1d9b9" stroke="#a1d9b9" stroke-width="1.51"/><path d="M404,244L453,387L571,341Z" fill="#99d6b9" stroke="#99d6b9" stroke-width="1.51"/><path d="M462,-50L407,137L544,114Z" fill="#c0e6b5" stroke="#c0e6b5" stroke-width="1.51"/><path d="M393,-262L462,-50L557,-159Z" fill="#d2edbc" stroke="#d2edbc" stroke-width="1.51"/><path d="M81,-212L250,-203L393,-262Z" fill="#e8f6c0" stroke="#e8f6c0" stroke-width="1.51"/><path d="M407,137L539,194L544,114Z" fill="#b4e1b6" stroke="#b4e1b6" stroke-width="1.51"/><path d="M477,846L457,1020L547,963Z" fill="#739bb1" stroke="#739bb1" stroke-width="1.51"/><path d="M407,137L404,244L539,194Z" fill="#b3e0b6" stroke="#b3e0b6" stroke-width="1.51"/><path d="M328,519L445,534L453,387Z" fill="#90d0bb" stroke="#90d0bb" stroke-width="1.51"/><path d="M298,435L328,519L453,387Z" fill="#99d4ba" stroke="#99d4ba" stroke-width="1.51"/><path d="M334,796L238,973L457,1020Z" fill="#85a4b2" stroke="#85a4b2" stroke-width="1.51"/><path d="M244,1189L436,1193L457,1020Z" fill="#818ba8" stroke="#818ba8" stroke-width="1.51"/><path d="M393,-262L296,-70L462,-50Z" fill="#daf1b8" stroke="#daf1b8" stroke-width="1.51"/><path d="M274,70L407,137L462,-50Z" fill="#ccebb4" stroke="#ccebb4" stroke-width="1.51"/><path d="M296,-70L274,70L462,-50Z" fill="#d6efb3" stroke="#d6efb3" stroke-width="1.51"/><path d="M334,796L457,1020L477,846Z" fill="#7da6b5" stroke="#7da6b5" stroke-width="1.51"/><path d="M399,703L334,796L477,846Z" fill="#80b5ba" stroke="#80b5ba" stroke-width="1.51"/><path d="M328,519L399,703L445,534Z" fill="#89cabd" stroke="#89cabd" stroke-width="1.51"/><path d="M404,244L307,288L453,387Z" fill="#a7dbb8" stroke="#a7dbb8" stroke-width="1.51"/><path d="M238,973L244,1189L457,1020Z" fill="#8795ac" stroke="#8795ac" stroke-width="1.51"/><path d="M250,-203L296,-70L393,-262Z" fill="#e2f3bc" stroke="#e2f3bc" stroke-width="1.51"/><path d="M279,1305L421,1334L436,1193Z" fill="#768194" stroke="#768194" stroke-width="1.51"/><path d="M307,288L298,435L453,387Z" fill="#a2d9b9" stroke="#a2d9b9" stroke-width="1.51"/><path d="M244,1189L279,1305L436,1193Z" fill="#7f859c" stroke="#7f859c" stroke-width="1.51"/><path d="M94,1274L6,1305L279,1305Z" fill="#868591" stroke="#868591" stroke-width="1.51"/><path d="M328,519L248,703L399,703Z" fill="#8ec7bc" stroke="#8ec7bc" stroke-width="1.51"/><path d="M307,288L404,244L407,137Z" fill="#b6e2b6" stroke="#b6e2b6" stroke-width="1.51"/><path d="M274,70L307,288L407,137Z" fill="#c3e7b5" stroke="#c3e7b5" stroke-width="1.51"/><path d="M248,703L334,796L399,703Z" fill="#89bebb" stroke="#89bebb" stroke-width="1.51"/><path d="M238,973L183,1154L244,1189Z" fill="#8d92a9" stroke="#8d92a9" stroke-width="1.51"/><path d="M274,70L158,188L307,288Z" fill="#c6e8b5" stroke="#c6e8b5" stroke-width="1.51"/><path d="M182,689L248,703L328,519Z" fill="#94c8bc" stroke="#94c8bc" stroke-width="1.51"/><path d="M135,497L182,689L328,519Z" fill="#99d0bc" stroke="#99d0bc" stroke-width="1.51"/><path d="M248,703L134,858L334,796Z" fill="#8fb9b9" stroke="#8fb9b9" stroke-width="1.51"/><path d="M134,858L238,973L334,796Z" fill="#8eadb4" stroke="#8eadb4" stroke-width="1.51"/><path d="M142,443L298,435L307,288Z" fill="#a7dbb8" stroke="#a7dbb8" stroke-width="1.51"/><path d="M298,435L135,497L328,519Z" fill="#9ed5bb" stroke="#9ed5bb" stroke-width="1.51"/><path d="M134,858L190,967L238,973Z" fill="#90a7b0" stroke="#90a7b0" stroke-width="1.51"/><path d="M121,-85L274,70L296,-70Z" fill="#def1b3" stroke="#def1b3" stroke-width="1.51"/><path d="M250,-203L121,-85L296,-70Z" fill="#e5f5b6" stroke="#e5f5b6" stroke-width="1.51"/><path d="M142,443L135,497L298,435Z" fill="#a5d8ba" stroke="#a5d8ba" stroke-width="1.51"/><path d="M158,188L142,443L307,288Z" fill="#b5e1b6" stroke="#b5e1b6" stroke-width="1.51"/><path d="M190,967L183,1154L238,973Z" fill="#8e9bac" stroke="#8e9bac" stroke-width="1.51"/><path d="M182,689L134,858L248,703Z" fill="#94bfbb" stroke="#94bfbb" stroke-width="1.51"/><path d="M244,1189L94,1274L279,1305Z" fill="#848697" stroke="#848697" stroke-width="1.51"/><path d="M80,143L158,188L274,70Z" fill="#d2edb3" stroke="#d2edb3" stroke-width="1.51"/><path d="M121,-85L80,143L274,70Z" fill="#dcf1b3" stroke="#dcf1b3" stroke-width="1.51"/><path d="M4,268L142,443L158,188Z" fill="#bce4b6" stroke="#bce4b6" stroke-width="1.51"/><path d="M183,1154L94,1274L244,1189Z" fill="#8b8a9f" stroke="#8b8a9f" stroke-width="1.51"/><path d="M81,-212L121,-85L250,-203Z" fill="#ecf7ba" stroke="#ecf7ba" stroke-width="1.51"/><path d="M-9,86L80,143L121,-85Z" fill="#e2f4b2" stroke="#e2f4b2" stroke-width="1.51"/><path d="M1,831L134,858L182,689Z" fill="#99bbb8" stroke="#99bbb8" stroke-width="1.51"/><path d="M135,497L9,517L182,689Z" fill="#a1d3bc" stroke="#a1d3bc" stroke-width="1.51"/><path d="M9,517L-68,690L182,689Z" fill="#a2cebc" stroke="#a2cebc" stroke-width="1.51"/><path d="M-45,953L-51,1161L183,1154Z" fill="#9898ab" stroke="#9898ab" stroke-width="1.51"/><path d="M-45,953L183,1154L190,967Z" fill="#959eac" stroke="#959eac" stroke-width="1.51"/><path d="M134,858L-45,953L190,967Z" fill="#97a9b1" stroke="#97a9b1" stroke-width="1.51"/><path d="M-68,690L1,831L182,689Z" fill="#9dc4bc" stroke="#9dc4bc" stroke-width="1.51"/><path d="M-51,1161L94,1274L183,1154Z" fill="#928da0" stroke="#928da0" stroke-width="1.51"/><path d="M-32,-46L-9,86L121,-85Z" fill="#e8f6b3" stroke="#e8f6b3" stroke-width="1.51"/><path d="M4,268L-11,444L142,443Z" fill="#b5dfb9" stroke="#b5dfb9" stroke-width="1.51"/><path d="M80,143L4,268L158,188Z" fill="#ceebb4" stroke="#ceebb4" stroke-width="1.51"/><path d="M1,831L-45,953L134,858Z" fill="#9bb1b5" stroke="#9bb1b5" stroke-width="1.51"/><path d="M-11,444L9,517L135,497Z" fill="#abdabb" stroke="#abdabb" stroke-width="1.51"/><path d="M-11,444L135,497L142,443Z" fill="#abdbba" stroke="#abdbba" stroke-width="1.51"/><path d="M81,-212L-32,-46L121,-85Z" fill="#eff9b5" stroke="#eff9b5" stroke-width="1.51"/><path d="M-110,1104L-51,1161L-45,953Z" fill="#9a9bb2" stroke="#9a9bb2" stroke-width="1.51"/><path d="M1,-238L-32,-46L81,-212Z" fill="#f3fabd" stroke="#f3fabd" stroke-width="1.51"/><path d="M-51,1161L6,1305L94,1274Z" fill="#908a9b" stroke="#908a9b" stroke-width="1.51"/><path d="M-9,86L4,268L80,143Z" fill="#d5efb6" stroke="#d5efb6" stroke-width="1.51"/><path d="M-32,-46L-151,65L-9,86Z" fill="#e7f6ba" stroke="#e7f6ba" stroke-width="1.51"/><path d="M-151,65L-189,242L-9,86Z" fill="#dff3be" stroke="#dff3be" stroke-width="1.51"/><path d="M-203,-178L-32,-46L1,-238Z" fill="#f5fbc2" stroke="#f5fbc2" stroke-width="1.51"/><path d="M-167,369L-11,444L4,268Z" fill="#bae2bf" stroke="#bae2bf" stroke-width="1.51"/><path d="M-9,86L-189,242L4,268Z" fill="#d3edbd" stroke="#d3edbd" stroke-width="1.51"/><path d="M-51,1161L-177,1341L6,1305Z" fill="#8f899d" stroke="#8f899d" stroke-width="1.51"/><path d="M-11,444L-188,554L9,517Z" fill="#addac3" stroke="#addac3" stroke-width="1.51"/><path d="M-188,554L-115,636L9,517Z" fill="#a8d6c5" stroke="#a8d6c5" stroke-width="1.51"/><path d="M-115,636L-68,690L9,517Z" fill="#a5d1c3" stroke="#a5d1c3" stroke-width="1.51"/><path d="M-182,859L-45,953L1,831Z" fill="#9db2bb" stroke="#9db2bb" stroke-width="1.51"/><path d="M-68,690L-182,859L1,831Z" fill="#9fbec1" stroke="#9fbec1" stroke-width="1.51"/><path d="M-189,242L-167,369L4,268Z" fill="#c5e7c2" stroke="#c5e7c2" stroke-width="1.51"/><path d="M-142,975L-110,1104L-45,953Z" fill="#9ca2b6" stroke="#9ca2b6" stroke-width="1.51"/><path d="M-167,369L-188,554L-11,444Z" fill="#b3ddc5" stroke="#b3ddc5" stroke-width="1.51"/><path d="M-182,859L-142,975L-45,953Z" fill="#9dacbc" stroke="#9dacbc" stroke-width="1.51"/><path d="M-188,-10L-151,65L-32,-46Z" fill="#ebf7be" stroke="#ebf7be" stroke-width="1.51"/><path d="M-203,-178L-188,-10L-32,-46Z" fill="#f3fbbf" stroke="#f3fbbf" stroke-width="1.51"/><path d="M-110,1104L-177,1341L-51,1161Z" fill="#978faa" stroke="#978faa" stroke-width="1.51"/><path d="M-115,636L-182,859L-68,690Z" fill="#a2c6c6" stroke="#a2c6c6" stroke-width="1.51"/><path d="M-188,554L-182,859L-115,636Z" fill="#a4cbc9" stroke="#a4cbc9" stroke-width="1.51"/><path d="M-142,975L-177,1341L-110,1104Z" fill="#9b94b3" stroke="#9b94b3" stroke-width="1.51"/><path d="M-182,859L-177,1341L-142,975Z" fill="#9d9eb9" stroke="#9d9eb9" stroke-width="1.51"/><path d="M-188,-10L-189,242L-151,65Z" fill="#e4f5c2" stroke="#e4f5c2" stroke-width="1.51"/><path d="M-189,242L-188,554L-167,369Z" fill="#bbe2c7" stroke="#bbe2c7" stroke-width="1.51"/><path d="M-189,242L-203,-178L-188,554Z" fill="#d5eec5" stroke="#d5eec5" stroke-width="1.51"/><path d="M-203,-178L-189,242L-188,-10Z" fill="#ecf8c2" stroke="#ecf8c2" stroke-width="1.51"/></svg>